0, 0, Header, 1, 10, 480
1, 0, Start_track
1, 0, Sequencer_specific, 13, 5, 15, 28, 50, 48, 48, 57, 46, 48, 53, 46, 48, 54
1, 0, Sequencer_specific, 10, 5, 15, 18, 0, 0, 127, 110, 0, 127, 1
1, 0, Tempo, 600000
1, 0, Title_t, ""
1, 0, Time_signature, 4, 2, 9, 39
1, 0, End_track
2, 0, Start_track
2, 0, Sequencer_specific, 5, 5, 15, 9, 0, 64
2, 0, Sequencer_specific, 15, 5, 15, 6, 71, 101, 110, 101, 114, 97, 108, 32, 77, 73, 68, 73
2, 0, Title_t, "BASS"
2, 0, Control_c, 1, 100, 0
2, 0, Control_c, 1, 101, 0
2, 0, Control_c, 1, 6, 12
2, 0, Pitch_bend_c, 1, 8192
2, 0, Control_c, 1, 101, 0
2, 0, Control_c, 1, 100, 1
2, 0, Control_c, 1, 6, 64
2, 0, Control_c, 1, 38, 0
2, 0, Control_c, 1, 101, 127
2, 0, Control_c, 1, 100, 127
2, 0, Control_c, 1, 101, 0
2, 0, Control_c, 1, 100, 2
2, 0, Control_c, 1, 6, 64
2, 0, Control_c, 1, 101, 127
2, 0, Control_c, 1, 100, 127
2, 0, Program_c, 1, 33
2, 0, Control_c, 1, 0, 0
2, 0, Control_c, 1, 7, 127
2, 0, Control_c, 1, 10, 64
2, 0, Control_c, 1, 93, 0
2, 0, Control_c, 1, 91, 0
2, 0, Control_c, 1, 92, 0
2, 0, Control_c, 1, 95, 0
2, 0, Note_on_c, 1, 42, 127
2, 240, Note_off_c, 1, 42, 80
2, 480, Note_on_c, 1, 42, 127
2, 720, Note_off_c, 1, 42, 80
2, 960, Note_on_c, 1, 42, 127
2, 1200, Note_off_c, 1, 42, 80
2, 1440, Note_on_c, 1, 42, 127
2, 1680, Note_off_c, 1, 42, 80
2, 1920, Note_on_c, 1, 42, 127
2, 2160, Note_off_c, 1, 42, 80
2, 2400, Note_on_c, 1, 42, 127
2, 2640, Note_off_c, 1, 42, 80
2, 2880, Note_on_c, 1, 42, 127
2, 3120, Note_off_c, 1, 42, 80
2, 3360, Note_on_c, 1, 42, 127
2, 3600, Note_off_c, 1, 42, 80
2, 3840, Note_on_c, 1, 42, 127
2, 4080, Note_off_c, 1, 42, 80
2, 4320, Note_on_c, 1, 42, 127
2, 4560, Note_off_c, 1, 42, 80
2, 4800, Note_on_c, 1, 42, 127
2, 5040, Note_off_c, 1, 42, 80
2, 5280, Note_on_c, 1, 42, 127
2, 5520, Note_off_c, 1, 42, 80
2, 5760, Note_on_c, 1, 42, 127
2, 6000, Note_off_c, 1, 42, 80
2, 6240, Note_on_c, 1, 42, 127
2, 6480, Note_off_c, 1, 42, 80
2, 6720, Note_on_c, 1, 42, 127
2, 6960, Note_off_c, 1, 42, 80
2, 7200, Note_on_c, 1, 42, 127
2, 7440, Note_off_c, 1, 42, 80
2, 7680, Note_on_c, 1, 42, 127
2, 7920, Note_off_c, 1, 42, 80
2, 8160, Note_on_c, 1, 42, 127
2, 8400, Note_off_c, 1, 42, 80
2, 8640, Note_on_c, 1, 42, 127
2, 8880, Note_off_c, 1, 42, 80
2, 9120, Note_on_c, 1, 42, 127
2, 9360, Note_off_c, 1, 42, 80
2, 9600, Note_on_c, 1, 42, 127
2, 9840, Note_off_c, 1, 42, 80
2, 10080, Note_on_c, 1, 42, 127
2, 10320, Note_off_c, 1, 42, 80
2, 10560, Note_on_c, 1, 42, 127
2, 10800, Note_off_c, 1, 42, 80
2, 11040, Note_on_c, 1, 42, 127
2, 11280, Note_off_c, 1, 42, 80
2, 11520, Note_on_c, 1, 42, 127
2, 11760, Note_off_c, 1, 42, 80
2, 12000, Note_on_c, 1, 42, 127
2, 12240, Note_off_c, 1, 42, 80
2, 12480, Note_on_c, 1, 42, 127
2, 12720, Note_off_c, 1, 42, 80
2, 12960, Note_on_c, 1, 42, 127
2, 13200, Note_off_c, 1, 42, 80
2, 13440, Note_on_c, 1, 42, 127
2, 13680, Note_off_c, 1, 42, 80
2, 13920, Note_on_c, 1, 42, 127
2, 14160, Note_off_c, 1, 42, 80
2, 14400, Note_on_c, 1, 42, 127
2, 14640, Note_off_c, 1, 42, 80
2, 14880, Note_on_c, 1, 42, 127
2, 15120, Note_off_c, 1, 42, 80
2, 15360, Note_on_c, 1, 49, 127
2, 15600, Note_off_c, 1, 49, 80
2, 15840, Note_on_c, 1, 49, 127
2, 16080, Note_off_c, 1, 49, 80
2, 16320, Note_on_c, 1, 49, 127
2, 16560, Note_off_c, 1, 49, 80
2, 16800, Note_on_c, 1, 49, 127
2, 17040, Note_off_c, 1, 49, 80
2, 17280, Note_on_c, 1, 51, 127
2, 17520, Note_off_c, 1, 51, 80
2, 17760, Note_on_c, 1, 51, 127
2, 18000, Note_off_c, 1, 51, 80
2, 18240, Note_on_c, 1, 49, 127
2, 18480, Note_off_c, 1, 49, 80
2, 18720, Note_on_c, 1, 49, 127
2, 18960, Note_off_c, 1, 49, 80
2, 19200, Note_on_c, 1, 48, 127
2, 19440, Note_off_c, 1, 48, 80
2, 19680, Note_on_c, 1, 48, 127
2, 19920, Note_off_c, 1, 48, 80
2, 20160, Note_on_c, 1, 48, 127
2, 20400, Note_off_c, 1, 48, 80
2, 20640, Note_on_c, 1, 48, 127
2, 20880, Note_off_c, 1, 48, 80
2, 21120, Note_on_c, 1, 53, 127
2, 21360, Note_off_c, 1, 53, 80
2, 21600, Note_on_c, 1, 53, 127
2, 21840, Note_off_c, 1, 53, 80
2, 22080, Note_on_c, 1, 51, 127
2, 22320, Note_off_c, 1, 51, 80
2, 22560, Note_on_c, 1, 51, 127
2, 22800, Note_off_c, 1, 51, 80
2, 23040, Note_on_c, 1, 50, 127
2, 23280, Note_off_c, 1, 50, 80
2, 23520, Note_on_c, 1, 50, 127
2, 23760, Note_off_c, 1, 50, 80
2, 24000, Note_on_c, 1, 50, 127
2, 24240, Note_off_c, 1, 50, 80
2, 24480, Note_on_c, 1, 50, 127
2, 24720, Note_off_c, 1, 50, 80
2, 24960, Note_on_c, 1, 43, 127
2, 25200, Note_off_c, 1, 43, 80
2, 25440, Note_on_c, 1, 43, 127
2, 25680, Note_off_c, 1, 43, 80
2, 25920, Note_on_c, 1, 43, 127
2, 26160, Note_off_c, 1, 43, 80
2, 26400, Note_on_c, 1, 43, 127
2, 26640, Note_off_c, 1, 43, 80
2, 26880, Note_on_c, 1, 42, 127
2, 27120, Note_off_c, 1, 42, 80
2, 27360, Note_on_c, 1, 42, 127
2, 27600, Note_off_c, 1, 42, 80
2, 27840, Note_on_c, 1, 42, 127
2, 28080, Note_off_c, 1, 42, 80
2, 28320, Note_on_c, 1, 42, 127
2, 28560, Note_off_c, 1, 42, 80
2, 28800, Note_on_c, 1, 41, 127
2, 29040, Note_off_c, 1, 41, 80
2, 29280, Note_on_c, 1, 41, 127
2, 29520, Note_off_c, 1, 41, 80
2, 29760, Note_on_c, 1, 41, 127
2, 30000, Note_off_c, 1, 41, 80
2, 30240, Note_on_c, 1, 41, 127
2, 30480, Note_off_c, 1, 41, 80
2, 30720, Note_on_c, 1, 42, 127
2, 30960, Note_off_c, 1, 42, 80
2, 31200, Note_on_c, 1, 42, 127
2, 31440, Note_off_c, 1, 42, 80
2, 31680, Note_on_c, 1, 42, 127
2, 31920, Note_off_c, 1, 42, 80
2, 32160, Note_on_c, 1, 42, 127
2, 32400, Note_off_c, 1, 42, 80
2, 32640, Note_on_c, 1, 42, 127
2, 32880, Note_off_c, 1, 42, 80
2, 33120, Note_on_c, 1, 42, 127
2, 33360, Note_off_c, 1, 42, 80
2, 33600, Note_on_c, 1, 42, 127
2, 33840, Note_off_c, 1, 42, 80
2, 34080, Note_on_c, 1, 42, 127
2, 34320, Note_off_c, 1, 42, 80
2, 34560, Note_on_c, 1, 42, 127
2, 34800, Note_off_c, 1, 42, 80
2, 35040, Note_on_c, 1, 42, 127
2, 35280, Note_off_c, 1, 42, 80
2, 35520, Note_on_c, 1, 42, 127
2, 35760, Note_off_c, 1, 42, 80
2, 36000, Note_on_c, 1, 42, 127
2, 36240, Note_off_c, 1, 42, 80
2, 36480, Note_on_c, 1, 42, 127
2, 36720, Note_off_c, 1, 42, 80
2, 36960, Note_on_c, 1, 42, 127
2, 37200, Note_off_c, 1, 42, 80
2, 37440, Note_on_c, 1, 42, 127
2, 37680, Note_off_c, 1, 42, 80
2, 37920, Note_on_c, 1, 42, 127
2, 38160, Note_off_c, 1, 42, 80
2, 38160, End_track
3, 0, Start_track
3, 0, Sequencer_specific, 5, 5, 15, 9, 0, 64
3, 0, Sequencer_specific, 15, 5, 15, 6, 71, 101, 110, 101, 114, 97, 108, 32, 77, 73, 68, 73
3, 0, Title_t, ""
3, 0, Control_c, 0, 100, 0
3, 0, Control_c, 0, 101, 0
3, 0, Control_c, 0, 6, 12
3, 0, Pitch_bend_c, 0, 8192
3, 0, Control_c, 0, 101, 0
3, 0, Control_c, 0, 100, 1
3, 0, Control_c, 0, 6, 64
3, 0, Control_c, 0, 38, 0
3, 0, Control_c, 0, 101, 127
3, 0, Control_c, 0, 100, 127
3, 0, Control_c, 0, 101, 0
3, 0, Control_c, 0, 100, 2
3, 0, Control_c, 0, 6, 64
3, 0, Control_c, 0, 101, 127
3, 0, Control_c, 0, 100, 127
3, 0, Program_c, 0, 96
3, 0, Control_c, 0, 0, 0
3, 0, Control_c, 0, 7, 96
3, 0, Control_c, 0, 10, 64
3, 0, Control_c, 0, 93, 0
3, 0, Control_c, 0, 91, 0
3, 0, Control_c, 0, 92, 0
3, 0, Control_c, 0, 95, 0
3, 0, Note_on_c, 0, 67, 111
3, 480, Note_off_c, 0, 67, 80
3, 480, Note_on_c, 0, 62, 111
3, 960, Note_off_c, 0, 62, 80
3, 960, Note_on_c, 0, 67, 111
3, 1440, Note_off_c, 0, 67, 80
3, 1440, Note_on_c, 0, 62, 111
3, 1680, Note_off_c, 0, 62, 80
3, 1680, Note_on_c, 0, 67, 111
3, 1920, Note_off_c, 0, 67, 80
3, 1920, Note_on_c, 0, 72, 111
3, 2400, Note_off_c, 0, 72, 80
3, 2400, Note_on_c, 0, 67, 111
3, 2880, Note_off_c, 0, 67, 80
3, 2880, Note_on_c, 0, 72, 111
3, 3360, Note_off_c, 0, 72, 80
3, 3360, Note_on_c, 0, 67, 111
3, 3600, Note_off_c, 0, 67, 80
3, 3600, Note_on_c, 0, 72, 111
3, 3840, Note_off_c, 0, 72, 80
3, 3840, Note_on_c, 0, 67, 111
3, 4320, Note_off_c, 0, 67, 80
3, 4320, Note_on_c, 0, 62, 111
3, 4800, Note_off_c, 0, 62, 80
3, 4800, Note_on_c, 0, 67, 111
3, 5280, Note_off_c, 0, 67, 80
3, 5280, Note_on_c, 0, 62, 111
3, 5520, Note_off_c, 0, 62, 80
3, 5520, Note_on_c, 0, 67, 111
3, 5760, Note_off_c, 0, 67, 80
3, 5760, Note_on_c, 0, 72, 111
3, 6240, Note_off_c, 0, 72, 80
3, 6240, Note_on_c, 0, 67, 111
3, 6720, Note_off_c, 0, 67, 80
3, 6720, Note_on_c, 0, 72, 111
3, 7200, Note_off_c, 0, 72, 80
3, 7200, Note_on_c, 0, 67, 111
3, 7440, Note_off_c, 0, 67, 80
3, 7440, Note_on_c, 0, 72, 111
3, 7680, Note_off_c, 0, 72, 80
3, 7680, Note_on_c, 0, 67, 111
3, 8160, Note_off_c, 0, 67, 80
3, 8160, Note_on_c, 0, 62, 111
3, 8640, Note_off_c, 0, 62, 80
3, 8640, Note_on_c, 0, 67, 111
3, 9120, Note_off_c, 0, 67, 80
3, 9120, Note_on_c, 0, 62, 111
3, 9360, Note_off_c, 0, 62, 80
3, 9360, Note_on_c, 0, 67, 111
3, 9600, Note_off_c, 0, 67, 80
3, 9600, Note_on_c, 0, 72, 111
3, 10080, Note_off_c, 0, 72, 80
3, 10080, Note_on_c, 0, 67, 111
3, 10560, Note_off_c, 0, 67, 80
3, 10560, Note_on_c, 0, 72, 111
3, 11040, Note_off_c, 0, 72, 80
3, 11040, Note_on_c, 0, 67, 111
3, 11280, Note_off_c, 0, 67, 80
3, 11280, Note_on_c, 0, 72, 111
3, 11520, Note_off_c, 0, 72, 80
3, 11520, Note_on_c, 0, 67, 111
3, 12000, Note_off_c, 0, 67, 80
3, 12000, Note_on_c, 0, 62, 111
3, 12480, Note_off_c, 0, 62, 80
3, 12480, Note_on_c, 0, 67, 111
3, 12960, Note_off_c, 0, 67, 80
3, 12960, Note_on_c, 0, 62, 111
3, 13200, Note_off_c, 0, 62, 80
3, 13200, Note_on_c, 0, 67, 111
3, 13440, Note_off_c, 0, 67, 80
3, 13440, Note_on_c, 0, 72, 111
3, 13920, Note_off_c, 0, 72, 80
3, 13920, Note_on_c, 0, 67, 111
3, 14400, Note_off_c, 0, 67, 80
3, 14400, Note_on_c, 0, 72, 111
3, 14880, Note_off_c, 0, 72, 80
3, 14880, Note_on_c, 0, 67, 111
3, 15120, Note_off_c, 0, 67, 80
3, 15120, Note_on_c, 0, 72, 111
3, 15360, Note_off_c, 0, 72, 80
3, 30720, Note_on_c, 0, 67, 111
3, 31200, Note_off_c, 0, 67, 80
3, 31200, Note_on_c, 0, 62, 111
3, 31680, Note_off_c, 0, 62, 80
3, 31680, Note_on_c, 0, 67, 111
3, 32160, Note_off_c, 0, 67, 80
3, 32160, Note_on_c, 0, 62, 111
3, 32400, Note_off_c, 0, 62, 80
3, 32400, Note_on_c, 0, 67, 111
3, 32640, Note_off_c, 0, 67, 80
3, 32640, Note_on_c, 0, 72, 111
3, 33120, Note_off_c, 0, 72, 80
3, 33120, Note_on_c, 0, 67, 111
3, 33600, Note_off_c, 0, 67, 80
3, 33600, Note_on_c, 0, 72, 111
3, 34080, Note_off_c, 0, 72, 80
3, 34080, Note_on_c, 0, 67, 111
3, 34320, Note_off_c, 0, 67, 80
3, 34320, Note_on_c, 0, 72, 111
3, 34560, Note_off_c, 0, 72, 80
3, 34560, Note_on_c, 0, 67, 111
3, 35040, Note_off_c, 0, 67, 80
3, 35040, Note_on_c, 0, 62, 111
3, 35520, Note_off_c, 0, 62, 80
3, 35520, Note_on_c, 0, 67, 111
3, 36000, Note_off_c, 0, 67, 80
3, 36000, Note_on_c, 0, 62, 111
3, 36240, Note_off_c, 0, 62, 80
3, 36240, Note_on_c, 0, 67, 111
3, 36480, Note_off_c, 0, 67, 80
3, 36480, Note_on_c, 0, 72, 111
3, 36960, Note_off_c, 0, 72, 80
3, 36960, Note_on_c, 0, 67, 111
3, 37440, Note_off_c, 0, 67, 80
3, 37440, Note_on_c, 0, 72, 111
3, 37920, Note_off_c, 0, 72, 80
3, 37920, Note_on_c, 0, 67, 111
3, 38160, Note_off_c, 0, 67, 80
3, 38160, Note_on_c, 0, 72, 111
3, 38400, Note_off_c, 0, 72, 80
3, 38400, End_track
4, 0, Start_track
4, 0, Sequencer_specific, 5, 5, 15, 9, 0, 64
4, 0, Sequencer_specific, 15, 5, 15, 6, 71, 101, 110, 101, 114, 97, 108, 32, 77, 73, 68, 73
4, 0, Title_t, ""
4, 0, Control_c, 2, 100, 0
4, 0, Control_c, 2, 101, 0
4, 0, Control_c, 2, 6, 12
4, 0, Pitch_bend_c, 2, 8192
4, 0, Control_c, 2, 101, 0
4, 0, Control_c, 2, 100, 1
4, 0, Control_c, 2, 6, 64
4, 0, Control_c, 2, 38, 0
4, 0, Control_c, 2, 101, 127
4, 0, Control_c, 2, 100, 127
4, 0, Control_c, 2, 101, 0
4, 0, Control_c, 2, 100, 2
4, 0, Control_c, 2, 6, 64
4, 0, Control_c, 2, 101, 127
4, 0, Control_c, 2, 100, 127
4, 0, Program_c, 2, 75
4, 0, Control_c, 2, 0, 0
4, 0, Control_c, 2, 7, 88
4, 0, Control_c, 2, 10, 64
4, 0, Control_c, 2, 93, 0
4, 0, Control_c, 2, 91, 0
4, 0, Control_c, 2, 92, 0
4, 0, Control_c, 2, 95, 0
4, 0, Note_on_c, 2, 70, 63
4, 120, Note_off_c, 2, 70, 80
4, 120, Note_on_c, 2, 72, 63
4, 240, Note_off_c, 2, 72, 80
4, 240, Note_on_c, 2, 74, 63
4, 360, Note_off_c, 2, 74, 80
4, 480, Note_on_c, 2, 70, 63
4, 600, Note_off_c, 2, 70, 80
4, 600, Note_on_c, 2, 72, 63
4, 720, Note_off_c, 2, 72, 80
4, 720, Note_on_c, 2, 74, 63
4, 840, Note_off_c, 2, 74, 80
4, 960, Note_on_c, 2, 70, 63
4, 1080, Note_off_c, 2, 70, 80
4, 1080, Note_on_c, 2, 72, 63
4, 1200, Note_off_c, 2, 72, 80
4, 1200, Note_on_c, 2, 74, 63
4, 1320, Note_off_c, 2, 74, 80
4, 1440, Note_on_c, 2, 70, 63
4, 1560, Note_off_c, 2, 70, 80
4, 1560, Note_on_c, 2, 72, 63
4, 1680, Note_off_c, 2, 72, 80
4, 1680, Note_on_c, 2, 74, 63
4, 1800, Note_off_c, 2, 74, 80
4, 1920, Note_on_c, 2, 72, 63
4, 2040, Note_off_c, 2, 72, 80
4, 2040, Note_on_c, 2, 74, 63
4, 2160, Note_off_c, 2, 74, 80
4, 2160, Note_on_c, 2, 76, 63
4, 2280, Note_off_c, 2, 76, 80
4, 2400, Note_on_c, 2, 72, 63
4, 2520, Note_off_c, 2, 72, 80
4, 2520, Note_on_c, 2, 74, 63
4, 2640, Note_off_c, 2, 74, 80
4, 2640, Note_on_c, 2, 76, 63
4, 2760, Note_off_c, 2, 76, 80
4, 2880, Note_on_c, 2, 72, 63
4, 3000, Note_off_c, 2, 72, 80
4, 3000, Note_on_c, 2, 74, 63
4, 3120, Note_off_c, 2, 74, 80
4, 3120, Note_on_c, 2, 76, 63
4, 3240, Note_off_c, 2, 76, 80
4, 3360, Note_on_c, 2, 72, 63
4, 3480, Note_off_c, 2, 72, 80
4, 3480, Note_on_c, 2, 74, 63
4, 3600, Note_off_c, 2, 74, 80
4, 3600, Note_on_c, 2, 76, 63
4, 3720, Note_off_c, 2, 76, 80
4, 3840, Note_on_c, 2, 70, 63
4, 3960, Note_off_c, 2, 70, 80
4, 3960, Note_on_c, 2, 72, 63
4, 4080, Note_off_c, 2, 72, 80
4, 4080, Note_on_c, 2, 74, 63
4, 4200, Note_off_c, 2, 74, 80
4, 4320, Note_on_c, 2, 70, 63
4, 4440, Note_off_c, 2, 70, 80
4, 4440, Note_on_c, 2, 72, 63
4, 4560, Note_off_c, 2, 72, 80
4, 4560, Note_on_c, 2, 74, 63
4, 4680, Note_off_c, 2, 74, 80
4, 4800, Note_on_c, 2, 70, 63
4, 4920, Note_off_c, 2, 70, 80
4, 4920, Note_on_c, 2, 72, 63
4, 5040, Note_off_c, 2, 72, 80
4, 5040, Note_on_c, 2, 74, 63
4, 5160, Note_off_c, 2, 74, 80
4, 5280, Note_on_c, 2, 70, 63
4, 5400, Note_off_c, 2, 70, 80
4, 5400, Note_on_c, 2, 72, 63
4, 5520, Note_off_c, 2, 72, 80
4, 5520, Note_on_c, 2, 74, 63
4, 5640, Note_off_c, 2, 74, 80
4, 5760, Note_on_c, 2, 72, 63
4, 5880, Note_off_c, 2, 72, 80
4, 5880, Note_on_c, 2, 74, 63
4, 6000, Note_off_c, 2, 74, 80
4, 6000, Note_on_c, 2, 76, 63
4, 6120, Note_off_c, 2, 76, 80
4, 6240, Note_on_c, 2, 72, 63
4, 6360, Note_off_c, 2, 72, 80
4, 6360, Note_on_c, 2, 74, 63
4, 6480, Note_off_c, 2, 74, 80
4, 6480, Note_on_c, 2, 76, 63
4, 6600, Note_off_c, 2, 76, 80
4, 6720, Note_on_c, 2, 72, 63
4, 6840, Note_off_c, 2, 72, 80
4, 6840, Note_on_c, 2, 74, 63
4, 6960, Note_off_c, 2, 74, 80
4, 6960, Note_on_c, 2, 76, 63
4, 7080, Note_off_c, 2, 76, 80
4, 7200, Note_on_c, 2, 72, 63
4, 7320, Note_off_c, 2, 72, 80
4, 7320, Note_on_c, 2, 74, 63
4, 7440, Note_off_c, 2, 74, 80
4, 7440, Note_on_c, 2, 76, 63
4, 7560, Note_off_c, 2, 76, 80
4, 7680, Note_on_c, 2, 70, 63
4, 7800, Note_off_c, 2, 70, 80
4, 7800, Note_on_c, 2, 72, 63
4, 7920, Note_off_c, 2, 72, 80
4, 7920, Note_on_c, 2, 74, 63
4, 8040, Note_off_c, 2, 74, 80
4, 8160, Note_on_c, 2, 70, 63
4, 8280, Note_off_c, 2, 70, 80
4, 8280, Note_on_c, 2, 72, 63
4, 8400, Note_off_c, 2, 72, 80
4, 8400, Note_on_c, 2, 74, 63
4, 8520, Note_off_c, 2, 74, 80
4, 8640, Note_on_c, 2, 70, 63
4, 8760, Note_off_c, 2, 70, 80
4, 8760, Note_on_c, 2, 72, 63
4, 8880, Note_off_c, 2, 72, 80
4, 8880, Note_on_c, 2, 74, 63
4, 9000, Note_off_c, 2, 74, 80
4, 9120, Note_on_c, 2, 70, 63
4, 9240, Note_off_c, 2, 70, 80
4, 9240, Note_on_c, 2, 72, 63
4, 9360, Note_off_c, 2, 72, 80
4, 9360, Note_on_c, 2, 74, 63
4, 9480, Note_off_c, 2, 74, 80
4, 9600, Note_on_c, 2, 72, 63
4, 9720, Note_off_c, 2, 72, 80
4, 9720, Note_on_c, 2, 74, 63
4, 9840, Note_off_c, 2, 74, 80
4, 9840, Note_on_c, 2, 76, 63
4, 9960, Note_off_c, 2, 76, 80
4, 10080, Note_on_c, 2, 72, 63
4, 10200, Note_off_c, 2, 72, 80
4, 10200, Note_on_c, 2, 74, 63
4, 10320, Note_off_c, 2, 74, 80
4, 10320, Note_on_c, 2, 76, 63
4, 10440, Note_off_c, 2, 76, 80
4, 10560, Note_on_c, 2, 72, 63
4, 10680, Note_off_c, 2, 72, 80
4, 10680, Note_on_c, 2, 74, 63
4, 10800, Note_off_c, 2, 74, 80
4, 10800, Note_on_c, 2, 76, 63
4, 10920, Note_off_c, 2, 76, 80
4, 11040, Note_on_c, 2, 72, 63
4, 11160, Note_off_c, 2, 72, 80
4, 11160, Note_on_c, 2, 74, 63
4, 11280, Note_off_c, 2, 74, 80
4, 11280, Note_on_c, 2, 76, 63
4, 11400, Note_off_c, 2, 76, 80
4, 11520, Note_on_c, 2, 70, 63
4, 11640, Note_off_c, 2, 70, 80
4, 11640, Note_on_c, 2, 72, 63
4, 11760, Note_off_c, 2, 72, 80
4, 11760, Note_on_c, 2, 74, 63
4, 11880, Note_off_c, 2, 74, 80
4, 12000, Note_on_c, 2, 70, 63
4, 12120, Note_off_c, 2, 70, 80
4, 12120, Note_on_c, 2, 72, 63
4, 12240, Note_off_c, 2, 72, 80
4, 12240, Note_on_c, 2, 74, 63
4, 12360, Note_off_c, 2, 74, 80
4, 12480, Note_on_c, 2, 70, 63
4, 12600, Note_off_c, 2, 70, 80
4, 12600, Note_on_c, 2, 72, 63
4, 12720, Note_off_c, 2, 72, 80
4, 12720, Note_on_c, 2, 74, 63
4, 12840, Note_off_c, 2, 74, 80
4, 12960, Note_on_c, 2, 70, 63
4, 13080, Note_off_c, 2, 70, 80
4, 13080, Note_on_c, 2, 72, 63
4, 13200, Note_off_c, 2, 72, 80
4, 13200, Note_on_c, 2, 74, 63
4, 13320, Note_off_c, 2, 74, 80
4, 13440, Note_on_c, 2, 72, 63
4, 13560, Note_off_c, 2, 72, 80
4, 13560, Note_on_c, 2, 74, 63
4, 13680, Note_off_c, 2, 74, 80
4, 13680, Note_on_c, 2, 76, 63
4, 13800, Note_off_c, 2, 76, 80
4, 13920, Note_on_c, 2, 72, 63
4, 14040, Note_off_c, 2, 72, 80
4, 14040, Note_on_c, 2, 74, 63
4, 14160, Note_off_c, 2, 74, 80
4, 14160, Note_on_c, 2, 76, 63
4, 14280, Note_off_c, 2, 76, 80
4, 14400, Note_on_c, 2, 72, 63
4, 14520, Note_off_c, 2, 72, 80
4, 14520, Note_on_c, 2, 74, 63
4, 14640, Note_off_c, 2, 74, 80
4, 14640, Note_on_c, 2, 76, 63
4, 14760, Note_off_c, 2, 76, 80
4, 14880, Note_on_c, 2, 72, 63
4, 15000, Note_off_c, 2, 72, 80
4, 15000, Note_on_c, 2, 74, 63
4, 15120, Note_off_c, 2, 74, 80
4, 15120, Note_on_c, 2, 76, 63
4, 15240, Note_off_c, 2, 76, 80
4, 30720, Note_on_c, 2, 70, 63
4, 30840, Note_off_c, 2, 70, 80
4, 30840, Note_on_c, 2, 72, 63
4, 30960, Note_off_c, 2, 72, 80
4, 30960, Note_on_c, 2, 74, 63
4, 31080, Note_off_c, 2, 74, 80
4, 31200, Note_on_c, 2, 70, 63
4, 31320, Note_off_c, 2, 70, 80
4, 31320, Note_on_c, 2, 72, 63
4, 31440, Note_off_c, 2, 72, 80
4, 31440, Note_on_c, 2, 74, 63
4, 31560, Note_off_c, 2, 74, 80
4, 31680, Note_on_c, 2, 70, 63
4, 31800, Note_off_c, 2, 70, 80
4, 31800, Note_on_c, 2, 72, 63
4, 31920, Note_off_c, 2, 72, 80
4, 31920, Note_on_c, 2, 74, 63
4, 32040, Note_off_c, 2, 74, 80
4, 32160, Note_on_c, 2, 70, 63
4, 32280, Note_off_c, 2, 70, 80
4, 32280, Note_on_c, 2, 72, 63
4, 32400, Note_off_c, 2, 72, 80
4, 32400, Note_on_c, 2, 74, 63
4, 32520, Note_off_c, 2, 74, 80
4, 32640, Note_on_c, 2, 72, 63
4, 32760, Note_off_c, 2, 72, 80
4, 32760, Note_on_c, 2, 74, 63
4, 32880, Note_off_c, 2, 74, 80
4, 32880, Note_on_c, 2, 76, 63
4, 33000, Note_off_c, 2, 76, 80
4, 33120, Note_on_c, 2, 72, 63
4, 33240, Note_off_c, 2, 72, 80
4, 33240, Note_on_c, 2, 74, 63
4, 33360, Note_off_c, 2, 74, 80
4, 33360, Note_on_c, 2, 76, 63
4, 33480, Note_off_c, 2, 76, 80
4, 33600, Note_on_c, 2, 72, 63
4, 33720, Note_off_c, 2, 72, 80
4, 33720, Note_on_c, 2, 74, 63
4, 33840, Note_off_c, 2, 74, 80
4, 33840, Note_on_c, 2, 76, 63
4, 33960, Note_off_c, 2, 76, 80
4, 34080, Note_on_c, 2, 72, 63
4, 34200, Note_off_c, 2, 72, 80
4, 34200, Note_on_c, 2, 74, 63
4, 34320, Note_off_c, 2, 74, 80
4, 34320, Note_on_c, 2, 76, 63
4, 34440, Note_off_c, 2, 76, 80
4, 34560, Note_on_c, 2, 70, 63
4, 34680, Note_off_c, 2, 70, 80
4, 34680, Note_on_c, 2, 72, 63
4, 34800, Note_off_c, 2, 72, 80
4, 34800, Note_on_c, 2, 74, 63
4, 34920, Note_off_c, 2, 74, 80
4, 35040, Note_on_c, 2, 70, 63
4, 35160, Note_off_c, 2, 70, 80
4, 35160, Note_on_c, 2, 72, 63
4, 35280, Note_off_c, 2, 72, 80
4, 35280, Note_on_c, 2, 74, 63
4, 35400, Note_off_c, 2, 74, 80
4, 35520, Note_on_c, 2, 70, 63
4, 35640, Note_off_c, 2, 70, 80
4, 35640, Note_on_c, 2, 72, 63
4, 35760, Note_off_c, 2, 72, 80
4, 35760, Note_on_c, 2, 74, 63
4, 35880, Note_off_c, 2, 74, 80
4, 36000, Note_on_c, 2, 70, 63
4, 36120, Note_off_c, 2, 70, 80
4, 36120, Note_on_c, 2, 72, 63
4, 36240, Note_off_c, 2, 72, 80
4, 36240, Note_on_c, 2, 74, 63
4, 36360, Note_off_c, 2, 74, 80
4, 36480, Note_on_c, 2, 72, 63
4, 36600, Note_off_c, 2, 72, 80
4, 36600, Note_on_c, 2, 74, 63
4, 36720, Note_off_c, 2, 74, 80
4, 36720, Note_on_c, 2, 76, 63
4, 36840, Note_off_c, 2, 76, 80
4, 36960, Note_on_c, 2, 72, 63
4, 37080, Note_off_c, 2, 72, 80
4, 37080, Note_on_c, 2, 74, 63
4, 37200, Note_off_c, 2, 74, 80
4, 37200, Note_on_c, 2, 76, 63
4, 37320, Note_off_c, 2, 76, 80
4, 37440, Note_on_c, 2, 72, 63
4, 37560, Note_off_c, 2, 72, 80
4, 37560, Note_on_c, 2, 74, 63
4, 37680, Note_off_c, 2, 74, 80
4, 37680, Note_on_c, 2, 76, 63
4, 37800, Note_off_c, 2, 76, 80
4, 37920, Note_on_c, 2, 72, 63
4, 38040, Note_off_c, 2, 72, 80
4, 38040, Note_on_c, 2, 74, 63
4, 38160, Note_off_c, 2, 74, 80
4, 38160, Note_on_c, 2, 76, 63
4, 38280, Note_off_c, 2, 76, 80
4, 38280, End_track
5, 0, Start_track
5, 0, Sequencer_specific, 5, 5, 15, 9, 0, 64
5, 0, Sequencer_specific, 15, 5, 15, 6, 71, 101, 110, 101, 114, 97, 108, 32, 77, 73, 68, 73
5, 0, Title_t, ""
5, 0, Control_c, 3, 100, 0
5, 0, Control_c, 3, 101, 0
5, 0, Control_c, 3, 6, 12
5, 0, Pitch_bend_c, 3, 8192
5, 0, Control_c, 3, 101, 0
5, 0, Control_c, 3, 100, 1
5, 0, Control_c, 3, 6, 64
5, 0, Control_c, 3, 38, 0
5, 0, Control_c, 3, 101, 127
5, 0, Control_c, 3, 100, 127
5, 0, Control_c, 3, 101, 0
5, 0, Control_c, 3, 100, 2
5, 0, Control_c, 3, 6, 64
5, 0, Control_c, 3, 101, 127
5, 0, Control_c, 3, 100, 127
5, 0, Program_c, 3, 75
5, 0, Control_c, 3, 0, 0
5, 0, Control_c, 3, 7, 88
5, 0, Control_c, 3, 10, 64
5, 0, Control_c, 3, 93, 0
5, 0, Control_c, 3, 91, 0
5, 0, Control_c, 3, 92, 0
5, 0, Control_c, 3, 95, 0
5, 0, Note_on_c, 3, 67, 63
5, 120, Note_off_c, 3, 67, 80
5, 120, Note_on_c, 3, 69, 63
5, 240, Note_off_c, 3, 69, 80
5, 240, Note_on_c, 3, 70, 63
5, 360, Note_off_c, 3, 70, 80
5, 480, Note_on_c, 3, 67, 63
5, 600, Note_off_c, 3, 67, 80
5, 600, Note_on_c, 3, 69, 63
5, 720, Note_off_c, 3, 69, 80
5, 720, Note_on_c, 3, 70, 63
5, 840, Note_off_c, 3, 70, 80
5, 960, Note_on_c, 3, 67, 63
5, 1080, Note_off_c, 3, 67, 80
5, 1080, Note_on_c, 3, 69, 63
5, 1200, Note_off_c, 3, 69, 80
5, 1200, Note_on_c, 3, 70, 63
5, 1320, Note_off_c, 3, 70, 80
5, 1440, Note_on_c, 3, 67, 63
5, 1560, Note_off_c, 3, 67, 80
5, 1560, Note_on_c, 3, 69, 63
5, 1680, Note_off_c, 3, 69, 80
5, 1680, Note_on_c, 3, 70, 63
5, 1800, Note_off_c, 3, 70, 80
5, 1920, Note_on_c, 3, 64, 63
5, 2040, Note_off_c, 3, 64, 80
5, 2040, Note_on_c, 3, 65, 63
5, 2160, Note_off_c, 3, 65, 80
5, 2160, Note_on_c, 3, 67, 63
5, 2280, Note_off_c, 3, 67, 80
5, 2400, Note_on_c, 3, 64, 63
5, 2520, Note_off_c, 3, 64, 80
5, 2520, Note_on_c, 3, 65, 63
5, 2640, Note_off_c, 3, 65, 80
5, 2640, Note_on_c, 3, 67, 63
5, 2760, Note_off_c, 3, 67, 80
5, 2880, Note_on_c, 3, 64, 63
5, 3000, Note_off_c, 3, 64, 80
5, 3000, Note_on_c, 3, 65, 63
5, 3120, Note_off_c, 3, 65, 80
5, 3120, Note_on_c, 3, 67, 63
5, 3240, Note_off_c, 3, 67, 80
5, 3360, Note_on_c, 3, 64, 63
5, 3480, Note_off_c, 3, 64, 80
5, 3480, Note_on_c, 3, 65, 63
5, 3600, Note_off_c, 3, 65, 80
5, 3600, Note_on_c, 3, 67, 63
5, 3720, Note_off_c, 3, 67, 80
5, 3840, Note_on_c, 3, 67, 63
5, 3960, Note_off_c, 3, 67, 80
5, 3960, Note_on_c, 3, 69, 63
5, 4080, Note_off_c, 3, 69, 80
5, 4080, Note_on_c, 3, 70, 63
5, 4200, Note_off_c, 3, 70, 80
5, 4320, Note_on_c, 3, 67, 63
5, 4440, Note_off_c, 3, 67, 80
5, 4440, Note_on_c, 3, 69, 63
5, 4560, Note_off_c, 3, 69, 80
5, 4560, Note_on_c, 3, 70, 63
5, 4680, Note_off_c, 3, 70, 80
5, 4800, Note_on_c, 3, 67, 63
5, 4920, Note_off_c, 3, 67, 80
5, 4920, Note_on_c, 3, 69, 63
5, 5040, Note_off_c, 3, 69, 80
5, 5040, Note_on_c, 3, 70, 63
5, 5160, Note_off_c, 3, 70, 80
5, 5280, Note_on_c, 3, 67, 63
5, 5400, Note_off_c, 3, 67, 80
5, 5400, Note_on_c, 3, 69, 63
5, 5520, Note_off_c, 3, 69, 80
5, 5520, Note_on_c, 3, 70, 63
5, 5640, Note_off_c, 3, 70, 80
5, 5760, Note_on_c, 3, 64, 63
5, 5880, Note_off_c, 3, 64, 80
5, 5880, Note_on_c, 3, 65, 63
5, 6000, Note_off_c, 3, 65, 80
5, 6000, Note_on_c, 3, 67, 63
5, 6120, Note_off_c, 3, 67, 80
5, 6240, Note_on_c, 3, 64, 63
5, 6360, Note_off_c, 3, 64, 80
5, 6360, Note_on_c, 3, 65, 63
5, 6480, Note_off_c, 3, 65, 80
5, 6480, Note_on_c, 3, 67, 63
5, 6600, Note_off_c, 3, 67, 80
5, 6720, Note_on_c, 3, 64, 63
5, 6840, Note_off_c, 3, 64, 80
5, 6840, Note_on_c, 3, 65, 63
5, 6960, Note_off_c, 3, 65, 80
5, 6960, Note_on_c, 3, 67, 63
5, 7080, Note_off_c, 3, 67, 80
5, 7200, Note_on_c, 3, 64, 63
5, 7320, Note_off_c, 3, 64, 80
5, 7320, Note_on_c, 3, 65, 63
5, 7440, Note_off_c, 3, 65, 80
5, 7440, Note_on_c, 3, 67, 63
5, 7560, Note_off_c, 3, 67, 80
5, 7680, Note_on_c, 3, 67, 63
5, 7800, Note_off_c, 3, 67, 80
5, 7800, Note_on_c, 3, 69, 63
5, 7920, Note_off_c, 3, 69, 80
5, 7920, Note_on_c, 3, 70, 63
5, 8040, Note_off_c, 3, 70, 80
5, 8160, Note_on_c, 3, 67, 63
5, 8280, Note_off_c, 3, 67, 80
5, 8280, Note_on_c, 3, 69, 63
5, 8400, Note_off_c, 3, 69, 80
5, 8400, Note_on_c, 3, 70, 63
5, 8520, Note_off_c, 3, 70, 80
5, 8640, Note_on_c, 3, 67, 63
5, 8760, Note_off_c, 3, 67, 80
5, 8760, Note_on_c, 3, 69, 63
5, 8880, Note_off_c, 3, 69, 80
5, 8880, Note_on_c, 3, 70, 63
5, 9000, Note_off_c, 3, 70, 80
5, 9120, Note_on_c, 3, 67, 63
5, 9240, Note_off_c, 3, 67, 80
5, 9240, Note_on_c, 3, 69, 63
5, 9360, Note_off_c, 3, 69, 80
5, 9360, Note_on_c, 3, 70, 63
5, 9480, Note_off_c, 3, 70, 80
5, 9600, Note_on_c, 3, 64, 63
5, 9720, Note_off_c, 3, 64, 80
5, 9720, Note_on_c, 3, 65, 63
5, 9840, Note_off_c, 3, 65, 80
5, 9840, Note_on_c, 3, 67, 63
5, 9960, Note_off_c, 3, 67, 80
5, 10080, Note_on_c, 3, 64, 63
5, 10200, Note_off_c, 3, 64, 80
5, 10200, Note_on_c, 3, 65, 63
5, 10320, Note_off_c, 3, 65, 80
5, 10320, Note_on_c, 3, 67, 63
5, 10440, Note_off_c, 3, 67, 80
5, 10560, Note_on_c, 3, 64, 63
5, 10680, Note_off_c, 3, 64, 80
5, 10680, Note_on_c, 3, 65, 63
5, 10800, Note_off_c, 3, 65, 80
5, 10800, Note_on_c, 3, 67, 63
5, 10920, Note_off_c, 3, 67, 80
5, 11040, Note_on_c, 3, 64, 63
5, 11160, Note_off_c, 3, 64, 80
5, 11160, Note_on_c, 3, 65, 63
5, 11280, Note_off_c, 3, 65, 80
5, 11280, Note_on_c, 3, 67, 63
5, 11400, Note_off_c, 3, 67, 80
5, 11520, Note_on_c, 3, 67, 63
5, 11640, Note_off_c, 3, 67, 80
5, 11640, Note_on_c, 3, 69, 63
5, 11760, Note_off_c, 3, 69, 80
5, 11760, Note_on_c, 3, 70, 63
5, 11880, Note_off_c, 3, 70, 80
5, 12000, Note_on_c, 3, 67, 63
5, 12120, Note_off_c, 3, 67, 80
5, 12120, Note_on_c, 3, 69, 63
5, 12240, Note_off_c, 3, 69, 80
5, 12240, Note_on_c, 3, 70, 63
5, 12360, Note_off_c, 3, 70, 80
5, 12480, Note_on_c, 3, 67, 63
5, 12600, Note_off_c, 3, 67, 80
5, 12600, Note_on_c, 3, 69, 63
5, 12720, Note_off_c, 3, 69, 80
5, 12720, Note_on_c, 3, 70, 63
5, 12840, Note_off_c, 3, 70, 80
5, 12960, Note_on_c, 3, 67, 63
5, 13080, Note_off_c, 3, 67, 80
5, 13080, Note_on_c, 3, 69, 63
5, 13200, Note_off_c, 3, 69, 80
5, 13200, Note_on_c, 3, 70, 63
5, 13320, Note_off_c, 3, 70, 80
5, 13440, Note_on_c, 3, 64, 63
5, 13560, Note_off_c, 3, 64, 80
5, 13560, Note_on_c, 3, 65, 63
5, 13680, Note_off_c, 3, 65, 80
5, 13680, Note_on_c, 3, 67, 63
5, 13800, Note_off_c, 3, 67, 80
5, 13920, Note_on_c, 3, 64, 63
5, 14040, Note_off_c, 3, 64, 80
5, 14040, Note_on_c, 3, 65, 63
5, 14160, Note_off_c, 3, 65, 80
5, 14160, Note_on_c, 3, 67, 63
5, 14280, Note_off_c, 3, 67, 80
5, 14400, Note_on_c, 3, 64, 63
5, 14520, Note_off_c, 3, 64, 80
5, 14520, Note_on_c, 3, 65, 63
5, 14640, Note_off_c, 3, 65, 80
5, 14640, Note_on_c, 3, 67, 63
5, 14760, Note_off_c, 3, 67, 80
5, 14880, Note_on_c, 3, 64, 63
5, 15000, Note_off_c, 3, 64, 80
5, 15000, Note_on_c, 3, 65, 63
5, 15120, Note_off_c, 3, 65, 80
5, 15120, Note_on_c, 3, 67, 63
5, 15240, Note_off_c, 3, 67, 80
5, 30720, Note_on_c, 3, 67, 63
5, 30840, Note_off_c, 3, 67, 80
5, 30840, Note_on_c, 3, 69, 63
5, 30960, Note_off_c, 3, 69, 80
5, 30960, Note_on_c, 3, 70, 63
5, 31080, Note_off_c, 3, 70, 80
5, 31200, Note_on_c, 3, 67, 63
5, 31320, Note_off_c, 3, 67, 80
5, 31320, Note_on_c, 3, 69, 63
5, 31440, Note_off_c, 3, 69, 80
5, 31440, Note_on_c, 3, 70, 63
5, 31560, Note_off_c, 3, 70, 80
5, 31680, Note_on_c, 3, 67, 63
5, 31800, Note_off_c, 3, 67, 80
5, 31800, Note_on_c, 3, 69, 63
5, 31920, Note_off_c, 3, 69, 80
5, 31920, Note_on_c, 3, 70, 63
5, 32040, Note_off_c, 3, 70, 80
5, 32160, Note_on_c, 3, 67, 63
5, 32280, Note_off_c, 3, 67, 80
5, 32280, Note_on_c, 3, 69, 63
5, 32400, Note_off_c, 3, 69, 80
5, 32400, Note_on_c, 3, 70, 63
5, 32520, Note_off_c, 3, 70, 80
5, 32640, Note_on_c, 3, 64, 63
5, 32760, Note_off_c, 3, 64, 80
5, 32760, Note_on_c, 3, 65, 63
5, 32880, Note_off_c, 3, 65, 80
5, 32880, Note_on_c, 3, 67, 63
5, 33000, Note_off_c, 3, 67, 80
5, 33120, Note_on_c, 3, 64, 63
5, 33240, Note_off_c, 3, 64, 80
5, 33240, Note_on_c, 3, 65, 63
5, 33360, Note_off_c, 3, 65, 80
5, 33360, Note_on_c, 3, 67, 63
5, 33480, Note_off_c, 3, 67, 80
5, 33600, Note_on_c, 3, 64, 63
5, 33720, Note_off_c, 3, 64, 80
5, 33720, Note_on_c, 3, 65, 63
5, 33840, Note_off_c, 3, 65, 80
5, 33840, Note_on_c, 3, 67, 63
5, 33960, Note_off_c, 3, 67, 80
5, 34080, Note_on_c, 3, 64, 63
5, 34200, Note_off_c, 3, 64, 80
5, 34200, Note_on_c, 3, 65, 63
5, 34320, Note_off_c, 3, 65, 80
5, 34320, Note_on_c, 3, 67, 63
5, 34440, Note_off_c, 3, 67, 80
5, 34560, Note_on_c, 3, 67, 63
5, 34680, Note_off_c, 3, 67, 80
5, 34680, Note_on_c, 3, 69, 63
5, 34800, Note_off_c, 3, 69, 80
5, 34800, Note_on_c, 3, 70, 63
5, 34920, Note_off_c, 3, 70, 80
5, 35040, Note_on_c, 3, 67, 63
5, 35160, Note_off_c, 3, 67, 80
5, 35160, Note_on_c, 3, 69, 63
5, 35280, Note_off_c, 3, 69, 80
5, 35280, Note_on_c, 3, 70, 63
5, 35400, Note_off_c, 3, 70, 80
5, 35520, Note_on_c, 3, 67, 63
5, 35640, Note_off_c, 3, 67, 80
5, 35640, Note_on_c, 3, 69, 63
5, 35760, Note_off_c, 3, 69, 80
5, 35760, Note_on_c, 3, 70, 63
5, 35880, Note_off_c, 3, 70, 80
5, 36000, Note_on_c, 3, 67, 63
5, 36120, Note_off_c, 3, 67, 80
5, 36120, Note_on_c, 3, 69, 63
5, 36240, Note_off_c, 3, 69, 80
5, 36240, Note_on_c, 3, 70, 63
5, 36360, Note_off_c, 3, 70, 80
5, 36480, Note_on_c, 3, 64, 63
5, 36600, Note_off_c, 3, 64, 80
5, 36600, Note_on_c, 3, 65, 63
5, 36720, Note_off_c, 3, 65, 80
5, 36720, Note_on_c, 3, 67, 63
5, 36840, Note_off_c, 3, 67, 80
5, 36960, Note_on_c, 3, 64, 63
5, 37080, Note_off_c, 3, 64, 80
5, 37080, Note_on_c, 3, 65, 63
5, 37200, Note_off_c, 3, 65, 80
5, 37200, Note_on_c, 3, 67, 63
5, 37320, Note_off_c, 3, 67, 80
5, 37440, Note_on_c, 3, 64, 63
5, 37560, Note_off_c, 3, 64, 80
5, 37560, Note_on_c, 3, 65, 63
5, 37680, Note_off_c, 3, 65, 80
5, 37680, Note_on_c, 3, 67, 63
5, 37800, Note_off_c, 3, 67, 80
5, 37920, Note_on_c, 3, 64, 63
5, 38040, Note_off_c, 3, 64, 80
5, 38040, Note_on_c, 3, 65, 63
5, 38160, Note_off_c, 3, 65, 80
5, 38160, Note_on_c, 3, 67, 63
5, 38280, Note_off_c, 3, 67, 80
5, 38280, End_track
6, 0, Start_track
6, 0, Sequencer_specific, 5, 5, 15, 9, 0, 64
6, 0, Sequencer_specific, 15, 5, 15, 6, 71, 101, 110, 101, 114, 97, 108, 32, 77, 73, 68, 73
6, 0, Title_t, ""
6, 0, Control_c, 4, 100, 0
6, 0, Control_c, 4, 101, 0
6, 0, Control_c, 4, 6, 12
6, 0, Pitch_bend_c, 4, 8192
6, 0, Control_c, 4, 101, 0
6, 0, Control_c, 4, 100, 1
6, 0, Control_c, 4, 6, 64
6, 0, Control_c, 4, 38, 0
6, 0, Control_c, 4, 101, 127
6, 0, Control_c, 4, 100, 127
6, 0, Control_c, 4, 101, 0
6, 0, Control_c, 4, 100, 2
6, 0, Control_c, 4, 6, 64
6, 0, Control_c, 4, 101, 127
6, 0, Control_c, 4, 100, 127
6, 0, Program_c, 4, 52
6, 0, Control_c, 4, 0, 0
6, 0, Control_c, 4, 7, 80
6, 0, Control_c, 4, 10, 64
6, 0, Control_c, 4, 93, 0
6, 0, Control_c, 4, 91, 0
6, 0, Control_c, 4, 92, 0
6, 0, Control_c, 4, 95, 0
6, 15360, Note_on_c, 4, 65, 111
6, 15480, Note_off_c, 4, 65, 80
6, 15480, Note_on_c, 4, 67, 111
6, 15600, Note_off_c, 4, 67, 80
6, 15600, Note_on_c, 4, 68, 111
6, 15720, Note_off_c, 4, 68, 80
6, 15840, Note_on_c, 4, 65, 111
6, 15960, Note_off_c, 4, 65, 80
6, 15960, Note_on_c, 4, 67, 111
6, 16080, Note_off_c, 4, 67, 80
6, 16080, Note_on_c, 4, 68, 111
6, 16200, Note_off_c, 4, 68, 80
6, 16320, Note_on_c, 4, 65, 111
6, 16440, Note_off_c, 4, 65, 80
6, 16440, Note_on_c, 4, 67, 111
6, 16560, Note_off_c, 4, 67, 80
6, 16560, Note_on_c, 4, 68, 111
6, 16680, Note_off_c, 4, 68, 80
6, 16800, Note_on_c, 4, 65, 111
6, 16920, Note_off_c, 4, 65, 80
6, 16920, Note_on_c, 4, 67, 111
6, 17040, Note_off_c, 4, 67, 80
6, 17040, Note_on_c, 4, 68, 111
6, 17160, Note_off_c, 4, 68, 80
6, 17280, Note_on_c, 4, 67, 111
6, 17400, Note_off_c, 4, 67, 80
6, 17400, Note_on_c, 4, 68, 111
6, 17520, Note_off_c, 4, 68, 80
6, 17520, Note_on_c, 4, 70, 111
6, 17640, Note_off_c, 4, 70, 80
6, 17760, Note_on_c, 4, 67, 111
6, 17880, Note_off_c, 4, 67, 80
6, 17880, Note_on_c, 4, 68, 111
6, 18000, Note_off_c, 4, 68, 80
6, 18000, Note_on_c, 4, 70, 111
6, 18120, Note_off_c, 4, 70, 80
6, 18240, Note_on_c, 4, 67, 111
6, 18360, Note_off_c, 4, 67, 80
6, 18360, Note_on_c, 4, 68, 111
6, 18480, Note_off_c, 4, 68, 80
6, 18480, Note_on_c, 4, 70, 111
6, 18600, Note_off_c, 4, 70, 80
6, 18720, Note_on_c, 4, 67, 111
6, 18840, Note_off_c, 4, 67, 80
6, 18840, Note_on_c, 4, 68, 111
6, 18960, Note_off_c, 4, 68, 80
6, 18960, Note_on_c, 4, 70, 111
6, 19080, Note_off_c, 4, 70, 80
6, 19200, Note_on_c, 4, 67, 111
6, 19320, Note_off_c, 4, 67, 80
6, 19320, Note_on_c, 4, 68, 111
6, 19440, Note_off_c, 4, 68, 80
6, 19440, Note_on_c, 4, 70, 111
6, 19560, Note_off_c, 4, 70, 80
6, 19680, Note_on_c, 4, 67, 111
6, 19800, Note_off_c, 4, 67, 80
6, 19800, Note_on_c, 4, 68, 111
6, 19920, Note_off_c, 4, 68, 80
6, 19920, Note_on_c, 4, 70, 111
6, 20040, Note_off_c, 4, 70, 80
6, 20160, Note_on_c, 4, 67, 111
6, 20280, Note_off_c, 4, 67, 80
6, 20280, Note_on_c, 4, 68, 111
6, 20400, Note_off_c, 4, 68, 80
6, 20400, Note_on_c, 4, 70, 111
6, 20520, Note_off_c, 4, 70, 80
6, 20640, Note_on_c, 4, 67, 111
6, 20760, Note_off_c, 4, 67, 80
6, 20760, Note_on_c, 4, 68, 111
6, 20880, Note_off_c, 4, 68, 80
6, 20880, Note_on_c, 4, 70, 111
6, 21000, Note_off_c, 4, 70, 80
6, 21120, Note_on_c, 4, 68, 111
6, 21240, Note_off_c, 4, 68, 80
6, 21240, Note_on_c, 4, 70, 111
6, 21360, Note_off_c, 4, 70, 80
6, 21360, Note_on_c, 4, 72, 111
6, 21480, Note_off_c, 4, 72, 80
6, 21600, Note_on_c, 4, 68, 111
6, 21720, Note_off_c, 4, 68, 80
6, 21720, Note_on_c, 4, 70, 111
6, 21840, Note_off_c, 4, 70, 80
6, 21840, Note_on_c, 4, 72, 111
6, 21960, Note_off_c, 4, 72, 80
6, 22080, Note_on_c, 4, 68, 111
6, 22200, Note_off_c, 4, 68, 80
6, 22200, Note_on_c, 4, 70, 111
6, 22320, Note_off_c, 4, 70, 80
6, 22320, Note_on_c, 4, 72, 111
6, 22440, Note_off_c, 4, 72, 80
6, 22560, Note_on_c, 4, 68, 111
6, 22680, Note_off_c, 4, 68, 80
6, 22680, Note_on_c, 4, 70, 111
6, 22800, Note_off_c, 4, 70, 80
6, 22800, Note_on_c, 4, 72, 111
6, 22920, Note_off_c, 4, 72, 80
6, 23040, Note_on_c, 4, 65, 111
6, 23160, Note_off_c, 4, 65, 80
6, 23160, Note_on_c, 4, 67, 111
6, 23280, Note_off_c, 4, 67, 80
6, 23280, Note_on_c, 4, 68, 111
6, 23400, Note_off_c, 4, 68, 80
6, 23520, Note_on_c, 4, 65, 111
6, 23640, Note_off_c, 4, 65, 80
6, 23640, Note_on_c, 4, 67, 111
6, 23760, Note_off_c, 4, 67, 80
6, 23760, Note_on_c, 4, 68, 111
6, 23880, Note_off_c, 4, 68, 80
6, 24000, Note_on_c, 4, 65, 111
6, 24120, Note_off_c, 4, 65, 80
6, 24120, Note_on_c, 4, 67, 111
6, 24240, Note_off_c, 4, 67, 80
6, 24240, Note_on_c, 4, 68, 111
6, 24360, Note_off_c, 4, 68, 80
6, 24480, Note_on_c, 4, 65, 111
6, 24600, Note_off_c, 4, 65, 80
6, 24600, Note_on_c, 4, 67, 111
6, 24720, Note_off_c, 4, 67, 80
6, 24720, Note_on_c, 4, 68, 111
6, 24840, Note_off_c, 4, 68, 80
6, 24960, Note_on_c, 4, 59, 111
6, 25080, Note_off_c, 4, 59, 80
6, 25080, Note_on_c, 4, 60, 111
6, 25200, Note_off_c, 4, 60, 80
6, 25200, Note_on_c, 4, 62, 111
6, 25320, Note_off_c, 4, 62, 80
6, 25440, Note_on_c, 4, 59, 111
6, 25560, Note_off_c, 4, 59, 80
6, 25560, Note_on_c, 4, 60, 111
6, 25680, Note_off_c, 4, 60, 80
6, 25680, Note_on_c, 4, 62, 111
6, 25800, Note_off_c, 4, 62, 80
6, 25920, Note_on_c, 4, 59, 111
6, 26040, Note_off_c, 4, 59, 80
6, 26040, Note_on_c, 4, 60, 111
6, 26160, Note_off_c, 4, 60, 80
6, 26160, Note_on_c, 4, 62, 111
6, 26280, Note_off_c, 4, 62, 80
6, 26400, Note_on_c, 4, 59, 111
6, 26520, Note_off_c, 4, 59, 80
6, 26520, Note_on_c, 4, 60, 111
6, 26640, Note_off_c, 4, 60, 80
6, 26640, Note_on_c, 4, 62, 111
6, 26760, Note_off_c, 4, 62, 80
6, 26880, Note_on_c, 4, 63, 111
6, 27000, Note_off_c, 4, 63, 80
6, 27000, Note_on_c, 4, 65, 111
6, 27120, Note_off_c, 4, 65, 80
6, 27120, Note_on_c, 4, 66, 111
6, 27240, Note_off_c, 4, 66, 80
6, 27360, Note_on_c, 4, 63, 111
6, 27480, Note_off_c, 4, 63, 80
6, 27480, Note_on_c, 4, 65, 111
6, 27600, Note_off_c, 4, 65, 80
6, 27600, Note_on_c, 4, 66, 111
6, 27720, Note_off_c, 4, 66, 80
6, 27840, Note_on_c, 4, 63, 111
6, 27960, Note_off_c, 4, 63, 80
6, 27960, Note_on_c, 4, 65, 111
6, 28080, Note_off_c, 4, 65, 80
6, 28080, Note_on_c, 4, 66, 111
6, 28200, Note_off_c, 4, 66, 80
6, 28320, Note_on_c, 4, 63, 111
6, 28440, Note_off_c, 4, 63, 80
6, 28440, Note_on_c, 4, 65, 111
6, 28560, Note_off_c, 4, 65, 80
6, 28560, Note_on_c, 4, 66, 111
6, 28680, Note_off_c, 4, 66, 80
6, 28800, Note_on_c, 4, 65, 111
6, 28920, Note_off_c, 4, 65, 80
6, 28920, Note_on_c, 4, 67, 111
6, 29040, Note_off_c, 4, 67, 80
6, 29040, Note_on_c, 4, 69, 111
6, 29160, Note_off_c, 4, 69, 80
6, 29280, Note_on_c, 4, 65, 111
6, 29400, Note_off_c, 4, 65, 80
6, 29400, Note_on_c, 4, 67, 111
6, 29520, Note_off_c, 4, 67, 80
6, 29520, Note_on_c, 4, 69, 111
6, 29640, Note_off_c, 4, 69, 80
6, 29760, Note_on_c, 4, 65, 111
6, 29880, Note_off_c, 4, 65, 80
6, 29880, Note_on_c, 4, 67, 111
6, 30000, Note_off_c, 4, 67, 80
6, 30000, Note_on_c, 4, 69, 111
6, 30120, Note_off_c, 4, 69, 80
6, 30240, Note_on_c, 4, 65, 111
6, 30360, Note_off_c, 4, 65, 80
6, 30360, Note_on_c, 4, 67, 111
6, 30480, Note_off_c, 4, 67, 80
6, 30480, Note_on_c, 4, 69, 111
6, 30600, Note_off_c, 4, 69, 80
6, 30600, End_track
7, 0, Start_track
7, 0, Sequencer_specific, 5, 5, 15, 9, 0, 64
7, 0, Sequencer_specific, 15, 5, 15, 6, 71, 101, 110, 101, 114, 97, 108, 32, 77, 73, 68, 73
7, 0, Title_t, ""
7, 0, Control_c, 5, 100, 0
7, 0, Control_c, 5, 101, 0
7, 0, Control_c, 5, 6, 12
7, 0, Pitch_bend_c, 5, 8192
7, 0, Control_c, 5, 101, 0
7, 0, Control_c, 5, 100, 1
7, 0, Control_c, 5, 6, 64
7, 0, Control_c, 5, 38, 0
7, 0, Control_c, 5, 101, 127
7, 0, Control_c, 5, 100, 127
7, 0, Control_c, 5, 101, 0
7, 0, Control_c, 5, 100, 2
7, 0, Control_c, 5, 6, 64
7, 0, Control_c, 5, 101, 127
7, 0, Control_c, 5, 100, 127
7, 0, Program_c, 5, 52
7, 0, Control_c, 5, 0, 0
7, 0, Control_c, 5, 7, 88
7, 0, Control_c, 5, 10, 64
7, 0, Control_c, 5, 93, 0
7, 0, Control_c, 5, 91, 0
7, 0, Control_c, 5, 92, 0
7, 0, Control_c, 5, 95, 0
7, 15360, Note_on_c, 5, 61, 111
7, 15480, Note_off_c, 5, 61, 80
7, 15480, Note_on_c, 5, 63, 111
7, 15600, Note_off_c, 5, 63, 80
7, 15600, Note_on_c, 5, 65, 111
7, 15720, Note_off_c, 5, 65, 80
7, 15840, Note_on_c, 5, 61, 111
7, 15960, Note_off_c, 5, 61, 80
7, 15960, Note_on_c, 5, 63, 111
7, 16080, Note_off_c, 5, 63, 80
7, 16080, Note_on_c, 5, 65, 111
7, 16200, Note_off_c, 5, 65, 80
7, 16320, Note_on_c, 5, 61, 111
7, 16440, Note_off_c, 5, 61, 80
7, 16440, Note_on_c, 5, 63, 111
7, 16560, Note_off_c, 5, 63, 80
7, 16560, Note_on_c, 5, 65, 111
7, 16680, Note_off_c, 5, 65, 80
7, 16800, Note_on_c, 5, 61, 111
7, 16920, Note_off_c, 5, 61, 80
7, 16920, Note_on_c, 5, 63, 111
7, 17040, Note_off_c, 5, 63, 80
7, 17040, Note_on_c, 5, 65, 111
7, 17160, Note_off_c, 5, 65, 80
7, 17280, Note_on_c, 5, 63, 111
7, 17400, Note_off_c, 5, 63, 80
7, 17400, Note_on_c, 5, 65, 111
7, 17520, Note_off_c, 5, 65, 80
7, 17520, Note_on_c, 5, 67, 111
7, 17640, Note_off_c, 5, 67, 80
7, 17760, Note_on_c, 5, 63, 111
7, 17880, Note_off_c, 5, 63, 80
7, 17880, Note_on_c, 5, 65, 111
7, 18000, Note_off_c, 5, 65, 80
7, 18000, Note_on_c, 5, 67, 111
7, 18120, Note_off_c, 5, 67, 80
7, 18240, Note_on_c, 5, 63, 111
7, 18360, Note_off_c, 5, 63, 80
7, 18360, Note_on_c, 5, 65, 111
7, 18480, Note_off_c, 5, 65, 80
7, 18480, Note_on_c, 5, 67, 111
7, 18600, Note_off_c, 5, 67, 80
7, 18720, Note_on_c, 5, 63, 111
7, 18840, Note_off_c, 5, 63, 80
7, 18840, Note_on_c, 5, 65, 111
7, 18960, Note_off_c, 5, 65, 80
7, 18960, Note_on_c, 5, 67, 111
7, 19080, Note_off_c, 5, 67, 80
7, 19200, Note_on_c, 5, 63, 111
7, 19320, Note_off_c, 5, 63, 80
7, 19320, Note_on_c, 5, 65, 111
7, 19440, Note_off_c, 5, 65, 80
7, 19440, Note_on_c, 5, 67, 111
7, 19560, Note_off_c, 5, 67, 80
7, 19680, Note_on_c, 5, 63, 111
7, 19800, Note_off_c, 5, 63, 80
7, 19800, Note_on_c, 5, 65, 111
7, 19920, Note_off_c, 5, 65, 80
7, 19920, Note_on_c, 5, 67, 111
7, 20040, Note_off_c, 5, 67, 80
7, 20160, Note_on_c, 5, 63, 111
7, 20280, Note_off_c, 5, 63, 80
7, 20280, Note_on_c, 5, 65, 111
7, 20400, Note_off_c, 5, 65, 80
7, 20400, Note_on_c, 5, 67, 111
7, 20520, Note_off_c, 5, 67, 80
7, 20640, Note_on_c, 5, 63, 111
7, 20760, Note_off_c, 5, 63, 80
7, 20760, Note_on_c, 5, 65, 111
7, 20880, Note_off_c, 5, 65, 80
7, 20880, Note_on_c, 5, 67, 111
7, 21000, Note_off_c, 5, 67, 80
7, 21120, Note_on_c, 5, 65, 111
7, 21240, Note_off_c, 5, 65, 80
7, 21240, Note_on_c, 5, 67, 111
7, 21360, Note_off_c, 5, 67, 80
7, 21360, Note_on_c, 5, 68, 111
7, 21480, Note_off_c, 5, 68, 80
7, 21600, Note_on_c, 5, 65, 111
7, 21720, Note_off_c, 5, 65, 80
7, 21720, Note_on_c, 5, 67, 111
7, 21840, Note_off_c, 5, 67, 80
7, 21840, Note_on_c, 5, 68, 111
7, 21960, Note_off_c, 5, 68, 80
7, 22080, Note_on_c, 5, 65, 111
7, 22200, Note_off_c, 5, 65, 80
7, 22200, Note_on_c, 5, 67, 111
7, 22320, Note_off_c, 5, 67, 80
7, 22320, Note_on_c, 5, 68, 111
7, 22440, Note_off_c, 5, 68, 80
7, 22560, Note_on_c, 5, 65, 111
7, 22680, Note_off_c, 5, 65, 80
7, 22680, Note_on_c, 5, 67, 111
7, 22800, Note_off_c, 5, 67, 80
7, 22800, Note_on_c, 5, 68, 111
7, 22920, Note_off_c, 5, 68, 80
7, 23040, Note_on_c, 5, 62, 111
7, 23160, Note_off_c, 5, 62, 80
7, 23160, Note_on_c, 5, 63, 111
7, 23280, Note_off_c, 5, 63, 80
7, 23280, Note_on_c, 5, 65, 111
7, 23400, Note_off_c, 5, 65, 80
7, 23520, Note_on_c, 5, 62, 111
7, 23640, Note_off_c, 5, 62, 80
7, 23640, Note_on_c, 5, 63, 111
7, 23760, Note_off_c, 5, 63, 80
7, 23760, Note_on_c, 5, 65, 111
7, 23880, Note_off_c, 5, 65, 80
7, 24000, Note_on_c, 5, 62, 111
7, 24120, Note_off_c, 5, 62, 80
7, 24120, Note_on_c, 5, 63, 111
7, 24240, Note_off_c, 5, 63, 80
7, 24240, Note_on_c, 5, 65, 111
7, 24360, Note_off_c, 5, 65, 80
7, 24480, Note_on_c, 5, 62, 111
7, 24600, Note_off_c, 5, 62, 80
7, 24600, Note_on_c, 5, 63, 111
7, 24720, Note_off_c, 5, 63, 80
7, 24720, Note_on_c, 5, 65, 111
7, 24840, Note_off_c, 5, 65, 80
7, 24960, Note_on_c, 5, 55, 111
7, 25080, Note_off_c, 5, 55, 80
7, 25080, Note_on_c, 5, 57, 111
7, 25200, Note_off_c, 5, 57, 80
7, 25200, Note_on_c, 5, 59, 111
7, 25320, Note_off_c, 5, 59, 80
7, 25440, Note_on_c, 5, 55, 111
7, 25560, Note_off_c, 5, 55, 80
7, 25560, Note_on_c, 5, 57, 111
7, 25680, Note_off_c, 5, 57, 80
7, 25680, Note_on_c, 5, 59, 111
7, 25800, Note_off_c, 5, 59, 80
7, 25920, Note_on_c, 5, 55, 111
7, 26040, Note_off_c, 5, 55, 80
7, 26040, Note_on_c, 5, 57, 111
7, 26160, Note_off_c, 5, 57, 80
7, 26160, Note_on_c, 5, 59, 111
7, 26280, Note_off_c, 5, 59, 80
7, 26400, Note_on_c, 5, 55, 111
7, 26520, Note_off_c, 5, 55, 80
7, 26520, Note_on_c, 5, 57, 111
7, 26640, Note_off_c, 5, 57, 80
7, 26640, Note_on_c, 5, 59, 111
7, 26760, Note_off_c, 5, 59, 80
7, 26880, Note_on_c, 5, 54, 111
7, 27000, Note_off_c, 5, 54, 80
7, 27000, Note_on_c, 5, 56, 111
7, 27120, Note_off_c, 5, 56, 80
7, 27120, Note_on_c, 5, 58, 111
7, 27240, Note_off_c, 5, 58, 80
7, 27360, Note_on_c, 5, 54, 111
7, 27480, Note_off_c, 5, 54, 80
7, 27480, Note_on_c, 5, 56, 111
7, 27600, Note_off_c, 5, 56, 80
7, 27600, Note_on_c, 5, 58, 111
7, 27720, Note_off_c, 5, 58, 80
7, 27840, Note_on_c, 5, 54, 111
7, 27960, Note_off_c, 5, 54, 80
7, 27960, Note_on_c, 5, 56, 111
7, 28080, Note_off_c, 5, 56, 80
7, 28080, Note_on_c, 5, 58, 111
7, 28200, Note_off_c, 5, 58, 80
7, 28320, Note_on_c, 5, 54, 111
7, 28440, Note_off_c, 5, 54, 80
7, 28440, Note_on_c, 5, 56, 111
7, 28560, Note_off_c, 5, 56, 80
7, 28560, Note_on_c, 5, 58, 111
7, 28680, Note_off_c, 5, 58, 80
7, 28800, Note_on_c, 5, 61, 111
7, 28920, Note_off_c, 5, 61, 80
7, 28920, Note_on_c, 5, 63, 111
7, 29040, Note_off_c, 5, 63, 80
7, 29040, Note_on_c, 5, 65, 111
7, 29160, Note_off_c, 5, 65, 80
7, 29280, Note_on_c, 5, 61, 111
7, 29400, Note_off_c, 5, 61, 80
7, 29400, Note_on_c, 5, 63, 111
7, 29520, Note_off_c, 5, 63, 80
7, 29520, Note_on_c, 5, 65, 111
7, 29640, Note_off_c, 5, 65, 80
7, 29760, Note_on_c, 5, 57, 111
7, 29880, Note_off_c, 5, 57, 80
7, 29880, Note_on_c, 5, 58, 111
7, 30000, Note_off_c, 5, 58, 80
7, 30000, Note_on_c, 5, 60, 111
7, 30120, Note_off_c, 5, 60, 80
7, 30240, Note_on_c, 5, 57, 111
7, 30360, Note_off_c, 5, 57, 80
7, 30360, Note_on_c, 5, 58, 111
7, 30480, Note_off_c, 5, 58, 80
7, 30480, Note_on_c, 5, 60, 111
7, 30600, Note_off_c, 5, 60, 80
7, 30600, End_track
8, 0, Start_track
8, 0, Sequencer_specific, 5, 5, 15, 9, 64, 72
8, 0, Sequencer_specific, 15, 5, 15, 6, 71, 101, 110, 101, 114, 97, 108, 32, 77, 73, 68, 73
8, 0, Program_c, 6, 61
8, 0, Title_t, ""
8, 0, Control_c, 6, 100, 0
8, 0, Control_c, 6, 101, 0
8, 0, Control_c, 6, 6, 12
8, 0, Pitch_bend_c, 6, 8192
8, 0, Control_c, 6, 101, 0
8, 0, Control_c, 6, 100, 1
8, 0, Control_c, 6, 6, 64
8, 0, Control_c, 6, 38, 0
8, 0, Control_c, 6, 101, 127
8, 0, Control_c, 6, 100, 127
8, 0, Control_c, 6, 101, 0
8, 0, Control_c, 6, 100, 2
8, 0, Control_c, 6, 6, 64
8, 0, Control_c, 6, 101, 127
8, 0, Control_c, 6, 100, 127
8, 0, Control_c, 6, 7, 88
8, 0, Control_c, 6, 10, 64
8, 0, Control_c, 6, 93, 0
8, 0, Control_c, 6, 91, 0
8, 0, Control_c, 6, 92, 0
8, 0, Control_c, 6, 95, 0
8, 0, Note_on_c, 6, 55, 79
8, 0, Note_on_c, 6, 58, 79
8, 0, Note_on_c, 6, 57, 79
8, 180, Note_off_c, 6, 55, 80
8, 180, Note_off_c, 6, 58, 80
8, 180, Note_off_c, 6, 57, 80
8, 240, Note_on_c, 6, 62, 79
8, 240, Note_on_c, 6, 58, 79
8, 240, Note_on_c, 6, 57, 79
8, 300, Note_off_c, 6, 62, 80
8, 300, Note_off_c, 6, 58, 80
8, 300, Note_off_c, 6, 57, 80
8, 360, Note_on_c, 6, 62, 79
8, 360, Note_on_c, 6, 58, 79
8, 360, Note_on_c, 6, 57, 79
8, 420, Note_off_c, 6, 62, 80
8, 420, Note_off_c, 6, 58, 80
8, 420, Note_off_c, 6, 57, 80
8, 480, Note_on_c, 6, 62, 79
8, 480, Note_on_c, 6, 58, 79
8, 480, Note_on_c, 6, 57, 79
8, 660, Note_off_c, 6, 62, 80
8, 660, Note_off_c, 6, 58, 80
8, 660, Note_off_c, 6, 57, 80
8, 720, Note_on_c, 6, 62, 79
8, 720, Note_on_c, 6, 58, 79
8, 720, Note_on_c, 6, 57, 79
8, 780, Note_off_c, 6, 62, 80
8, 780, Note_off_c, 6, 58, 80
8, 780, Note_off_c, 6, 57, 80
8, 840, Note_on_c, 6, 62, 79
8, 840, Note_on_c, 6, 58, 79
8, 840, Note_on_c, 6, 57, 79
8, 900, Note_off_c, 6, 62, 80
8, 900, Note_off_c, 6, 58, 80
8, 900, Note_off_c, 6, 57, 80
8, 960, Note_on_c, 6, 62, 79
8, 960, Note_on_c, 6, 58, 79
8, 960, Note_on_c, 6, 57, 79
8, 1140, Note_off_c, 6, 62, 80
8, 1140, Note_off_c, 6, 58, 80
8, 1140, Note_off_c, 6, 57, 80
8, 1200, Note_on_c, 6, 62, 79
8, 1200, Note_on_c, 6, 58, 79
8, 1200, Note_on_c, 6, 57, 79
8, 1260, Note_off_c, 6, 62, 80
8, 1260, Note_off_c, 6, 58, 80
8, 1260, Note_off_c, 6, 57, 80
8, 1320, Note_on_c, 6, 62, 79
8, 1320, Note_on_c, 6, 58, 79
8, 1320, Note_on_c, 6, 57, 79
8, 1380, Note_off_c, 6, 62, 80
8, 1380, Note_off_c, 6, 58, 80
8, 1380, Note_off_c, 6, 57, 80
8, 1440, Note_on_c, 6, 62, 79
8, 1440, Note_on_c, 6, 58, 79
8, 1440, Note_on_c, 6, 57, 79
8, 1620, Note_off_c, 6, 62, 80
8, 1620, Note_off_c, 6, 58, 80
8, 1620, Note_off_c, 6, 57, 80
8, 1680, Note_on_c, 6, 62, 79
8, 1680, Note_on_c, 6, 58, 79
8, 1680, Note_on_c, 6, 57, 79
8, 1740, Note_off_c, 6, 62, 80
8, 1740, Note_off_c, 6, 58, 80
8, 1740, Note_off_c, 6, 57, 80
8, 1800, Note_on_c, 6, 62, 79
8, 1800, Note_on_c, 6, 58, 79
8, 1800, Note_on_c, 6, 57, 79
8, 1860, Note_off_c, 6, 62, 80
8, 1860, Note_off_c, 6, 58, 80
8, 1860, Note_off_c, 6, 57, 80
8, 1920, Note_on_c, 6, 64, 79
8, 1920, Note_on_c, 6, 60, 79
8, 1920, Note_on_c, 6, 58, 79
8, 2100, Note_off_c, 6, 64, 80
8, 2100, Note_off_c, 6, 60, 80
8, 2100, Note_off_c, 6, 58, 80
8, 2160, Note_on_c, 6, 64, 79
8, 2160, Note_on_c, 6, 60, 79
8, 2160, Note_on_c, 6, 58, 79
8, 2220, Note_off_c, 6, 64, 80
8, 2220, Note_off_c, 6, 60, 80
8, 2220, Note_off_c, 6, 58, 80
8, 2280, Note_on_c, 6, 64, 79
8, 2280, Note_on_c, 6, 60, 79
8, 2280, Note_on_c, 6, 58, 79
8, 2340, Note_off_c, 6, 64, 80
8, 2340, Note_off_c, 6, 60, 80
8, 2340, Note_off_c, 6, 58, 80
8, 2400, Note_on_c, 6, 64, 79
8, 2400, Note_on_c, 6, 60, 79
8, 2400, Note_on_c, 6, 58, 79
8, 2580, Note_off_c, 6, 64, 80
8, 2580, Note_off_c, 6, 60, 80
8, 2580, Note_off_c, 6, 58, 80
8, 2640, Note_on_c, 6, 64, 79
8, 2640, Note_on_c, 6, 60, 79
8, 2640, Note_on_c, 6, 58, 79
8, 2700, Note_off_c, 6, 64, 80
8, 2700, Note_off_c, 6, 60, 80
8, 2700, Note_off_c, 6, 58, 80
8, 2760, Note_on_c, 6, 64, 79
8, 2760, Note_on_c, 6, 60, 79
8, 2760, Note_on_c, 6, 58, 79
8, 2820, Note_off_c, 6, 64, 80
8, 2820, Note_off_c, 6, 60, 80
8, 2820, Note_off_c, 6, 58, 80
8, 2880, Note_on_c, 6, 64, 79
8, 2880, Note_on_c, 6, 60, 79
8, 2880, Note_on_c, 6, 58, 79
8, 3060, Note_off_c, 6, 64, 80
8, 3060, Note_off_c, 6, 60, 80
8, 3060, Note_off_c, 6, 58, 80
8, 3120, Note_on_c, 6, 55, 79
8, 3120, Note_on_c, 6, 60, 79
8, 3120, Note_on_c, 6, 58, 79
8, 3180, Note_off_c, 6, 55, 80
8, 3180, Note_off_c, 6, 60, 80
8, 3180, Note_off_c, 6, 58, 80
8, 3240, Note_on_c, 6, 55, 79
8, 3240, Note_on_c, 6, 60, 79
8, 3240, Note_on_c, 6, 58, 79
8, 3300, Note_off_c, 6, 55, 80
8, 3300, Note_off_c, 6, 60, 80
8, 3300, Note_off_c, 6, 58, 80
8, 3360, Note_on_c, 6, 55, 79
8, 3360, Note_on_c, 6, 60, 79
8, 3360, Note_on_c, 6, 58, 79
8, 3540, Note_off_c, 6, 55, 80
8, 3540, Note_off_c, 6, 60, 80
8, 3540, Note_off_c, 6, 58, 80
8, 3600, Note_on_c, 6, 55, 79
8, 3600, Note_on_c, 6, 60, 79
8, 3600, Note_on_c, 6, 58, 79
8, 3660, Note_off_c, 6, 55, 80
8, 3660, Note_off_c, 6, 60, 80
8, 3660, Note_off_c, 6, 58, 80
8, 3720, Note_on_c, 6, 55, 79
8, 3720, Note_on_c, 6, 60, 79
8, 3720, Note_on_c, 6, 58, 79
8, 3780, Note_off_c, 6, 55, 80
8, 3780, Note_off_c, 6, 60, 80
8, 3780, Note_off_c, 6, 58, 80
8, 3840, Note_on_c, 6, 55, 79
8, 3840, Note_on_c, 6, 58, 79
8, 3840, Note_on_c, 6, 57, 79
8, 4020, Note_off_c, 6, 55, 80
8, 4020, Note_off_c, 6, 58, 80
8, 4020, Note_off_c, 6, 57, 80
8, 4080, Note_on_c, 6, 62, 79
8, 4080, Note_on_c, 6, 58, 79
8, 4080, Note_on_c, 6, 57, 79
8, 4140, Note_off_c, 6, 62, 80
8, 4140, Note_off_c, 6, 58, 80
8, 4140, Note_off_c, 6, 57, 80
8, 4200, Note_on_c, 6, 62, 79
8, 4200, Note_on_c, 6, 58, 79
8, 4200, Note_on_c, 6, 57, 79
8, 4260, Note_off_c, 6, 62, 80
8, 4260, Note_off_c, 6, 58, 80
8, 4260, Note_off_c, 6, 57, 80
8, 4320, Note_on_c, 6, 62, 79
8, 4320, Note_on_c, 6, 58, 79
8, 4320, Note_on_c, 6, 57, 79
8, 4500, Note_off_c, 6, 62, 80
8, 4500, Note_off_c, 6, 58, 80
8, 4500, Note_off_c, 6, 57, 80
8, 4560, Note_on_c, 6, 62, 79
8, 4560, Note_on_c, 6, 58, 79
8, 4560, Note_on_c, 6, 57, 79
8, 4620, Note_off_c, 6, 62, 80
8, 4620, Note_off_c, 6, 58, 80
8, 4620, Note_off_c, 6, 57, 80
8, 4680, Note_on_c, 6, 62, 79
8, 4680, Note_on_c, 6, 58, 79
8, 4680, Note_on_c, 6, 57, 79
8, 4740, Note_off_c, 6, 62, 80
8, 4740, Note_off_c, 6, 58, 80
8, 4740, Note_off_c, 6, 57, 80
8, 4800, Note_on_c, 6, 62, 79
8, 4800, Note_on_c, 6, 58, 79
8, 4800, Note_on_c, 6, 57, 79
8, 4980, Note_off_c, 6, 62, 80
8, 4980, Note_off_c, 6, 58, 80
8, 4980, Note_off_c, 6, 57, 80
8, 5040, Note_on_c, 6, 62, 79
8, 5040, Note_on_c, 6, 58, 79
8, 5040, Note_on_c, 6, 57, 79
8, 5100, Note_off_c, 6, 62, 80
8, 5100, Note_off_c, 6, 58, 80
8, 5100, Note_off_c, 6, 57, 80
8, 5160, Note_on_c, 6, 62, 79
8, 5160, Note_on_c, 6, 58, 79
8, 5160, Note_on_c, 6, 57, 79
8, 5220, Note_off_c, 6, 62, 80
8, 5220, Note_off_c, 6, 58, 80
8, 5220, Note_off_c, 6, 57, 80
8, 5280, Note_on_c, 6, 62, 79
8, 5280, Note_on_c, 6, 58, 79
8, 5280, Note_on_c, 6, 57, 79
8, 5460, Note_off_c, 6, 62, 80
8, 5460, Note_off_c, 6, 58, 80
8, 5460, Note_off_c, 6, 57, 80
8, 5520, Note_on_c, 6, 62, 79
8, 5520, Note_on_c, 6, 58, 79
8, 5520, Note_on_c, 6, 57, 79
8, 5580, Note_off_c, 6, 62, 80
8, 5580, Note_off_c, 6, 58, 80
8, 5580, Note_off_c, 6, 57, 80
8, 5640, Note_on_c, 6, 62, 79
8, 5640, Note_on_c, 6, 58, 79
8, 5640, Note_on_c, 6, 57, 79
8, 5700, Note_off_c, 6, 62, 80
8, 5700, Note_off_c, 6, 58, 80
8, 5700, Note_off_c, 6, 57, 80
8, 5760, Note_on_c, 6, 64, 79
8, 5760, Note_on_c, 6, 60, 79
8, 5760, Note_on_c, 6, 58, 79
8, 5940, Note_off_c, 6, 64, 80
8, 5940, Note_off_c, 6, 60, 80
8, 5940, Note_off_c, 6, 58, 80
8, 6000, Note_on_c, 6, 64, 79
8, 6000, Note_on_c, 6, 60, 79
8, 6000, Note_on_c, 6, 58, 79
8, 6060, Note_off_c, 6, 64, 80
8, 6060, Note_off_c, 6, 60, 80
8, 6060, Note_off_c, 6, 58, 80
8, 6120, Note_on_c, 6, 64, 79
8, 6120, Note_on_c, 6, 60, 79
8, 6120, Note_on_c, 6, 58, 79
8, 6180, Note_off_c, 6, 64, 80
8, 6180, Note_off_c, 6, 60, 80
8, 6180, Note_off_c, 6, 58, 80
8, 6240, Note_on_c, 6, 64, 79
8, 6240, Note_on_c, 6, 60, 79
8, 6240, Note_on_c, 6, 58, 79
8, 6420, Note_off_c, 6, 64, 80
8, 6420, Note_off_c, 6, 60, 80
8, 6420, Note_off_c, 6, 58, 80
8, 6480, Note_on_c, 6, 64, 79
8, 6480, Note_on_c, 6, 60, 79
8, 6480, Note_on_c, 6, 58, 79
8, 6540, Note_off_c, 6, 64, 80
8, 6540, Note_off_c, 6, 60, 80
8, 6540, Note_off_c, 6, 58, 80
8, 6600, Note_on_c, 6, 64, 79
8, 6600, Note_on_c, 6, 60, 79
8, 6600, Note_on_c, 6, 58, 79
8, 6660, Note_off_c, 6, 64, 80
8, 6660, Note_off_c, 6, 60, 80
8, 6660, Note_off_c, 6, 58, 80
8, 6720, Note_on_c, 6, 64, 79
8, 6720, Note_on_c, 6, 60, 79
8, 6720, Note_on_c, 6, 58, 79
8, 6900, Note_off_c, 6, 64, 80
8, 6900, Note_off_c, 6, 60, 80
8, 6900, Note_off_c, 6, 58, 80
8, 6960, Note_on_c, 6, 55, 79
8, 6960, Note_on_c, 6, 60, 79
8, 6960, Note_on_c, 6, 58, 79
8, 7020, Note_off_c, 6, 55, 80
8, 7020, Note_off_c, 6, 60, 80
8, 7020, Note_off_c, 6, 58, 80
8, 7080, Note_on_c, 6, 55, 79
8, 7080, Note_on_c, 6, 60, 79
8, 7080, Note_on_c, 6, 58, 79
8, 7140, Note_off_c, 6, 55, 80
8, 7140, Note_off_c, 6, 60, 80
8, 7140, Note_off_c, 6, 58, 80
8, 7200, Note_on_c, 6, 55, 79
8, 7200, Note_on_c, 6, 60, 79
8, 7200, Note_on_c, 6, 58, 79
8, 7380, Note_off_c, 6, 55, 80
8, 7380, Note_off_c, 6, 60, 80
8, 7380, Note_off_c, 6, 58, 80
8, 7440, Note_on_c, 6, 55, 79
8, 7440, Note_on_c, 6, 60, 79
8, 7440, Note_on_c, 6, 58, 79
8, 7500, Note_off_c, 6, 55, 80
8, 7500, Note_off_c, 6, 60, 80
8, 7500, Note_off_c, 6, 58, 80
8, 7560, Note_on_c, 6, 55, 79
8, 7560, Note_on_c, 6, 60, 79
8, 7560, Note_on_c, 6, 58, 79
8, 7620, Note_off_c, 6, 55, 80
8, 7620, Note_off_c, 6, 60, 80
8, 7620, Note_off_c, 6, 58, 80
8, 7680, Note_on_c, 6, 55, 79
8, 7680, Note_on_c, 6, 58, 79
8, 7680, Note_on_c, 6, 57, 79
8, 7860, Note_off_c, 6, 55, 80
8, 7860, Note_off_c, 6, 58, 80
8, 7860, Note_off_c, 6, 57, 80
8, 7920, Note_on_c, 6, 62, 79
8, 7920, Note_on_c, 6, 58, 79
8, 7920, Note_on_c, 6, 57, 79
8, 7980, Note_off_c, 6, 62, 80
8, 7980, Note_off_c, 6, 58, 80
8, 7980, Note_off_c, 6, 57, 80
8, 8040, Note_on_c, 6, 62, 79
8, 8040, Note_on_c, 6, 58, 79
8, 8040, Note_on_c, 6, 57, 79
8, 8100, Note_off_c, 6, 62, 80
8, 8100, Note_off_c, 6, 58, 80
8, 8100, Note_off_c, 6, 57, 80
8, 8160, Note_on_c, 6, 62, 79
8, 8160, Note_on_c, 6, 58, 79
8, 8160, Note_on_c, 6, 57, 79
8, 8340, Note_off_c, 6, 62, 80
8, 8340, Note_off_c, 6, 58, 80
8, 8340, Note_off_c, 6, 57, 80
8, 8400, Note_on_c, 6, 62, 79
8, 8400, Note_on_c, 6, 58, 79
8, 8400, Note_on_c, 6, 57, 79
8, 8460, Note_off_c, 6, 62, 80
8, 8460, Note_off_c, 6, 58, 80
8, 8460, Note_off_c, 6, 57, 80
8, 8520, Note_on_c, 6, 62, 79
8, 8520, Note_on_c, 6, 58, 79
8, 8520, Note_on_c, 6, 57, 79
8, 8580, Note_off_c, 6, 62, 80
8, 8580, Note_off_c, 6, 58, 80
8, 8580, Note_off_c, 6, 57, 80
8, 8640, Note_on_c, 6, 62, 79
8, 8640, Note_on_c, 6, 58, 79
8, 8640, Note_on_c, 6, 57, 79
8, 8820, Note_off_c, 6, 62, 80
8, 8820, Note_off_c, 6, 58, 80
8, 8820, Note_off_c, 6, 57, 80
8, 8880, Note_on_c, 6, 62, 79
8, 8880, Note_on_c, 6, 58, 79
8, 8880, Note_on_c, 6, 57, 79
8, 8940, Note_off_c, 6, 62, 80
8, 8940, Note_off_c, 6, 58, 80
8, 8940, Note_off_c, 6, 57, 80
8, 9000, Note_on_c, 6, 62, 79
8, 9000, Note_on_c, 6, 58, 79
8, 9000, Note_on_c, 6, 57, 79
8, 9060, Note_off_c, 6, 62, 80
8, 9060, Note_off_c, 6, 58, 80
8, 9060, Note_off_c, 6, 57, 80
8, 9120, Note_on_c, 6, 62, 79
8, 9120, Note_on_c, 6, 58, 79
8, 9120, Note_on_c, 6, 57, 79
8, 9300, Note_off_c, 6, 62, 80
8, 9300, Note_off_c, 6, 58, 80
8, 9300, Note_off_c, 6, 57, 80
8, 9360, Note_on_c, 6, 62, 79
8, 9360, Note_on_c, 6, 58, 79
8, 9360, Note_on_c, 6, 57, 79
8, 9420, Note_off_c, 6, 62, 80
8, 9420, Note_off_c, 6, 58, 80
8, 9420, Note_off_c, 6, 57, 80
8, 9480, Note_on_c, 6, 62, 79
8, 9480, Note_on_c, 6, 58, 79
8, 9480, Note_on_c, 6, 57, 79
8, 9540, Note_off_c, 6, 62, 80
8, 9540, Note_off_c, 6, 58, 80
8, 9540, Note_off_c, 6, 57, 80
8, 9600, Note_on_c, 6, 64, 79
8, 9600, Note_on_c, 6, 60, 79
8, 9600, Note_on_c, 6, 58, 79
8, 9780, Note_off_c, 6, 64, 80
8, 9780, Note_off_c, 6, 60, 80
8, 9780, Note_off_c, 6, 58, 80
8, 9840, Note_on_c, 6, 64, 79
8, 9840, Note_on_c, 6, 60, 79
8, 9840, Note_on_c, 6, 58, 79
8, 9900, Note_off_c, 6, 64, 80
8, 9900, Note_off_c, 6, 60, 80
8, 9900, Note_off_c, 6, 58, 80
8, 9960, Note_on_c, 6, 64, 79
8, 9960, Note_on_c, 6, 60, 79
8, 9960, Note_on_c, 6, 58, 79
8, 10020, Note_off_c, 6, 64, 80
8, 10020, Note_off_c, 6, 60, 80
8, 10020, Note_off_c, 6, 58, 80
8, 10080, Note_on_c, 6, 64, 79
8, 10080, Note_on_c, 6, 60, 79
8, 10080, Note_on_c, 6, 58, 79
8, 10260, Note_off_c, 6, 64, 80
8, 10260, Note_off_c, 6, 60, 80
8, 10260, Note_off_c, 6, 58, 80
8, 10320, Note_on_c, 6, 64, 79
8, 10320, Note_on_c, 6, 60, 79
8, 10320, Note_on_c, 6, 58, 79
8, 10380, Note_off_c, 6, 64, 80
8, 10380, Note_off_c, 6, 60, 80
8, 10380, Note_off_c, 6, 58, 80
8, 10440, Note_on_c, 6, 64, 79
8, 10440, Note_on_c, 6, 60, 79
8, 10440, Note_on_c, 6, 58, 79
8, 10500, Note_off_c, 6, 64, 80
8, 10500, Note_off_c, 6, 60, 80
8, 10500, Note_off_c, 6, 58, 80
8, 10560, Note_on_c, 6, 64, 79
8, 10560, Note_on_c, 6, 60, 79
8, 10560, Note_on_c, 6, 58, 79
8, 10740, Note_off_c, 6, 64, 80
8, 10740, Note_off_c, 6, 60, 80
8, 10740, Note_off_c, 6, 58, 80
8, 10800, Note_on_c, 6, 55, 79
8, 10800, Note_on_c, 6, 60, 79
8, 10800, Note_on_c, 6, 58, 79
8, 10860, Note_off_c, 6, 55, 80
8, 10860, Note_off_c, 6, 60, 80
8, 10860, Note_off_c, 6, 58, 80
8, 10920, Note_on_c, 6, 55, 79
8, 10920, Note_on_c, 6, 60, 79
8, 10920, Note_on_c, 6, 58, 79
8, 10980, Note_off_c, 6, 55, 80
8, 10980, Note_off_c, 6, 60, 80
8, 10980, Note_off_c, 6, 58, 80
8, 11040, Note_on_c, 6, 55, 79
8, 11040, Note_on_c, 6, 60, 79
8, 11040, Note_on_c, 6, 58, 79
8, 11220, Note_off_c, 6, 55, 80
8, 11220, Note_off_c, 6, 60, 80
8, 11220, Note_off_c, 6, 58, 80
8, 11280, Note_on_c, 6, 55, 79
8, 11280, Note_on_c, 6, 60, 79
8, 11280, Note_on_c, 6, 58, 79
8, 11340, Note_off_c, 6, 55, 80
8, 11340, Note_off_c, 6, 60, 80
8, 11340, Note_off_c, 6, 58, 80
8, 11400, Note_on_c, 6, 55, 79
8, 11400, Note_on_c, 6, 60, 79
8, 11400, Note_on_c, 6, 58, 79
8, 11460, Note_off_c, 6, 55, 80
8, 11460, Note_off_c, 6, 60, 80
8, 11460, Note_off_c, 6, 58, 80
8, 11520, Note_on_c, 6, 55, 79
8, 11520, Note_on_c, 6, 58, 79
8, 11520, Note_on_c, 6, 57, 79
8, 11700, Note_off_c, 6, 55, 80
8, 11700, Note_off_c, 6, 58, 80
8, 11700, Note_off_c, 6, 57, 80
8, 11760, Note_on_c, 6, 62, 79
8, 11760, Note_on_c, 6, 58, 79
8, 11760, Note_on_c, 6, 57, 79
8, 11820, Note_off_c, 6, 62, 80
8, 11820, Note_off_c, 6, 58, 80
8, 11820, Note_off_c, 6, 57, 80
8, 11880, Note_on_c, 6, 62, 79
8, 11880, Note_on_c, 6, 58, 79
8, 11880, Note_on_c, 6, 57, 79
8, 11940, Note_off_c, 6, 62, 80
8, 11940, Note_off_c, 6, 58, 80
8, 11940, Note_off_c, 6, 57, 80
8, 12000, Note_on_c, 6, 62, 79
8, 12000, Note_on_c, 6, 58, 79
8, 12000, Note_on_c, 6, 57, 79
8, 12180, Note_off_c, 6, 62, 80
8, 12180, Note_off_c, 6, 58, 80
8, 12180, Note_off_c, 6, 57, 80
8, 12240, Note_on_c, 6, 62, 79
8, 12240, Note_on_c, 6, 58, 79
8, 12240, Note_on_c, 6, 57, 79
8, 12300, Note_off_c, 6, 62, 80
8, 12300, Note_off_c, 6, 58, 80
8, 12300, Note_off_c, 6, 57, 80
8, 12360, Note_on_c, 6, 62, 79
8, 12360, Note_on_c, 6, 58, 79
8, 12360, Note_on_c, 6, 57, 79
8, 12420, Note_off_c, 6, 62, 80
8, 12420, Note_off_c, 6, 58, 80
8, 12420, Note_off_c, 6, 57, 80
8, 12480, Note_on_c, 6, 62, 79
8, 12480, Note_on_c, 6, 58, 79
8, 12480, Note_on_c, 6, 57, 79
8, 12660, Note_off_c, 6, 62, 80
8, 12660, Note_off_c, 6, 58, 80
8, 12660, Note_off_c, 6, 57, 80
8, 12720, Note_on_c, 6, 62, 79
8, 12720, Note_on_c, 6, 58, 79
8, 12720, Note_on_c, 6, 57, 79
8, 12780, Note_off_c, 6, 62, 80
8, 12780, Note_off_c, 6, 58, 80
8, 12780, Note_off_c, 6, 57, 80
8, 12840, Note_on_c, 6, 62, 79
8, 12840, Note_on_c, 6, 58, 79
8, 12840, Note_on_c, 6, 57, 79
8, 12900, Note_off_c, 6, 62, 80
8, 12900, Note_off_c, 6, 58, 80
8, 12900, Note_off_c, 6, 57, 80
8, 12960, Note_on_c, 6, 62, 79
8, 12960, Note_on_c, 6, 58, 79
8, 12960, Note_on_c, 6, 57, 79
8, 13140, Note_off_c, 6, 62, 80
8, 13140, Note_off_c, 6, 58, 80
8, 13140, Note_off_c, 6, 57, 80
8, 13200, Note_on_c, 6, 62, 79
8, 13200, Note_on_c, 6, 58, 79
8, 13200, Note_on_c, 6, 57, 79
8, 13260, Note_off_c, 6, 62, 80
8, 13260, Note_off_c, 6, 58, 80
8, 13260, Note_off_c, 6, 57, 80
8, 13320, Note_on_c, 6, 62, 79
8, 13320, Note_on_c, 6, 58, 79
8, 13320, Note_on_c, 6, 57, 79
8, 13380, Note_off_c, 6, 62, 80
8, 13380, Note_off_c, 6, 58, 80
8, 13380, Note_off_c, 6, 57, 80
8, 13440, Note_on_c, 6, 64, 79
8, 13440, Note_on_c, 6, 60, 79
8, 13440, Note_on_c, 6, 58, 79
8, 13620, Note_off_c, 6, 64, 80
8, 13620, Note_off_c, 6, 60, 80
8, 13620, Note_off_c, 6, 58, 80
8, 13680, Note_on_c, 6, 64, 79
8, 13680, Note_on_c, 6, 60, 79
8, 13680, Note_on_c, 6, 58, 79
8, 13740, Note_off_c, 6, 64, 80
8, 13740, Note_off_c, 6, 60, 80
8, 13740, Note_off_c, 6, 58, 80
8, 13800, Note_on_c, 6, 64, 79
8, 13800, Note_on_c, 6, 60, 79
8, 13800, Note_on_c, 6, 58, 79
8, 13860, Note_off_c, 6, 64, 80
8, 13860, Note_off_c, 6, 60, 80
8, 13860, Note_off_c, 6, 58, 80
8, 13920, Note_on_c, 6, 64, 79
8, 13920, Note_on_c, 6, 60, 79
8, 13920, Note_on_c, 6, 58, 79
8, 14100, Note_off_c, 6, 64, 80
8, 14100, Note_off_c, 6, 60, 80
8, 14100, Note_off_c, 6, 58, 80
8, 14160, Note_on_c, 6, 64, 79
8, 14160, Note_on_c, 6, 60, 79
8, 14160, Note_on_c, 6, 58, 79
8, 14220, Note_off_c, 6, 64, 80
8, 14220, Note_off_c, 6, 60, 80
8, 14220, Note_off_c, 6, 58, 80
8, 14280, Note_on_c, 6, 64, 79
8, 14280, Note_on_c, 6, 60, 79
8, 14280, Note_on_c, 6, 58, 79
8, 14340, Note_off_c, 6, 64, 80
8, 14340, Note_off_c, 6, 60, 80
8, 14340, Note_off_c, 6, 58, 80
8, 14400, Note_on_c, 6, 64, 79
8, 14400, Note_on_c, 6, 60, 79
8, 14400, Note_on_c, 6, 58, 79
8, 14580, Note_off_c, 6, 64, 80
8, 14580, Note_off_c, 6, 60, 80
8, 14580, Note_off_c, 6, 58, 80
8, 14640, Note_on_c, 6, 55, 79
8, 14640, Note_on_c, 6, 60, 79
8, 14640, Note_on_c, 6, 58, 79
8, 14700, Note_off_c, 6, 55, 80
8, 14700, Note_off_c, 6, 60, 80
8, 14700, Note_off_c, 6, 58, 80
8, 14760, Note_on_c, 6, 55, 79
8, 14760, Note_on_c, 6, 60, 79
8, 14760, Note_on_c, 6, 58, 79
8, 14820, Note_off_c, 6, 55, 80
8, 14820, Note_off_c, 6, 60, 80
8, 14820, Note_off_c, 6, 58, 80
8, 14880, Note_on_c, 6, 55, 79
8, 14880, Note_on_c, 6, 60, 79
8, 14880, Note_on_c, 6, 58, 79
8, 15060, Note_off_c, 6, 55, 80
8, 15060, Note_off_c, 6, 60, 80
8, 15060, Note_off_c, 6, 58, 80
8, 15120, Note_on_c, 6, 55, 79
8, 15120, Note_on_c, 6, 60, 79
8, 15120, Note_on_c, 6, 58, 79
8, 15180, Note_off_c, 6, 55, 80
8, 15180, Note_off_c, 6, 60, 80
8, 15180, Note_off_c, 6, 58, 80
8, 15240, Note_on_c, 6, 55, 79
8, 15240, Note_on_c, 6, 60, 79
8, 15240, Note_on_c, 6, 58, 79
8, 15300, Note_off_c, 6, 55, 80
8, 15300, Note_off_c, 6, 60, 80
8, 15300, Note_off_c, 6, 58, 80
8, 15360, Note_on_c, 6, 72, 95
8, 15360, Note_on_c, 6, 68, 95
8, 15360, Note_on_c, 6, 65, 95
8, 16080, Note_off_c, 6, 72, 80
8, 16080, Note_off_c, 6, 68, 80
8, 16080, Note_off_c, 6, 65, 80
8, 16200, Note_on_c, 6, 65, 95
8, 16200, Note_on_c, 6, 60, 95
8, 16200, Note_on_c, 6, 56, 95
8, 16320, Note_off_c, 6, 65, 80
8, 16320, Note_off_c, 6, 60, 80
8, 16320, Note_off_c, 6, 56, 80
8, 16320, Note_on_c, 6, 65, 95
8, 16320, Note_on_c, 6, 60, 95
8, 16320, Note_on_c, 6, 56, 95
8, 17040, Note_off_c, 6, 65, 80
8, 17040, Note_off_c, 6, 60, 80
8, 17040, Note_off_c, 6, 56, 80
8, 17160, Note_on_c, 6, 72, 95
8, 17160, Note_on_c, 6, 68, 95
8, 17160, Note_on_c, 6, 65, 95
8, 17280, Note_off_c, 6, 72, 80
8, 17280, Note_off_c, 6, 68, 80
8, 17280, Note_off_c, 6, 65, 80
8, 17280, Note_on_c, 6, 72, 95
8, 17280, Note_on_c, 6, 65, 95
8, 17280, Note_on_c, 6, 63, 95
8, 17760, Note_off_c, 6, 72, 80
8, 17760, Note_off_c, 6, 65, 80
8, 17760, Note_off_c, 6, 63, 80
8, 17760, Note_on_c, 6, 70, 95
8, 17760, Note_on_c, 6, 65, 95
8, 17760, Note_on_c, 6, 63, 95
8, 18240, Note_off_c, 6, 70, 80
8, 18240, Note_off_c, 6, 65, 80
8, 18240, Note_off_c, 6, 63, 80
8, 18240, Note_on_c, 6, 68, 95
8, 18240, Note_on_c, 6, 65, 95
8, 18240, Note_on_c, 6, 63, 95
8, 18720, Note_off_c, 6, 68, 80
8, 18720, Note_off_c, 6, 65, 80
8, 18720, Note_off_c, 6, 63, 80
8, 18720, Note_on_c, 6, 70, 95
8, 18720, Note_on_c, 6, 65, 95
8, 18720, Note_on_c, 6, 63, 95
8, 19200, Note_off_c, 6, 70, 80
8, 19200, Note_off_c, 6, 65, 80
8, 19200, Note_off_c, 6, 63, 80
8, 19200, Note_on_c, 6, 75, 95
8, 19200, Note_on_c, 6, 70, 95
8, 19200, Note_on_c, 6, 67, 95
8, 19920, Note_off_c, 6, 75, 80
8, 19920, Note_off_c, 6, 70, 80
8, 19920, Note_off_c, 6, 67, 80
8, 20040, Note_on_c, 6, 63, 95
8, 20040, Note_on_c, 6, 60, 95
8, 20040, Note_on_c, 6, 55, 95
8, 20160, Note_off_c, 6, 63, 80
8, 20160, Note_off_c, 6, 60, 80
8, 20160, Note_off_c, 6, 55, 80
8, 20160, Note_on_c, 6, 63, 95
8, 20160, Note_on_c, 6, 60, 95
8, 20160, Note_on_c, 6, 55, 95
8, 20880, Note_off_c, 6, 63, 80
8, 20880, Note_off_c, 6, 60, 80
8, 20880, Note_off_c, 6, 55, 80
8, 21000, Note_on_c, 6, 70, 95
8, 21000, Note_on_c, 6, 67, 95
8, 21000, Note_on_c, 6, 60, 95
8, 21120, Note_off_c, 6, 70, 80
8, 21120, Note_off_c, 6, 67, 80
8, 21120, Note_off_c, 6, 60, 80
8, 21120, Note_on_c, 6, 70, 95
8, 21120, Note_on_c, 6, 67, 95
8, 21120, Note_on_c, 6, 60, 95
8, 21600, Note_off_c, 6, 70, 80
8, 21600, Note_off_c, 6, 67, 80
8, 21600, Note_off_c, 6, 60, 80
8, 21600, Note_on_c, 6, 68, 95
8, 21600, Note_on_c, 6, 65, 95
8, 21600, Note_on_c, 6, 60, 95
8, 22080, Note_off_c, 6, 68, 80
8, 22080, Note_off_c, 6, 65, 80
8, 22080, Note_off_c, 6, 60, 80
8, 22080, Note_on_c, 6, 67, 95
8, 22080, Note_on_c, 6, 63, 95
8, 22080, Note_on_c, 6, 60, 95
8, 22560, Note_off_c, 6, 67, 80
8, 22560, Note_off_c, 6, 63, 80
8, 22560, Note_off_c, 6, 60, 80
8, 22560, Note_on_c, 6, 68, 95
8, 22560, Note_on_c, 6, 65, 95
8, 22560, Note_on_c, 6, 60, 95
8, 23040, Note_off_c, 6, 68, 80
8, 23040, Note_off_c, 6, 65, 80
8, 23040, Note_off_c, 6, 60, 80
8, 23040, Note_on_c, 6, 72, 95
8, 23040, Note_on_c, 6, 68, 95
8, 23040, Note_on_c, 6, 65, 95
8, 23760, Note_off_c, 6, 72, 80
8, 23760, Note_off_c, 6, 68, 80
8, 23760, Note_off_c, 6, 65, 80
8, 23880, Note_on_c, 6, 65, 95
8, 23880, Note_on_c, 6, 60, 95
8, 23880, Note_on_c, 6, 56, 95
8, 24000, Note_off_c, 6, 65, 80
8, 24000, Note_off_c, 6, 60, 80
8, 24000, Note_off_c, 6, 56, 80
8, 24000, Note_on_c, 6, 65, 95
8, 24000, Note_on_c, 6, 60, 95
8, 24000, Note_on_c, 6, 56, 95
8, 24720, Note_off_c, 6, 65, 80
8, 24720, Note_off_c, 6, 60, 80
8, 24720, Note_off_c, 6, 56, 80
8, 24840, Note_on_c, 6, 72, 95
8, 24840, Note_on_c, 6, 68, 95
8, 24840, Note_on_c, 6, 65, 95
8, 24960, Note_off_c, 6, 72, 80
8, 24960, Note_off_c, 6, 68, 80
8, 24960, Note_off_c, 6, 65, 80
8, 24960, Note_on_c, 6, 72, 95
8, 24960, Note_on_c, 6, 65, 95
8, 24960, Note_on_c, 6, 62, 95
8, 25440, Note_off_c, 6, 72, 80
8, 25440, Note_off_c, 6, 65, 80
8, 25440, Note_off_c, 6, 62, 80
8, 25440, Note_on_c, 6, 71, 95
8, 25440, Note_on_c, 6, 65, 95
8, 25440, Note_on_c, 6, 62, 95
8, 25920, Note_off_c, 6, 71, 80
8, 25920, Note_off_c, 6, 65, 80
8, 25920, Note_off_c, 6, 62, 80
8, 25920, Note_on_c, 6, 72, 95
8, 25920, Note_on_c, 6, 67, 95
8, 25920, Note_on_c, 6, 65, 95
8, 26400, Note_off_c, 6, 72, 80
8, 26400, Note_off_c, 6, 67, 80
8, 26400, Note_off_c, 6, 65, 80
8, 26400, Note_on_c, 6, 74, 95
8, 26400, Note_on_c, 6, 67, 95
8, 26400, Note_on_c, 6, 65, 95
8, 26880, Note_off_c, 6, 74, 80
8, 26880, Note_off_c, 6, 67, 80
8, 26880, Note_off_c, 6, 65, 80
8, 26880, Note_on_c, 6, 75, 95
8, 26880, Note_on_c, 6, 70, 95
8, 26880, Note_on_c, 6, 66, 95
8, 27360, Note_off_c, 6, 75, 80
8, 27360, Note_off_c, 6, 70, 80
8, 27360, Note_off_c, 6, 66, 80
8, 27360, Note_on_c, 6, 73, 95
8, 27360, Note_on_c, 6, 70, 95
8, 27360, Note_on_c, 6, 66, 95
8, 27720, Note_off_c, 6, 73, 80
8, 27720, Note_off_c, 6, 70, 80
8, 27720, Note_off_c, 6, 66, 80
8, 27720, Note_on_c, 6, 73, 95
8, 27720, Note_on_c, 6, 70, 95
8, 27720, Note_on_c, 6, 66, 95
8, 27840, Note_off_c, 6, 73, 80
8, 27840, Note_off_c, 6, 70, 80
8, 27840, Note_off_c, 6, 66, 80
8, 27840, Note_on_c, 6, 72, 95
8, 27840, Note_on_c, 6, 66, 95
8, 27840, Note_on_c, 6, 63, 95
8, 28320, Note_off_c, 6, 72, 80
8, 28320, Note_off_c, 6, 66, 80
8, 28320, Note_off_c, 6, 63, 80
8, 28320, Note_on_c, 6, 70, 95
8, 28320, Note_on_c, 6, 66, 95
8, 28320, Note_on_c, 6, 63, 95
8, 28800, Note_off_c, 6, 70, 80
8, 28800, Note_off_c, 6, 66, 80
8, 28800, Note_off_c, 6, 63, 80
8, 28800, Note_on_c, 6, 73, 95
8, 28800, Note_on_c, 6, 69, 95
8, 28800, Note_on_c, 6, 65, 95
8, 29520, Note_off_c, 6, 73, 80
8, 29520, Note_off_c, 6, 69, 80
8, 29520, Note_off_c, 6, 65, 80
8, 29640, Note_on_c, 6, 72, 95
8, 29640, Note_on_c, 6, 69, 95
8, 29640, Note_on_c, 6, 65, 95
8, 29760, Note_off_c, 6, 72, 80
8, 29760, Note_off_c, 6, 69, 80
8, 29760, Note_off_c, 6, 65, 80
8, 29760, Note_on_c, 6, 72, 95
8, 29760, Note_on_c, 6, 69, 95
8, 29760, Note_on_c, 6, 65, 95
8, 30000, Note_off_c, 6, 72, 80
8, 30000, Note_off_c, 6, 69, 80
8, 30000, Note_off_c, 6, 65, 80
8, 30000, Note_on_c, 6, 69, 95
8, 30000, Note_on_c, 6, 65, 95
8, 30000, Note_on_c, 6, 60, 95
8, 30240, Note_off_c, 6, 69, 80
8, 30240, Note_off_c, 6, 65, 80
8, 30240, Note_off_c, 6, 60, 80
8, 30240, Note_on_c, 6, 70, 95
8, 30240, Note_on_c, 6, 65, 95
8, 30240, Note_on_c, 6, 60, 95
8, 30480, Note_off_c, 6, 70, 80
8, 30480, Note_off_c, 6, 65, 80
8, 30480, Note_off_c, 6, 60, 80
8, 30480, Note_on_c, 6, 72, 95
8, 30480, Note_on_c, 6, 69, 95
8, 30480, Note_on_c, 6, 65, 95
8, 30720, Note_off_c, 6, 72, 80
8, 30720, Note_off_c, 6, 69, 80
8, 30720, Note_off_c, 6, 65, 80
8, 30720, Note_on_c, 6, 74, 95
8, 30720, Note_on_c, 6, 67, 95
8, 30720, Note_on_c, 6, 58, 95
8, 30960, Note_off_c, 6, 74, 80
8, 30960, Note_off_c, 6, 67, 80
8, 30960, Note_off_c, 6, 58, 80
8, 30960, Note_on_c, 6, 62, 79
8, 30960, Note_on_c, 6, 58, 79
8, 30960, Note_on_c, 6, 57, 79
8, 31020, Note_off_c, 6, 62, 80
8, 31020, Note_off_c, 6, 58, 80
8, 31020, Note_off_c, 6, 57, 80
8, 31080, Note_on_c, 6, 62, 79
8, 31080, Note_on_c, 6, 58, 79
8, 31080, Note_on_c, 6, 57, 79
8, 31140, Note_off_c, 6, 62, 80
8, 31140, Note_off_c, 6, 58, 80
8, 31140, Note_off_c, 6, 57, 80
8, 31200, Note_on_c, 6, 62, 79
8, 31200, Note_on_c, 6, 58, 79
8, 31200, Note_on_c, 6, 57, 79
8, 31380, Note_off_c, 6, 62, 80
8, 31380, Note_off_c, 6, 58, 80
8, 31380, Note_off_c, 6, 57, 80
8, 31440, Note_on_c, 6, 62, 79
8, 31440, Note_on_c, 6, 58, 79
8, 31440, Note_on_c, 6, 57, 79
8, 31500, Note_off_c, 6, 62, 80
8, 31500, Note_off_c, 6, 58, 80
8, 31500, Note_off_c, 6, 57, 80
8, 31560, Note_on_c, 6, 62, 79
8, 31560, Note_on_c, 6, 58, 79
8, 31560, Note_on_c, 6, 57, 79
8, 31620, Note_off_c, 6, 62, 80
8, 31620, Note_off_c, 6, 58, 80
8, 31620, Note_off_c, 6, 57, 80
8, 31680, Note_on_c, 6, 62, 79
8, 31680, Note_on_c, 6, 58, 79
8, 31680, Note_on_c, 6, 57, 79
8, 31860, Note_off_c, 6, 62, 80
8, 31860, Note_off_c, 6, 58, 80
8, 31860, Note_off_c, 6, 57, 80
8, 31920, Note_on_c, 6, 62, 79
8, 31920, Note_on_c, 6, 58, 79
8, 31920, Note_on_c, 6, 57, 79
8, 31980, Note_off_c, 6, 62, 80
8, 31980, Note_off_c, 6, 58, 80
8, 31980, Note_off_c, 6, 57, 80
8, 32040, Note_on_c, 6, 62, 79
8, 32040, Note_on_c, 6, 58, 79
8, 32040, Note_on_c, 6, 57, 79
8, 32100, Note_off_c, 6, 62, 80
8, 32100, Note_off_c, 6, 58, 80
8, 32100, Note_off_c, 6, 57, 80
8, 32160, Note_on_c, 6, 62, 79
8, 32160, Note_on_c, 6, 58, 79
8, 32160, Note_on_c, 6, 57, 79
8, 32340, Note_off_c, 6, 62, 80
8, 32340, Note_off_c, 6, 58, 80
8, 32340, Note_off_c, 6, 57, 80
8, 32400, Note_on_c, 6, 62, 79
8, 32400, Note_on_c, 6, 58, 79
8, 32400, Note_on_c, 6, 57, 79
8, 32460, Note_off_c, 6, 62, 80
8, 32460, Note_off_c, 6, 58, 80
8, 32460, Note_off_c, 6, 57, 80
8, 32520, Note_on_c, 6, 62, 79
8, 32520, Note_on_c, 6, 58, 79
8, 32520, Note_on_c, 6, 57, 79
8, 32580, Note_off_c, 6, 62, 80
8, 32580, Note_off_c, 6, 58, 80
8, 32580, Note_off_c, 6, 57, 80
8, 32640, Note_on_c, 6, 64, 79
8, 32640, Note_on_c, 6, 60, 79
8, 32640, Note_on_c, 6, 58, 79
8, 32820, Note_off_c, 6, 64, 80
8, 32820, Note_off_c, 6, 60, 80
8, 32820, Note_off_c, 6, 58, 80
8, 32880, Note_on_c, 6, 64, 79
8, 32880, Note_on_c, 6, 60, 79
8, 32880, Note_on_c, 6, 58, 79
8, 32940, Note_off_c, 6, 64, 80
8, 32940, Note_off_c, 6, 60, 80
8, 32940, Note_off_c, 6, 58, 80
8, 33000, Note_on_c, 6, 64, 79
8, 33000, Note_on_c, 6, 60, 79
8, 33000, Note_on_c, 6, 58, 79
8, 33060, Note_off_c, 6, 64, 80
8, 33060, Note_off_c, 6, 60, 80
8, 33060, Note_off_c, 6, 58, 80
8, 33120, Note_on_c, 6, 64, 79
8, 33120, Note_on_c, 6, 60, 79
8, 33120, Note_on_c, 6, 58, 79
8, 33300, Note_off_c, 6, 64, 80
8, 33300, Note_off_c, 6, 60, 80
8, 33300, Note_off_c, 6, 58, 80
8, 33360, Note_on_c, 6, 64, 79
8, 33360, Note_on_c, 6, 60, 79
8, 33360, Note_on_c, 6, 58, 79
8, 33420, Note_off_c, 6, 64, 80
8, 33420, Note_off_c, 6, 60, 80
8, 33420, Note_off_c, 6, 58, 80
8, 33480, Note_on_c, 6, 64, 79
8, 33480, Note_on_c, 6, 60, 79
8, 33480, Note_on_c, 6, 58, 79
8, 33540, Note_off_c, 6, 64, 80
8, 33540, Note_off_c, 6, 60, 80
8, 33540, Note_off_c, 6, 58, 80
8, 33600, Note_on_c, 6, 64, 79
8, 33600, Note_on_c, 6, 60, 79
8, 33600, Note_on_c, 6, 58, 79
8, 33780, Note_off_c, 6, 64, 80
8, 33780, Note_off_c, 6, 60, 80
8, 33780, Note_off_c, 6, 58, 80
8, 33840, Note_on_c, 6, 55, 79
8, 33840, Note_on_c, 6, 60, 79
8, 33840, Note_on_c, 6, 58, 79
8, 33900, Note_off_c, 6, 55, 80
8, 33900, Note_off_c, 6, 60, 80
8, 33900, Note_off_c, 6, 58, 80
8, 33960, Note_on_c, 6, 55, 79
8, 33960, Note_on_c, 6, 60, 79
8, 33960, Note_on_c, 6, 58, 79
8, 34020, Note_off_c, 6, 55, 80
8, 34020, Note_off_c, 6, 60, 80
8, 34020, Note_off_c, 6, 58, 80
8, 34080, Note_on_c, 6, 55, 79
8, 34080, Note_on_c, 6, 60, 79
8, 34080, Note_on_c, 6, 58, 79
8, 34260, Note_off_c, 6, 55, 80
8, 34260, Note_off_c, 6, 60, 80
8, 34260, Note_off_c, 6, 58, 80
8, 34320, Note_on_c, 6, 55, 79
8, 34320, Note_on_c, 6, 60, 79
8, 34320, Note_on_c, 6, 58, 79
8, 34380, Note_off_c, 6, 55, 80
8, 34380, Note_off_c, 6, 60, 80
8, 34380, Note_off_c, 6, 58, 80
8, 34440, Note_on_c, 6, 55, 79
8, 34440, Note_on_c, 6, 60, 79
8, 34440, Note_on_c, 6, 58, 79
8, 34500, Note_off_c, 6, 55, 80
8, 34500, Note_off_c, 6, 60, 80
8, 34500, Note_off_c, 6, 58, 80
8, 34560, Note_on_c, 6, 55, 79
8, 34560, Note_on_c, 6, 58, 79
8, 34560, Note_on_c, 6, 57, 79
8, 34740, Note_off_c, 6, 55, 80
8, 34740, Note_off_c, 6, 58, 80
8, 34740, Note_off_c, 6, 57, 80
8, 34800, Note_on_c, 6, 62, 79
8, 34800, Note_on_c, 6, 58, 79
8, 34800, Note_on_c, 6, 57, 79
8, 34860, Note_off_c, 6, 62, 80
8, 34860, Note_off_c, 6, 58, 80
8, 34860, Note_off_c, 6, 57, 80
8, 34920, Note_on_c, 6, 62, 79
8, 34920, Note_on_c, 6, 58, 79
8, 34920, Note_on_c, 6, 57, 79
8, 34980, Note_off_c, 6, 62, 80
8, 34980, Note_off_c, 6, 58, 80
8, 34980, Note_off_c, 6, 57, 80
8, 35040, Note_on_c, 6, 62, 79
8, 35040, Note_on_c, 6, 58, 79
8, 35040, Note_on_c, 6, 57, 79
8, 35220, Note_off_c, 6, 62, 80
8, 35220, Note_off_c, 6, 58, 80
8, 35220, Note_off_c, 6, 57, 80
8, 35280, Note_on_c, 6, 62, 79
8, 35280, Note_on_c, 6, 58, 79
8, 35280, Note_on_c, 6, 57, 79
8, 35340, Note_off_c, 6, 62, 80
8, 35340, Note_off_c, 6, 58, 80
8, 35340, Note_off_c, 6, 57, 80
8, 35400, Note_on_c, 6, 62, 79
8, 35400, Note_on_c, 6, 58, 79
8, 35400, Note_on_c, 6, 57, 79
8, 35460, Note_off_c, 6, 62, 80
8, 35460, Note_off_c, 6, 58, 80
8, 35460, Note_off_c, 6, 57, 80
8, 35520, Note_on_c, 6, 62, 79
8, 35520, Note_on_c, 6, 58, 79
8, 35520, Note_on_c, 6, 57, 79
8, 35700, Note_off_c, 6, 62, 80
8, 35700, Note_off_c, 6, 58, 80
8, 35700, Note_off_c, 6, 57, 80
8, 35760, Note_on_c, 6, 62, 79
8, 35760, Note_on_c, 6, 58, 79
8, 35760, Note_on_c, 6, 57, 79
8, 35820, Note_off_c, 6, 62, 80
8, 35820, Note_off_c, 6, 58, 80
8, 35820, Note_off_c, 6, 57, 80
8, 35880, Note_on_c, 6, 62, 79
8, 35880, Note_on_c, 6, 58, 79
8, 35880, Note_on_c, 6, 57, 79
8, 35940, Note_off_c, 6, 62, 80
8, 35940, Note_off_c, 6, 58, 80
8, 35940, Note_off_c, 6, 57, 80
8, 36000, Note_on_c, 6, 62, 79
8, 36000, Note_on_c, 6, 58, 79
8, 36000, Note_on_c, 6, 57, 79
8, 36180, Note_off_c, 6, 62, 80
8, 36180, Note_off_c, 6, 58, 80
8, 36180, Note_off_c, 6, 57, 80
8, 36240, Note_on_c, 6, 62, 79
8, 36240, Note_on_c, 6, 58, 79
8, 36240, Note_on_c, 6, 57, 79
8, 36300, Note_off_c, 6, 62, 80
8, 36300, Note_off_c, 6, 58, 80
8, 36300, Note_off_c, 6, 57, 80
8, 36360, Note_on_c, 6, 62, 79
8, 36360, Note_on_c, 6, 58, 79
8, 36360, Note_on_c, 6, 57, 79
8, 36420, Note_off_c, 6, 62, 80
8, 36420, Note_off_c, 6, 58, 80
8, 36420, Note_off_c, 6, 57, 80
8, 36480, Note_on_c, 6, 64, 79
8, 36480, Note_on_c, 6, 60, 79
8, 36480, Note_on_c, 6, 58, 79
8, 36660, Note_off_c, 6, 64, 80
8, 36660, Note_off_c, 6, 60, 80
8, 36660, Note_off_c, 6, 58, 80
8, 36720, Note_on_c, 6, 64, 79
8, 36720, Note_on_c, 6, 60, 79
8, 36720, Note_on_c, 6, 58, 79
8, 36780, Note_off_c, 6, 64, 80
8, 36780, Note_off_c, 6, 60, 80
8, 36780, Note_off_c, 6, 58, 80
8, 36840, Note_on_c, 6, 64, 79
8, 36840, Note_on_c, 6, 60, 79
8, 36840, Note_on_c, 6, 58, 79
8, 36900, Note_off_c, 6, 64, 80
8, 36900, Note_off_c, 6, 60, 80
8, 36900, Note_off_c, 6, 58, 80
8, 36960, Note_on_c, 6, 64, 79
8, 36960, Note_on_c, 6, 60, 79
8, 36960, Note_on_c, 6, 58, 79
8, 37140, Note_off_c, 6, 64, 80
8, 37140, Note_off_c, 6, 60, 80
8, 37140, Note_off_c, 6, 58, 80
8, 37200, Note_on_c, 6, 64, 79
8, 37200, Note_on_c, 6, 60, 79
8, 37200, Note_on_c, 6, 58, 79
8, 37260, Note_off_c, 6, 64, 80
8, 37260, Note_off_c, 6, 60, 80
8, 37260, Note_off_c, 6, 58, 80
8, 37320, Note_on_c, 6, 64, 79
8, 37320, Note_on_c, 6, 60, 79
8, 37320, Note_on_c, 6, 58, 79
8, 37380, Note_off_c, 6, 64, 80
8, 37380, Note_off_c, 6, 60, 80
8, 37380, Note_off_c, 6, 58, 80
8, 37440, Note_on_c, 6, 64, 79
8, 37440, Note_on_c, 6, 60, 79
8, 37440, Note_on_c, 6, 58, 79
8, 37620, Note_off_c, 6, 64, 80
8, 37620, Note_off_c, 6, 60, 80
8, 37620, Note_off_c, 6, 58, 80
8, 37680, Note_on_c, 6, 55, 79
8, 37680, Note_on_c, 6, 60, 79
8, 37680, Note_on_c, 6, 58, 79
8, 37740, Note_off_c, 6, 55, 80
8, 37740, Note_off_c, 6, 60, 80
8, 37740, Note_off_c, 6, 58, 80
8, 37800, Note_on_c, 6, 55, 79
8, 37800, Note_on_c, 6, 60, 79
8, 37800, Note_on_c, 6, 58, 79
8, 37860, Note_off_c, 6, 55, 80
8, 37860, Note_off_c, 6, 60, 80
8, 37860, Note_off_c, 6, 58, 80
8, 37920, Note_on_c, 6, 55, 79
8, 37920, Note_on_c, 6, 60, 79
8, 37920, Note_on_c, 6, 58, 79
8, 38100, Note_off_c, 6, 55, 80
8, 38100, Note_off_c, 6, 60, 80
8, 38100, Note_off_c, 6, 58, 80
8, 38160, Note_on_c, 6, 55, 79
8, 38160, Note_on_c, 6, 60, 79
8, 38160, Note_on_c, 6, 58, 79
8, 38220, Note_off_c, 6, 55, 80
8, 38220, Note_off_c, 6, 60, 80
8, 38220, Note_off_c, 6, 58, 80
8, 38280, Note_on_c, 6, 55, 79
8, 38280, Note_on_c, 6, 60, 79
8, 38280, Note_on_c, 6, 58, 79
8, 38340, Note_off_c, 6, 55, 80
8, 38340, Note_off_c, 6, 60, 80
8, 38340, Note_off_c, 6, 58, 80
8, 38340, End_track
9, 0, Start_track
9, 0, Sequencer_specific, 5, 5, 15, 9, 0, 64
9, 0, Sequencer_specific, 15, 5, 15, 6, 71, 101, 110, 101, 114, 97, 108, 32, 77, 73, 68, 73
9, 0, Title_t, "DRUMS"
9, 0, Control_c, 9, 100, 0
9, 0, Control_c, 9, 101, 0
9, 0, Control_c, 9, 6, 12
9, 0, Pitch_bend_c, 9, 8192
9, 0, Control_c, 9, 101, 0
9, 0, Control_c, 9, 100, 1
9, 0, Control_c, 9, 6, 64
9, 0, Control_c, 9, 38, 0
9, 0, Control_c, 9, 101, 127
9, 0, Control_c, 9, 100, 127
9, 0, Program_c, 9, 127
9, 0, Control_c, 9, 0, 0
9, 0, Control_c, 9, 7, 88
9, 0, Control_c, 9, 10, 64
9, 0, Control_c, 9, 93, 0
9, 0, Control_c, 9, 91, 0
9, 0, Control_c, 9, 92, 0
9, 0, Control_c, 9, 95, 0
9, 0, Note_on_c, 9, 36, 79
9, 0, Note_on_c, 9, 38, 111
9, 0, Note_on_c, 9, 49, 63
9, 120, Note_off_c, 9, 38, 80
9, 360, Note_off_c, 9, 36, 80
9, 360, Note_on_c, 9, 38, 63
9, 420, Note_off_c, 9, 38, 80
9, 420, Note_on_c, 9, 38, 63
9, 480, Note_off_c, 9, 38, 80
9, 480, Note_on_c, 9, 38, 111
9, 600, Note_off_c, 9, 38, 80
9, 840, Note_on_c, 9, 38, 63
9, 900, Note_off_c, 9, 38, 80
9, 900, Note_on_c, 9, 38, 63
9, 960, Note_off_c, 9, 49, 80
9, 960, Note_off_c, 9, 38, 80
9, 960, Note_on_c, 9, 38, 111
9, 1080, Note_off_c, 9, 38, 80
9, 1320, Note_on_c, 9, 38, 63
9, 1380, Note_off_c, 9, 38, 80
9, 1380, Note_on_c, 9, 38, 63
9, 1440, Note_off_c, 9, 38, 80
9, 1440, Note_on_c, 9, 38, 111
9, 1560, Note_off_c, 9, 38, 80
9, 1560, Note_on_c, 9, 38, 95
9, 1680, Note_off_c, 9, 38, 80
9, 1680, Note_on_c, 9, 38, 95
9, 1800, Note_off_c, 9, 38, 80
9, 1800, Note_on_c, 9, 38, 95
9, 1920, Note_off_c, 9, 38, 80
9, 1920, Note_on_c, 9, 38, 111
9, 2040, Note_off_c, 9, 38, 80
9, 2280, Note_on_c, 9, 38, 63
9, 2340, Note_off_c, 9, 38, 80
9, 2340, Note_on_c, 9, 38, 63
9, 2400, Note_off_c, 9, 38, 80
9, 2400, Note_on_c, 9, 38, 111
9, 2520, Note_off_c, 9, 38, 80
9, 2760, Note_on_c, 9, 38, 63
9, 2820, Note_off_c, 9, 38, 80
9, 2820, Note_on_c, 9, 38, 63
9, 2880, Note_off_c, 9, 38, 80
9, 2880, Note_on_c, 9, 38, 111
9, 3000, Note_off_c, 9, 38, 80
9, 3240, Note_on_c, 9, 38, 63
9, 3300, Note_off_c, 9, 38, 80
9, 3300, Note_on_c, 9, 38, 63
9, 3360, Note_off_c, 9, 38, 80
9, 3360, Note_on_c, 9, 38, 111
9, 3480, Note_off_c, 9, 38, 80
9, 3480, Note_on_c, 9, 38, 95
9, 3600, Note_off_c, 9, 38, 80
9, 3600, Note_on_c, 9, 38, 95
9, 3720, Note_off_c, 9, 38, 80
9, 3720, Note_on_c, 9, 38, 95
9, 3840, Note_off_c, 9, 38, 80
9, 3840, Note_on_c, 9, 38, 111
9, 3960, Note_off_c, 9, 38, 80
9, 4200, Note_on_c, 9, 38, 63
9, 4260, Note_off_c, 9, 38, 80
9, 4260, Note_on_c, 9, 38, 63
9, 4320, Note_off_c, 9, 38, 80
9, 4320, Note_on_c, 9, 38, 111
9, 4440, Note_off_c, 9, 38, 80
9, 4680, Note_on_c, 9, 38, 63
9, 4740, Note_off_c, 9, 38, 80
9, 4740, Note_on_c, 9, 38, 63
9, 4800, Note_off_c, 9, 38, 80
9, 4800, Note_on_c, 9, 38, 111
9, 4920, Note_off_c, 9, 38, 80
9, 5160, Note_on_c, 9, 38, 63
9, 5220, Note_off_c, 9, 38, 80
9, 5220, Note_on_c, 9, 38, 63
9, 5280, Note_off_c, 9, 38, 80
9, 5280, Note_on_c, 9, 38, 111
9, 5400, Note_off_c, 9, 38, 80
9, 5400, Note_on_c, 9, 38, 95
9, 5520, Note_off_c, 9, 38, 80
9, 5520, Note_on_c, 9, 38, 95
9, 5640, Note_off_c, 9, 38, 80
9, 5640, Note_on_c, 9, 38, 95
9, 5760, Note_off_c, 9, 38, 80
9, 5760, Note_on_c, 9, 38, 111
9, 5880, Note_off_c, 9, 38, 80
9, 6120, Note_on_c, 9, 38, 63
9, 6180, Note_off_c, 9, 38, 80
9, 6180, Note_on_c, 9, 38, 63
9, 6240, Note_off_c, 9, 38, 80
9, 6240, Note_on_c, 9, 38, 111
9, 6360, Note_off_c, 9, 38, 80
9, 6600, Note_on_c, 9, 38, 63
9, 6660, Note_off_c, 9, 38, 80
9, 6660, Note_on_c, 9, 38, 63
9, 6720, Note_off_c, 9, 38, 80
9, 6720, Note_on_c, 9, 38, 111
9, 6840, Note_off_c, 9, 38, 80
9, 7080, Note_on_c, 9, 38, 63
9, 7140, Note_off_c, 9, 38, 80
9, 7140, Note_on_c, 9, 38, 63
9, 7200, Note_off_c, 9, 38, 80
9, 7200, Note_on_c, 9, 38, 111
9, 7320, Note_off_c, 9, 38, 80
9, 7320, Note_on_c, 9, 38, 95
9, 7440, Note_off_c, 9, 38, 80
9, 7440, Note_on_c, 9, 38, 95
9, 7560, Note_off_c, 9, 38, 80
9, 7560, Note_on_c, 9, 38, 95
9, 7680, Note_off_c, 9, 38, 80
9, 7680, Note_on_c, 9, 36, 79
9, 7680, Note_on_c, 9, 38, 111
9, 7680, Note_on_c, 9, 49, 63
9, 7800, Note_off_c, 9, 38, 80
9, 8040, Note_off_c, 9, 36, 80
9, 8040, Note_on_c, 9, 38, 63
9, 8100, Note_off_c, 9, 38, 80
9, 8100, Note_on_c, 9, 38, 63
9, 8160, Note_off_c, 9, 38, 80
9, 8160, Note_on_c, 9, 38, 111
9, 8280, Note_off_c, 9, 38, 80
9, 8520, Note_on_c, 9, 38, 63
9, 8580, Note_off_c, 9, 38, 80
9, 8580, Note_on_c, 9, 38, 63
9, 8640, Note_off_c, 9, 49, 80
9, 8640, Note_off_c, 9, 38, 80
9, 8640, Note_on_c, 9, 38, 111
9, 8760, Note_off_c, 9, 38, 80
9, 9000, Note_on_c, 9, 38, 63
9, 9060, Note_off_c, 9, 38, 80
9, 9060, Note_on_c, 9, 38, 63
9, 9120, Note_off_c, 9, 38, 80
9, 9120, Note_on_c, 9, 38, 111
9, 9240, Note_off_c, 9, 38, 80
9, 9240, Note_on_c, 9, 38, 95
9, 9360, Note_off_c, 9, 38, 80
9, 9360, Note_on_c, 9, 38, 95
9, 9480, Note_off_c, 9, 38, 80
9, 9480, Note_on_c, 9, 38, 95
9, 9600, Note_off_c, 9, 38, 80
9, 9600, Note_on_c, 9, 38, 111
9, 9720, Note_off_c, 9, 38, 80
9, 9960, Note_on_c, 9, 38, 63
9, 10020, Note_off_c, 9, 38, 80
9, 10020, Note_on_c, 9, 38, 63
9, 10080, Note_off_c, 9, 38, 80
9, 10080, Note_on_c, 9, 38, 111
9, 10200, Note_off_c, 9, 38, 80
9, 10440, Note_on_c, 9, 38, 63
9, 10500, Note_off_c, 9, 38, 80
9, 10500, Note_on_c, 9, 38, 63
9, 10560, Note_off_c, 9, 38, 80
9, 10560, Note_on_c, 9, 38, 111
9, 10680, Note_off_c, 9, 38, 80
9, 10920, Note_on_c, 9, 38, 63
9, 10980, Note_off_c, 9, 38, 80
9, 10980, Note_on_c, 9, 38, 63
9, 11040, Note_off_c, 9, 38, 80
9, 11040, Note_on_c, 9, 38, 111
9, 11160, Note_off_c, 9, 38, 80
9, 11160, Note_on_c, 9, 38, 95
9, 11280, Note_off_c, 9, 38, 80
9, 11280, Note_on_c, 9, 38, 95
9, 11400, Note_off_c, 9, 38, 80
9, 11400, Note_on_c, 9, 38, 95
9, 11520, Note_off_c, 9, 38, 80
9, 11520, Note_on_c, 9, 38, 111
9, 11640, Note_off_c, 9, 38, 80
9, 11880, Note_on_c, 9, 38, 63
9, 11940, Note_off_c, 9, 38, 80
9, 11940, Note_on_c, 9, 38, 63
9, 12000, Note_off_c, 9, 38, 80
9, 12000, Note_on_c, 9, 38, 111
9, 12120, Note_off_c, 9, 38, 80
9, 12360, Note_on_c, 9, 38, 63
9, 12420, Note_off_c, 9, 38, 80
9, 12420, Note_on_c, 9, 38, 63
9, 12480, Note_off_c, 9, 38, 80
9, 12480, Note_on_c, 9, 38, 111
9, 12600, Note_off_c, 9, 38, 80
9, 12840, Note_on_c, 9, 38, 63
9, 12900, Note_off_c, 9, 38, 80
9, 12900, Note_on_c, 9, 38, 63
9, 12960, Note_off_c, 9, 38, 80
9, 12960, Note_on_c, 9, 38, 111
9, 13080, Note_off_c, 9, 38, 80
9, 13080, Note_on_c, 9, 38, 95
9, 13200, Note_off_c, 9, 38, 80
9, 13200, Note_on_c, 9, 38, 95
9, 13320, Note_off_c, 9, 38, 80
9, 13320, Note_on_c, 9, 38, 95
9, 13440, Note_off_c, 9, 38, 80
9, 13440, Note_on_c, 9, 38, 111
9, 13560, Note_off_c, 9, 38, 80
9, 13800, Note_on_c, 9, 38, 63
9, 13860, Note_off_c, 9, 38, 80
9, 13860, Note_on_c, 9, 38, 63
9, 13920, Note_off_c, 9, 38, 80
9, 13920, Note_on_c, 9, 38, 111
9, 14040, Note_off_c, 9, 38, 80
9, 14160, Note_on_c, 9, 38, 79
9, 14220, Note_off_c, 9, 38, 80
9, 14220, Note_on_c, 9, 38, 79
9, 14280, Note_off_c, 9, 38, 80
9, 14280, Note_on_c, 9, 38, 79
9, 14340, Note_off_c, 9, 38, 80
9, 14340, Note_on_c, 9, 38, 79
9, 14400, Note_off_c, 9, 38, 80
9, 14400, Note_on_c, 9, 38, 111
9, 14520, Note_off_c, 9, 38, 80
9, 14520, Note_on_c, 9, 38, 95
9, 14640, Note_off_c, 9, 38, 80
9, 14640, Note_on_c, 9, 38, 95
9, 14760, Note_off_c, 9, 38, 80
9, 14760, Note_on_c, 9, 38, 95
9, 14880, Note_off_c, 9, 38, 80
9, 14880, Note_on_c, 9, 38, 111
9, 15000, Note_off_c, 9, 38, 80
9, 15120, Note_on_c, 9, 38, 95
9, 15240, Note_off_c, 9, 38, 80
9, 15240, Note_on_c, 9, 38, 95
9, 15360, Note_off_c, 9, 38, 80
9, 15360, Note_on_c, 9, 36, 79
9, 15360, Note_on_c, 9, 38, 111
9, 15360, Note_on_c, 9, 49, 63
9, 15480, Note_off_c, 9, 38, 80
9, 15720, Note_off_c, 9, 36, 80
9, 15720, Note_on_c, 9, 38, 63
9, 15780, Note_off_c, 9, 38, 80
9, 15780, Note_on_c, 9, 38, 63
9, 15840, Note_off_c, 9, 38, 80
9, 15840, Note_on_c, 9, 38, 111
9, 15960, Note_off_c, 9, 38, 80
9, 16200, Note_on_c, 9, 38, 63
9, 16260, Note_off_c, 9, 38, 80
9, 16260, Note_on_c, 9, 38, 63
9, 16320, Note_off_c, 9, 49, 80
9, 16320, Note_off_c, 9, 38, 80
9, 16320, Note_on_c, 9, 38, 111
9, 16440, Note_off_c, 9, 38, 80
9, 16680, Note_on_c, 9, 38, 63
9, 16740, Note_off_c, 9, 38, 80
9, 16740, Note_on_c, 9, 38, 63
9, 16800, Note_off_c, 9, 38, 80
9, 16800, Note_on_c, 9, 38, 111
9, 16920, Note_off_c, 9, 38, 80
9, 16920, Note_on_c, 9, 38, 95
9, 17040, Note_off_c, 9, 38, 80
9, 17040, Note_on_c, 9, 38, 95
9, 17160, Note_off_c, 9, 38, 80
9, 17160, Note_on_c, 9, 38, 95
9, 17280, Note_off_c, 9, 38, 80
9, 17280, Note_on_c, 9, 38, 111
9, 17400, Note_off_c, 9, 38, 80
9, 17640, Note_on_c, 9, 38, 63
9, 17700, Note_off_c, 9, 38, 80
9, 17700, Note_on_c, 9, 38, 63
9, 17760, Note_off_c, 9, 38, 80
9, 17760, Note_on_c, 9, 38, 111
9, 17880, Note_off_c, 9, 38, 80
9, 18120, Note_on_c, 9, 38, 63
9, 18180, Note_off_c, 9, 38, 80
9, 18180, Note_on_c, 9, 38, 63
9, 18240, Note_off_c, 9, 38, 80
9, 18240, Note_on_c, 9, 38, 111
9, 18360, Note_off_c, 9, 38, 80
9, 18600, Note_on_c, 9, 38, 63
9, 18660, Note_off_c, 9, 38, 80
9, 18660, Note_on_c, 9, 38, 63
9, 18720, Note_off_c, 9, 38, 80
9, 18720, Note_on_c, 9, 38, 111
9, 18840, Note_off_c, 9, 38, 80
9, 18840, Note_on_c, 9, 38, 95
9, 18960, Note_off_c, 9, 38, 80
9, 18960, Note_on_c, 9, 38, 95
9, 19080, Note_off_c, 9, 38, 80
9, 19080, Note_on_c, 9, 38, 95
9, 19200, Note_off_c, 9, 38, 80
9, 19200, Note_on_c, 9, 38, 111
9, 19320, Note_off_c, 9, 38, 80
9, 19560, Note_on_c, 9, 38, 63
9, 19620, Note_off_c, 9, 38, 80
9, 19620, Note_on_c, 9, 38, 63
9, 19680, Note_off_c, 9, 38, 80
9, 19680, Note_on_c, 9, 38, 111
9, 19800, Note_off_c, 9, 38, 80
9, 20040, Note_on_c, 9, 38, 63
9, 20100, Note_off_c, 9, 38, 80
9, 20100, Note_on_c, 9, 38, 63
9, 20160, Note_off_c, 9, 38, 80
9, 20160, Note_on_c, 9, 38, 111
9, 20280, Note_off_c, 9, 38, 80
9, 20520, Note_on_c, 9, 38, 63
9, 20580, Note_off_c, 9, 38, 80
9, 20580, Note_on_c, 9, 38, 63
9, 20640, Note_off_c, 9, 38, 80
9, 20640, Note_on_c, 9, 38, 111
9, 20760, Note_off_c, 9, 38, 80
9, 20760, Note_on_c, 9, 38, 95
9, 20880, Note_off_c, 9, 38, 80
9, 20880, Note_on_c, 9, 38, 95
9, 21000, Note_off_c, 9, 38, 80
9, 21000, Note_on_c, 9, 38, 95
9, 21120, Note_off_c, 9, 38, 80
9, 21120, Note_on_c, 9, 38, 111
9, 21240, Note_off_c, 9, 38, 80
9, 21480, Note_on_c, 9, 38, 63
9, 21540, Note_off_c, 9, 38, 80
9, 21540, Note_on_c, 9, 38, 63
9, 21600, Note_off_c, 9, 38, 80
9, 21600, Note_on_c, 9, 38, 111
9, 21720, Note_off_c, 9, 38, 80
9, 21960, Note_on_c, 9, 38, 63
9, 22020, Note_off_c, 9, 38, 80
9, 22020, Note_on_c, 9, 38, 63
9, 22080, Note_off_c, 9, 38, 80
9, 22080, Note_on_c, 9, 38, 111
9, 22200, Note_off_c, 9, 38, 80
9, 22440, Note_on_c, 9, 38, 63
9, 22500, Note_off_c, 9, 38, 80
9, 22500, Note_on_c, 9, 38, 63
9, 22560, Note_off_c, 9, 38, 80
9, 22560, Note_on_c, 9, 38, 111
9, 22680, Note_off_c, 9, 38, 80
9, 22680, Note_on_c, 9, 38, 95
9, 22800, Note_off_c, 9, 38, 80
9, 22800, Note_on_c, 9, 38, 95
9, 22920, Note_off_c, 9, 38, 80
9, 22920, Note_on_c, 9, 38, 95
9, 23040, Note_off_c, 9, 38, 80
9, 23040, Note_on_c, 9, 36, 79
9, 23040, Note_on_c, 9, 38, 111
9, 23040, Note_on_c, 9, 49, 63
9, 23160, Note_off_c, 9, 38, 80
9, 23400, Note_off_c, 9, 36, 80
9, 23400, Note_on_c, 9, 38, 63
9, 23460, Note_off_c, 9, 38, 80
9, 23460, Note_on_c, 9, 38, 63
9, 23520, Note_off_c, 9, 38, 80
9, 23520, Note_on_c, 9, 38, 111
9, 23640, Note_off_c, 9, 38, 80
9, 23880, Note_on_c, 9, 38, 63
9, 23940, Note_off_c, 9, 38, 80
9, 23940, Note_on_c, 9, 38, 63
9, 24000, Note_off_c, 9, 49, 80
9, 24000, Note_off_c, 9, 38, 80
9, 24000, Note_on_c, 9, 38, 111
9, 24120, Note_off_c, 9, 38, 80
9, 24360, Note_on_c, 9, 38, 63
9, 24420, Note_off_c, 9, 38, 80
9, 24420, Note_on_c, 9, 38, 63
9, 24480, Note_off_c, 9, 38, 80
9, 24480, Note_on_c, 9, 38, 111
9, 24600, Note_off_c, 9, 38, 80
9, 24600, Note_on_c, 9, 38, 95
9, 24720, Note_off_c, 9, 38, 80
9, 24720, Note_on_c, 9, 38, 95
9, 24840, Note_off_c, 9, 38, 80
9, 24840, Note_on_c, 9, 38, 95
9, 24960, Note_off_c, 9, 38, 80
9, 24960, Note_on_c, 9, 38, 111
9, 25080, Note_off_c, 9, 38, 80
9, 25320, Note_on_c, 9, 38, 63
9, 25380, Note_off_c, 9, 38, 80
9, 25380, Note_on_c, 9, 38, 63
9, 25440, Note_off_c, 9, 38, 80
9, 25440, Note_on_c, 9, 38, 111
9, 25560, Note_off_c, 9, 38, 80
9, 25800, Note_on_c, 9, 38, 63
9, 25860, Note_off_c, 9, 38, 80
9, 25860, Note_on_c, 9, 38, 63
9, 25920, Note_off_c, 9, 38, 80
9, 25920, Note_on_c, 9, 38, 111
9, 26040, Note_off_c, 9, 38, 80
9, 26280, Note_on_c, 9, 38, 63
9, 26340, Note_off_c, 9, 38, 80
9, 26340, Note_on_c, 9, 38, 63
9, 26400, Note_off_c, 9, 38, 80
9, 26400, Note_on_c, 9, 38, 111
9, 26520, Note_off_c, 9, 38, 80
9, 26520, Note_on_c, 9, 38, 95
9, 26640, Note_off_c, 9, 38, 80
9, 26640, Note_on_c, 9, 38, 95
9, 26760, Note_off_c, 9, 38, 80
9, 26760, Note_on_c, 9, 38, 95
9, 26880, Note_off_c, 9, 38, 80
9, 26880, Note_on_c, 9, 38, 111
9, 27000, Note_off_c, 9, 38, 80
9, 27240, Note_on_c, 9, 38, 63
9, 27300, Note_off_c, 9, 38, 80
9, 27300, Note_on_c, 9, 38, 63
9, 27360, Note_off_c, 9, 38, 80
9, 27360, Note_on_c, 9, 38, 111
9, 27480, Note_off_c, 9, 38, 80
9, 27720, Note_on_c, 9, 38, 63
9, 27780, Note_off_c, 9, 38, 80
9, 27780, Note_on_c, 9, 38, 63
9, 27840, Note_off_c, 9, 38, 80
9, 27840, Note_on_c, 9, 38, 111
9, 27960, Note_off_c, 9, 38, 80
9, 28200, Note_on_c, 9, 38, 63
9, 28260, Note_off_c, 9, 38, 80
9, 28260, Note_on_c, 9, 38, 63
9, 28320, Note_off_c, 9, 38, 80
9, 28320, Note_on_c, 9, 38, 111
9, 28440, Note_off_c, 9, 38, 80
9, 28440, Note_on_c, 9, 38, 95
9, 28560, Note_off_c, 9, 38, 80
9, 28560, Note_on_c, 9, 38, 95
9, 28680, Note_off_c, 9, 38, 80
9, 28680, Note_on_c, 9, 38, 95
9, 28800, Note_off_c, 9, 38, 80
9, 28800, Note_on_c, 9, 38, 111
9, 28920, Note_off_c, 9, 38, 80
9, 29160, Note_on_c, 9, 38, 63
9, 29220, Note_off_c, 9, 38, 80
9, 29220, Note_on_c, 9, 38, 63
9, 29280, Note_off_c, 9, 38, 80
9, 29280, Note_on_c, 9, 38, 111
9, 29400, Note_off_c, 9, 38, 80
9, 29520, Note_on_c, 9, 38, 79
9, 29580, Note_off_c, 9, 38, 80
9, 29580, Note_on_c, 9, 38, 79
9, 29640, Note_off_c, 9, 38, 80
9, 29640, Note_on_c, 9, 38, 79
9, 29700, Note_off_c, 9, 38, 80
9, 29700, Note_on_c, 9, 38, 79
9, 29760, Note_off_c, 9, 38, 80
9, 29760, Note_on_c, 9, 38, 111
9, 29880, Note_off_c, 9, 38, 80
9, 30000, Note_on_c, 9, 38, 95
9, 30120, Note_off_c, 9, 38, 80
9, 30120, Note_on_c, 9, 38, 95
9, 30240, Note_off_c, 9, 38, 80
9, 30240, Note_on_c, 9, 38, 111
9, 30360, Note_off_c, 9, 38, 80
9, 30480, Note_on_c, 9, 38, 95
9, 30600, Note_off_c, 9, 38, 80
9, 30600, Note_on_c, 9, 38, 95
9, 30720, Note_off_c, 9, 38, 80
9, 30720, Note_on_c, 9, 36, 79
9, 30720, Note_on_c, 9, 38, 111
9, 30720, Note_on_c, 9, 49, 63
9, 30840, Note_off_c, 9, 38, 80
9, 31080, Note_off_c, 9, 36, 80
9, 31080, Note_on_c, 9, 38, 63
9, 31140, Note_off_c, 9, 38, 80
9, 31140, Note_on_c, 9, 38, 63
9, 31200, Note_off_c, 9, 38, 80
9, 31200, Note_on_c, 9, 38, 111
9, 31320, Note_off_c, 9, 38, 80
9, 31560, Note_on_c, 9, 38, 63
9, 31620, Note_off_c, 9, 38, 80
9, 31620, Note_on_c, 9, 38, 63
9, 31680, Note_off_c, 9, 49, 80
9, 31680, Note_off_c, 9, 38, 80
9, 31680, Note_on_c, 9, 38, 111
9, 31800, Note_off_c, 9, 38, 80
9, 32040, Note_on_c, 9, 38, 63
9, 32100, Note_off_c, 9, 38, 80
9, 32100, Note_on_c, 9, 38, 63
9, 32160, Note_off_c, 9, 38, 80
9, 32160, Note_on_c, 9, 38, 111
9, 32280, Note_off_c, 9, 38, 80
9, 32280, Note_on_c, 9, 38, 95
9, 32400, Note_off_c, 9, 38, 80
9, 32400, Note_on_c, 9, 38, 95
9, 32520, Note_off_c, 9, 38, 80
9, 32520, Note_on_c, 9, 38, 95
9, 32640, Note_off_c, 9, 38, 80
9, 32640, Note_on_c, 9, 38, 111
9, 32760, Note_off_c, 9, 38, 80
9, 33000, Note_on_c, 9, 38, 63
9, 33060, Note_off_c, 9, 38, 80
9, 33060, Note_on_c, 9, 38, 63
9, 33120, Note_off_c, 9, 38, 80
9, 33120, Note_on_c, 9, 38, 111
9, 33240, Note_off_c, 9, 38, 80
9, 33480, Note_on_c, 9, 38, 63
9, 33540, Note_off_c, 9, 38, 80
9, 33540, Note_on_c, 9, 38, 63
9, 33600, Note_off_c, 9, 38, 80
9, 33600, Note_on_c, 9, 38, 111
9, 33720, Note_off_c, 9, 38, 80
9, 33960, Note_on_c, 9, 38, 63
9, 34020, Note_off_c, 9, 38, 80
9, 34020, Note_on_c, 9, 38, 63
9, 34080, Note_off_c, 9, 38, 80
9, 34080, Note_on_c, 9, 38, 111
9, 34200, Note_off_c, 9, 38, 80
9, 34200, Note_on_c, 9, 38, 95
9, 34320, Note_off_c, 9, 38, 80
9, 34320, Note_on_c, 9, 38, 95
9, 34440, Note_off_c, 9, 38, 80
9, 34440, Note_on_c, 9, 38, 95
9, 34560, Note_off_c, 9, 38, 80
9, 34560, Note_on_c, 9, 38, 111
9, 34680, Note_off_c, 9, 38, 80
9, 34920, Note_on_c, 9, 38, 63
9, 34980, Note_off_c, 9, 38, 80
9, 34980, Note_on_c, 9, 38, 63
9, 35040, Note_off_c, 9, 38, 80
9, 35040, Note_on_c, 9, 38, 111
9, 35160, Note_off_c, 9, 38, 80
9, 35400, Note_on_c, 9, 38, 63
9, 35460, Note_off_c, 9, 38, 80
9, 35460, Note_on_c, 9, 38, 63
9, 35520, Note_off_c, 9, 38, 80
9, 35520, Note_on_c, 9, 38, 111
9, 35640, Note_off_c, 9, 38, 80
9, 35880, Note_on_c, 9, 38, 63
9, 35940, Note_off_c, 9, 38, 80
9, 35940, Note_on_c, 9, 38, 63
9, 36000, Note_off_c, 9, 38, 80
9, 36000, Note_on_c, 9, 38, 111
9, 36120, Note_off_c, 9, 38, 80
9, 36120, Note_on_c, 9, 38, 95
9, 36240, Note_off_c, 9, 38, 80
9, 36240, Note_on_c, 9, 38, 95
9, 36360, Note_off_c, 9, 38, 80
9, 36360, Note_on_c, 9, 38, 95
9, 36480, Note_off_c, 9, 38, 80
9, 36480, Note_on_c, 9, 38, 111
9, 36600, Note_off_c, 9, 38, 80
9, 36840, Note_on_c, 9, 38, 63
9, 36900, Note_off_c, 9, 38, 80
9, 36900, Note_on_c, 9, 38, 63
9, 36960, Note_off_c, 9, 38, 80
9, 36960, Note_on_c, 9, 38, 111
9, 37080, Note_off_c, 9, 38, 80
9, 37320, Note_on_c, 9, 38, 63
9, 37380, Note_off_c, 9, 38, 80
9, 37380, Note_on_c, 9, 38, 63
9, 37440, Note_off_c, 9, 38, 80
9, 37440, Note_on_c, 9, 38, 111
9, 37560, Note_off_c, 9, 38, 80
9, 37800, Note_on_c, 9, 38, 63
9, 37860, Note_off_c, 9, 38, 80
9, 37860, Note_on_c, 9, 38, 63
9, 37920, Note_off_c, 9, 38, 80
9, 37920, Note_on_c, 9, 38, 111
9, 38040, Note_off_c, 9, 38, 80
9, 38040, Note_on_c, 9, 38, 95
9, 38160, Note_off_c, 9, 38, 80
9, 38160, Note_on_c, 9, 38, 95
9, 38280, Note_off_c, 9, 38, 80
9, 38280, Note_on_c, 9, 38, 95
9, 38400, Note_off_c, 9, 38, 80
9, 38400, End_track
10, 0, Start_track
10, 0, Sequencer_specific, 5, 5, 15, 9, 0, 64
10, 0, Sequencer_specific, 15, 5, 15, 6, 71, 101, 110, 101, 114, 97, 108, 32, 77, 73, 68, 73
10, 0, Title_t, ""
10, 0, Control_c, 7, 100, 0
10, 0, Control_c, 7, 101, 0
10, 0, Control_c, 7, 6, 12
10, 0, Pitch_bend_c, 7, 8192
10, 0, Control_c, 7, 101, 0
10, 0, Control_c, 7, 100, 1
10, 0, Control_c, 7, 6, 64
10, 0, Control_c, 7, 38, 0
10, 0, Control_c, 7, 101, 127
10, 0, Control_c, 7, 100, 127
10, 0, Control_c, 7, 101, 0
10, 0, Control_c, 7, 100, 2
10, 0, Control_c, 7, 6, 64
10, 0, Control_c, 7, 101, 127
10, 0, Control_c, 7, 100, 127
10, 0, Program_c, 7, 19
10, 0, Control_c, 7, 0, 0
10, 0, Control_c, 7, 7, 127
10, 0, Control_c, 7, 10, 64
10, 0, Control_c, 7, 93, 0
10, 0, Control_c, 7, 91, 0
10, 0, Control_c, 7, 92, 0
10, 0, Control_c, 7, 95, 0
10, 960, Note_on_c, 7, 67, 63
10, 960, Note_on_c, 7, 62, 63
10, 960, Note_on_c, 7, 58, 63
10, 1920, Note_off_c, 7, 67, 80
10, 1920, Note_off_c, 7, 62, 80
10, 1920, Note_off_c, 7, 58, 80
10, 1920, Note_on_c, 7, 72, 63
10, 1920, Note_on_c, 7, 67, 63
10, 1920, Note_on_c, 7, 64, 63
10, 3600, Note_off_c, 7, 72, 80
10, 3600, Note_off_c, 7, 67, 80
10, 3600, Note_off_c, 7, 64, 80
10, 3600, Note_on_c, 7, 70, 63
10, 3600, Note_on_c, 7, 64, 63
10, 3600, Note_on_c, 7, 60, 63
10, 3720, Note_off_c, 7, 70, 80
10, 3720, Note_off_c, 7, 64, 80
10, 3720, Note_off_c, 7, 60, 80
10, 3720, Note_on_c, 7, 69, 63
10, 3720, Note_on_c, 7, 64, 63
10, 3720, Note_on_c, 7, 60, 63
10, 3840, Note_off_c, 7, 69, 80
10, 3840, Note_off_c, 7, 64, 80
10, 3840, Note_off_c, 7, 60, 80
10, 3840, Note_on_c, 7, 70, 63
10, 3840, Note_on_c, 7, 65, 63
10, 3840, Note_on_c, 7, 62, 63
10, 5280, Note_off_c, 7, 70, 80
10, 5280, Note_off_c, 7, 65, 80
10, 5280, Note_off_c, 7, 62, 80
10, 5280, Note_on_c, 7, 69, 63
10, 5280, Note_on_c, 7, 62, 63
10, 5280, Note_on_c, 7, 58, 63
10, 5520, Note_off_c, 7, 69, 80
10, 5520, Note_off_c, 7, 62, 80
10, 5520, Note_off_c, 7, 58, 80
10, 5520, Note_on_c, 7, 67, 63
10, 5520, Note_on_c, 7, 62, 63
10, 5520, Note_on_c, 7, 58, 63
10, 5640, Note_off_c, 7, 67, 80
10, 5640, Note_off_c, 7, 62, 80
10, 5640, Note_off_c, 7, 58, 80
10, 5640, Note_on_c, 7, 65, 63
10, 5640, Note_on_c, 7, 62, 63
10, 5640, Note_on_c, 7, 58, 63
10, 5760, Note_off_c, 7, 65, 80
10, 5760, Note_off_c, 7, 62, 80
10, 5760, Note_off_c, 7, 58, 80
10, 5760, Note_on_c, 7, 67, 63
10, 5760, Note_on_c, 7, 64, 63
10, 5760, Note_on_c, 7, 60, 63
10, 6720, Note_off_c, 7, 67, 80
10, 6720, Note_off_c, 7, 64, 80
10, 6720, Note_off_c, 7, 60, 80
10, 6720, Note_on_c, 7, 64, 63
10, 6720, Note_on_c, 7, 60, 63
10, 6840, Note_off_c, 7, 64, 80
10, 6840, Note_on_c, 7, 65, 63
10, 6960, Note_off_c, 7, 65, 80
10, 6960, Note_on_c, 7, 67, 63
10, 7080, Note_off_c, 7, 67, 80
10, 7080, Note_on_c, 7, 64, 63
10, 7200, Note_off_c, 7, 60, 80
10, 7200, Note_off_c, 7, 64, 80
10, 7200, Note_on_c, 7, 60, 63
10, 7200, Note_on_c, 7, 55, 63
10, 7320, Note_off_c, 7, 60, 80
10, 7320, Note_on_c, 7, 62, 63
10, 7440, Note_off_c, 7, 62, 80
10, 7440, Note_on_c, 7, 64, 63
10, 7560, Note_off_c, 7, 64, 80
10, 7560, Note_on_c, 7, 60, 63
10, 7680, Note_off_c, 7, 55, 80
10, 7680, Note_off_c, 7, 60, 80
10, 7680, Note_on_c, 7, 62, 63
10, 7680, Note_on_c, 7, 58, 63
10, 7680, Note_on_c, 7, 55, 63
10, 8160, Note_off_c, 7, 62, 80
10, 8160, Note_off_c, 7, 58, 80
10, 8160, Note_off_c, 7, 55, 80
10, 8160, Note_on_c, 7, 58, 63
10, 8160, Note_on_c, 7, 55, 63
10, 8640, Note_off_c, 7, 58, 80
10, 8640, Note_off_c, 7, 55, 80
10, 8640, Note_on_c, 7, 67, 63
10, 8640, Note_on_c, 7, 62, 63
10, 8640, Note_on_c, 7, 58, 63
10, 9600, Note_off_c, 7, 67, 80
10, 9600, Note_off_c, 7, 62, 80
10, 9600, Note_off_c, 7, 58, 80
10, 9600, Note_on_c, 7, 72, 63
10, 9600, Note_on_c, 7, 67, 63
10, 9600, Note_on_c, 7, 64, 63
10, 11280, Note_off_c, 7, 72, 80
10, 11280, Note_off_c, 7, 67, 80
10, 11280, Note_off_c, 7, 64, 80
10, 11280, Note_on_c, 7, 70, 63
10, 11280, Note_on_c, 7, 64, 63
10, 11280, Note_on_c, 7, 60, 63
10, 11400, Note_off_c, 7, 70, 80
10, 11400, Note_off_c, 7, 64, 80
10, 11400, Note_off_c, 7, 60, 80
10, 11400, Note_on_c, 7, 69, 63
10, 11400, Note_on_c, 7, 64, 63
10, 11400, Note_on_c, 7, 60, 63
10, 11520, Note_off_c, 7, 69, 80
10, 11520, Note_off_c, 7, 64, 80
10, 11520, Note_off_c, 7, 60, 80
10, 11520, Note_on_c, 7, 70, 63
10, 11520, Note_on_c, 7, 65, 63
10, 11520, Note_on_c, 7, 62, 63
10, 12480, Note_off_c, 7, 70, 80
10, 12480, Note_off_c, 7, 65, 80
10, 12480, Note_off_c, 7, 62, 80
10, 12480, Note_on_c, 7, 74, 63
10, 12480, Note_on_c, 7, 70, 63
10, 12480, Note_on_c, 7, 65, 63
10, 13200, Note_off_c, 7, 74, 80
10, 13200, Note_off_c, 7, 70, 80
10, 13200, Note_off_c, 7, 65, 80
10, 13200, Note_on_c, 7, 70, 63
10, 13200, Note_on_c, 7, 65, 63
10, 13320, Note_off_c, 7, 70, 80
10, 13320, Note_on_c, 7, 74, 63
10, 13440, Note_off_c, 7, 65, 80
10, 13440, Note_off_c, 7, 74, 80
10, 13440, Note_on_c, 7, 72, 63
10, 13440, Note_on_c, 7, 67, 63
10, 13440, Note_on_c, 7, 64, 63
10, 14160, Note_off_c, 7, 72, 80
10, 14160, Note_off_c, 7, 67, 80
10, 14160, Note_off_c, 7, 64, 80
10, 14160, Note_on_c, 7, 76, 63
10, 14160, Note_on_c, 7, 72, 63
10, 14160, Note_on_c, 7, 67, 63
10, 14280, Note_off_c, 7, 76, 80
10, 14280, Note_off_c, 7, 72, 80
10, 14280, Note_off_c, 7, 67, 80
10, 14280, Note_on_c, 7, 76, 63
10, 14280, Note_on_c, 7, 72, 63
10, 14280, Note_on_c, 7, 67, 63
10, 14400, Note_off_c, 7, 76, 80
10, 14400, Note_off_c, 7, 72, 80
10, 14400, Note_off_c, 7, 67, 80
10, 14400, Note_on_c, 7, 76, 63
10, 14400, Note_on_c, 7, 72, 63
10, 14400, Note_on_c, 7, 67, 63
10, 14580, Note_off_c, 7, 76, 80
10, 14580, Note_off_c, 7, 72, 80
10, 14580, Note_off_c, 7, 67, 80
10, 14640, Note_on_c, 7, 64, 63
10, 14640, Note_on_c, 7, 72, 63
10, 14640, Note_on_c, 7, 67, 63
10, 14760, Note_off_c, 7, 64, 80
10, 14760, Note_off_c, 7, 72, 80
10, 14760, Note_off_c, 7, 67, 80
10, 14760, Note_on_c, 7, 64, 63
10, 14760, Note_on_c, 7, 72, 63
10, 14760, Note_on_c, 7, 67, 63
10, 14880, Note_off_c, 7, 64, 80
10, 14880, Note_off_c, 7, 72, 80
10, 14880, Note_off_c, 7, 67, 80
10, 14880, Note_on_c, 7, 64, 63
10, 14880, Note_on_c, 7, 72, 63
10, 14880, Note_on_c, 7, 67, 63
10, 15060, Note_off_c, 7, 64, 80
10, 15060, Note_off_c, 7, 72, 80
10, 15060, Note_off_c, 7, 67, 80
10, 15120, Note_on_c, 7, 64, 63
10, 15120, Note_on_c, 7, 67, 63
10, 15120, Note_on_c, 7, 60, 63
10, 15240, Note_off_c, 7, 64, 80
10, 15240, Note_off_c, 7, 67, 80
10, 15240, Note_off_c, 7, 60, 80
10, 15240, Note_on_c, 7, 64, 63
10, 15240, Note_on_c, 7, 67, 63
10, 15240, Note_on_c, 7, 60, 63
10, 15360, Note_off_c, 7, 64, 80
10, 15360, Note_off_c, 7, 67, 80
10, 15360, Note_off_c, 7, 60, 80
10, 15360, Control_c, 7, 10, 32
10, 15360, Note_on_c, 7, 49, 95
10, 15420, Note_off_c, 7, 49, 80
10, 15440, Control_c, 7, 10, 48
10, 15440, Note_on_c, 7, 53, 79
10, 15500, Note_off_c, 7, 53, 80
10, 15520, Control_c, 7, 10, 56
10, 15520, Note_on_c, 7, 56, 79
10, 15580, Note_off_c, 7, 56, 80
10, 15600, Control_c, 7, 10, 64
10, 15600, Note_on_c, 7, 60, 79
10, 15660, Note_off_c, 7, 60, 80
10, 15680, Control_c, 7, 10, 72
10, 15680, Note_on_c, 7, 65, 63
10, 15740, Note_off_c, 7, 65, 80
10, 15760, Control_c, 7, 10, 80
10, 15760, Note_on_c, 7, 68, 63
10, 15820, Note_off_c, 7, 68, 80
10, 15840, Control_c, 7, 10, 96
10, 15840, Note_on_c, 7, 72, 63
10, 15900, Note_off_c, 7, 72, 80
10, 15920, Control_c, 7, 10, 80
10, 15920, Note_on_c, 7, 68, 63
10, 15980, Note_off_c, 7, 68, 80
10, 16000, Control_c, 7, 10, 72
10, 16000, Note_on_c, 7, 65, 63
10, 16060, Note_off_c, 7, 65, 80
10, 16080, Control_c, 7, 10, 64
10, 16080, Note_on_c, 7, 60, 79
10, 16140, Note_off_c, 7, 60, 80
10, 16160, Control_c, 7, 10, 56
10, 16160, Note_on_c, 7, 56, 79
10, 16220, Note_off_c, 7, 56, 80
10, 16240, Control_c, 7, 10, 48
10, 16240, Note_on_c, 7, 53, 79
10, 16300, Note_off_c, 7, 53, 80
10, 16320, Control_c, 7, 10, 32
10, 16320, Note_on_c, 7, 49, 95
10, 16380, Note_off_c, 7, 49, 80
10, 16400, Control_c, 7, 10, 48
10, 16400, Note_on_c, 7, 53, 79
10, 16460, Note_off_c, 7, 53, 80
10, 16480, Control_c, 7, 10, 56
10, 16480, Note_on_c, 7, 56, 79
10, 16540, Note_off_c, 7, 56, 80
10, 16560, Control_c, 7, 10, 64
10, 16560, Note_on_c, 7, 60, 79
10, 16620, Note_off_c, 7, 60, 80
10, 16640, Control_c, 7, 10, 72
10, 16640, Note_on_c, 7, 65, 63
10, 16700, Note_off_c, 7, 65, 80
10, 16720, Control_c, 7, 10, 80
10, 16720, Note_on_c, 7, 68, 63
10, 16780, Note_off_c, 7, 68, 80
10, 16800, Control_c, 7, 10, 96
10, 16800, Note_on_c, 7, 72, 63
10, 16860, Note_off_c, 7, 72, 80
10, 16880, Control_c, 7, 10, 80
10, 16880, Note_on_c, 7, 68, 63
10, 16940, Note_off_c, 7, 68, 80
10, 16960, Control_c, 7, 10, 72
10, 16960, Note_on_c, 7, 65, 63
10, 17020, Note_off_c, 7, 65, 80
10, 17040, Control_c, 7, 10, 64
10, 17040, Note_on_c, 7, 60, 79
10, 17100, Note_off_c, 7, 60, 80
10, 17120, Control_c, 7, 10, 56
10, 17120, Note_on_c, 7, 56, 79
10, 17180, Note_off_c, 7, 56, 80
10, 17200, Control_c, 7, 10, 48
10, 17200, Note_on_c, 7, 53, 79
10, 17260, Note_off_c, 7, 53, 80
10, 17280, Control_c, 7, 10, 32
10, 17280, Note_on_c, 7, 49, 95
10, 17340, Note_off_c, 7, 49, 80
10, 17360, Control_c, 7, 10, 48
10, 17360, Note_on_c, 7, 51, 79
10, 17420, Note_off_c, 7, 51, 80
10, 17440, Control_c, 7, 10, 56
10, 17440, Note_on_c, 7, 55, 79
10, 17500, Note_off_c, 7, 55, 80
10, 17520, Control_c, 7, 10, 64
10, 17520, Note_on_c, 7, 58, 79
10, 17580, Note_off_c, 7, 58, 80
10, 17600, Control_c, 7, 10, 72
10, 17600, Note_on_c, 7, 63, 63
10, 17660, Note_off_c, 7, 63, 80
10, 17680, Control_c, 7, 10, 80
10, 17680, Note_on_c, 7, 67, 63
10, 17740, Note_off_c, 7, 67, 80
10, 17760, Control_c, 7, 10, 96
10, 17760, Note_on_c, 7, 70, 63
10, 17820, Note_off_c, 7, 70, 80
10, 17840, Control_c, 7, 10, 80
10, 17840, Note_on_c, 7, 67, 63
10, 17900, Note_off_c, 7, 67, 80
10, 17920, Control_c, 7, 10, 72
10, 17920, Note_on_c, 7, 63, 63
10, 17980, Note_off_c, 7, 63, 80
10, 18000, Control_c, 7, 10, 64
10, 18000, Note_on_c, 7, 58, 79
10, 18060, Note_off_c, 7, 58, 80
10, 18080, Control_c, 7, 10, 56
10, 18080, Note_on_c, 7, 55, 79
10, 18140, Note_off_c, 7, 55, 80
10, 18160, Control_c, 7, 10, 48
10, 18160, Note_on_c, 7, 51, 79
10, 18220, Note_off_c, 7, 51, 80
10, 18240, Control_c, 7, 10, 32
10, 18240, Note_on_c, 7, 49, 95
10, 18300, Note_off_c, 7, 49, 80
10, 18320, Control_c, 7, 10, 48
10, 18320, Note_on_c, 7, 51, 79
10, 18380, Note_off_c, 7, 51, 80
10, 18400, Control_c, 7, 10, 56
10, 18400, Note_on_c, 7, 55, 79
10, 18460, Note_off_c, 7, 55, 80
10, 18480, Control_c, 7, 10, 64
10, 18480, Note_on_c, 7, 58, 79
10, 18540, Note_off_c, 7, 58, 80
10, 18560, Control_c, 7, 10, 72
10, 18560, Note_on_c, 7, 63, 63
10, 18620, Note_off_c, 7, 63, 80
10, 18640, Control_c, 7, 10, 80
10, 18640, Note_on_c, 7, 67, 63
10, 18700, Note_off_c, 7, 67, 80
10, 18720, Control_c, 7, 10, 96
10, 18720, Note_on_c, 7, 70, 63
10, 18780, Note_off_c, 7, 70, 80
10, 18800, Control_c, 7, 10, 80
10, 18800, Note_on_c, 7, 67, 63
10, 18860, Note_off_c, 7, 67, 80
10, 18880, Control_c, 7, 10, 72
10, 18880, Note_on_c, 7, 63, 63
10, 18940, Note_off_c, 7, 63, 80
10, 18960, Control_c, 7, 10, 64
10, 18960, Note_on_c, 7, 58, 79
10, 19020, Note_off_c, 7, 58, 80
10, 19040, Control_c, 7, 10, 56
10, 19040, Note_on_c, 7, 55, 79
10, 19100, Note_off_c, 7, 55, 80
10, 19120, Control_c, 7, 10, 48
10, 19120, Note_on_c, 7, 51, 79
10, 19180, Note_off_c, 7, 51, 80
10, 19200, Control_c, 7, 10, 32
10, 19200, Note_on_c, 7, 48, 95
10, 19260, Note_off_c, 7, 48, 80
10, 19280, Control_c, 7, 10, 48
10, 19280, Note_on_c, 7, 51, 79
10, 19340, Note_off_c, 7, 51, 80
10, 19360, Control_c, 7, 10, 56
10, 19360, Note_on_c, 7, 55, 79
10, 19420, Note_off_c, 7, 55, 80
10, 19440, Control_c, 7, 10, 64
10, 19440, Note_on_c, 7, 58, 79
10, 19500, Note_off_c, 7, 58, 80
10, 19520, Control_c, 7, 10, 72
10, 19520, Note_on_c, 7, 63, 63
10, 19580, Note_off_c, 7, 63, 80
10, 19600, Control_c, 7, 10, 80
10, 19600, Note_on_c, 7, 67, 63
10, 19660, Note_off_c, 7, 67, 80
10, 19680, Control_c, 7, 10, 96
10, 19680, Note_on_c, 7, 70, 63
10, 19740, Note_off_c, 7, 70, 80
10, 19760, Control_c, 7, 10, 80
10, 19760, Note_on_c, 7, 67, 63
10, 19820, Note_off_c, 7, 67, 80
10, 19840, Control_c, 7, 10, 72
10, 19840, Note_on_c, 7, 63, 63
10, 19900, Note_off_c, 7, 63, 80
10, 19920, Control_c, 7, 10, 64
10, 19920, Note_on_c, 7, 58, 79
10, 19980, Note_off_c, 7, 58, 80
10, 20000, Control_c, 7, 10, 56
10, 20000, Note_on_c, 7, 55, 79
10, 20060, Note_off_c, 7, 55, 80
10, 20080, Control_c, 7, 10, 48
10, 20080, Note_on_c, 7, 51, 79
10, 20140, Note_off_c, 7, 51, 80
10, 20160, Control_c, 7, 10, 32
10, 20160, Note_on_c, 7, 48, 95
10, 20220, Note_off_c, 7, 48, 80
10, 20240, Control_c, 7, 10, 48
10, 20240, Note_on_c, 7, 51, 79
10, 20300, Note_off_c, 7, 51, 80
10, 20320, Control_c, 7, 10, 56
10, 20320, Note_on_c, 7, 55, 79
10, 20380, Note_off_c, 7, 55, 80
10, 20400, Control_c, 7, 10, 64
10, 20400, Note_on_c, 7, 58, 79
10, 20460, Note_off_c, 7, 58, 80
10, 20480, Control_c, 7, 10, 72
10, 20480, Note_on_c, 7, 63, 63
10, 20540, Note_off_c, 7, 63, 80
10, 20560, Control_c, 7, 10, 80
10, 20560, Note_on_c, 7, 67, 63
10, 20620, Note_off_c, 7, 67, 80
10, 20640, Control_c, 7, 10, 96
10, 20640, Note_on_c, 7, 70, 63
10, 20700, Note_off_c, 7, 70, 80
10, 20720, Control_c, 7, 10, 80
10, 20720, Note_on_c, 7, 67, 63
10, 20780, Note_off_c, 7, 67, 80
10, 20800, Control_c, 7, 10, 72
10, 20800, Note_on_c, 7, 63, 63
10, 20860, Note_off_c, 7, 63, 80
10, 20880, Control_c, 7, 10, 64
10, 20880, Note_on_c, 7, 58, 79
10, 20940, Note_off_c, 7, 58, 80
10, 20960, Control_c, 7, 10, 56
10, 20960, Note_on_c, 7, 55, 79
10, 21020, Note_off_c, 7, 55, 80
10, 21040, Control_c, 7, 10, 48
10, 21040, Note_on_c, 7, 51, 79
10, 21100, Note_off_c, 7, 51, 80
10, 21120, Control_c, 7, 10, 32
10, 21120, Note_on_c, 7, 53, 95
10, 21180, Note_off_c, 7, 53, 80
10, 21200, Control_c, 7, 10, 48
10, 21200, Note_on_c, 7, 56, 79
10, 21260, Note_off_c, 7, 56, 80
10, 21280, Control_c, 7, 10, 56
10, 21280, Note_on_c, 7, 60, 79
10, 21340, Note_off_c, 7, 60, 80
10, 21360, Control_c, 7, 10, 64
10, 21360, Note_on_c, 7, 65, 79
10, 21420, Note_off_c, 7, 65, 80
10, 21440, Control_c, 7, 10, 72
10, 21440, Note_on_c, 7, 68, 63
10, 21500, Note_off_c, 7, 68, 80
10, 21520, Control_c, 7, 10, 80
10, 21520, Note_on_c, 7, 72, 63
10, 21580, Note_off_c, 7, 72, 80
10, 21600, Control_c, 7, 10, 96
10, 21600, Note_on_c, 7, 77, 63
10, 21660, Note_off_c, 7, 77, 80
10, 21680, Control_c, 7, 10, 80
10, 21680, Note_on_c, 7, 72, 63
10, 21740, Note_off_c, 7, 72, 80
10, 21760, Control_c, 7, 10, 72
10, 21760, Note_on_c, 7, 68, 63
10, 21820, Note_off_c, 7, 68, 80
10, 21840, Control_c, 7, 10, 64
10, 21840, Note_on_c, 7, 65, 79
10, 21900, Note_off_c, 7, 65, 80
10, 21920, Control_c, 7, 10, 56
10, 21920, Note_on_c, 7, 60, 79
10, 21980, Note_off_c, 7, 60, 80
10, 22000, Control_c, 7, 10, 48
10, 22000, Note_on_c, 7, 56, 79
10, 22060, Note_off_c, 7, 56, 80
10, 22080, Control_c, 7, 10, 32
10, 22080, Note_on_c, 7, 53, 95
10, 22140, Note_off_c, 7, 53, 80
10, 22160, Control_c, 7, 10, 48
10, 22160, Note_on_c, 7, 56, 79
10, 22220, Note_off_c, 7, 56, 80
10, 22240, Control_c, 7, 10, 56
10, 22240, Note_on_c, 7, 60, 79
10, 22300, Note_off_c, 7, 60, 80
10, 22320, Control_c, 7, 10, 64
10, 22320, Note_on_c, 7, 65, 79
10, 22380, Note_off_c, 7, 65, 80
10, 22400, Control_c, 7, 10, 72
10, 22400, Note_on_c, 7, 68, 63
10, 22460, Note_off_c, 7, 68, 80
10, 22480, Control_c, 7, 10, 80
10, 22480, Note_on_c, 7, 72, 63
10, 22540, Note_off_c, 7, 72, 80
10, 22560, Control_c, 7, 10, 96
10, 22560, Note_on_c, 7, 77, 63
10, 22620, Note_off_c, 7, 77, 80
10, 22640, Control_c, 7, 10, 80
10, 22640, Note_on_c, 7, 72, 63
10, 22700, Note_off_c, 7, 72, 80
10, 22720, Control_c, 7, 10, 72
10, 22720, Note_on_c, 7, 68, 63
10, 22780, Note_off_c, 7, 68, 80
10, 22800, Control_c, 7, 10, 64
10, 22800, Note_on_c, 7, 65, 79
10, 22860, Note_off_c, 7, 65, 80
10, 22880, Control_c, 7, 10, 56
10, 22880, Note_on_c, 7, 60, 79
10, 22940, Note_off_c, 7, 60, 80
10, 22960, Control_c, 7, 10, 48
10, 22960, Note_on_c, 7, 56, 79
10, 23020, Note_off_c, 7, 56, 80
10, 23040, Control_c, 7, 10, 32
10, 23040, Note_on_c, 7, 53, 95
10, 23100, Note_off_c, 7, 53, 80
10, 23120, Control_c, 7, 10, 48
10, 23120, Note_on_c, 7, 56, 79
10, 23180, Note_off_c, 7, 56, 80
10, 23200, Control_c, 7, 10, 56
10, 23200, Note_on_c, 7, 60, 79
10, 23260, Note_off_c, 7, 60, 80
10, 23280, Control_c, 7, 10, 64
10, 23280, Note_on_c, 7, 65, 79
10, 23340, Note_off_c, 7, 65, 80
10, 23360, Control_c, 7, 10, 72
10, 23360, Note_on_c, 7, 68, 63
10, 23420, Note_off_c, 7, 68, 80
10, 23440, Control_c, 7, 10, 80
10, 23440, Note_on_c, 7, 72, 63
10, 23500, Note_off_c, 7, 72, 80
10, 23520, Control_c, 7, 10, 96
10, 23520, Note_on_c, 7, 77, 63
10, 23580, Note_off_c, 7, 77, 80
10, 23600, Control_c, 7, 10, 80
10, 23600, Note_on_c, 7, 72, 63
10, 23660, Note_off_c, 7, 72, 80
10, 23680, Control_c, 7, 10, 72
10, 23680, Note_on_c, 7, 68, 63
10, 23740, Note_off_c, 7, 68, 80
10, 23760, Control_c, 7, 10, 64
10, 23760, Note_on_c, 7, 65, 79
10, 23820, Note_off_c, 7, 65, 80
10, 23840, Control_c, 7, 10, 56
10, 23840, Note_on_c, 7, 60, 79
10, 23900, Note_off_c, 7, 60, 80
10, 23920, Control_c, 7, 10, 48
10, 23920, Note_on_c, 7, 56, 79
10, 23980, Note_off_c, 7, 56, 80
10, 24000, Control_c, 7, 10, 32
10, 24000, Note_on_c, 7, 53, 95
10, 24060, Note_off_c, 7, 53, 80
10, 24080, Control_c, 7, 10, 48
10, 24080, Note_on_c, 7, 56, 79
10, 24140, Note_off_c, 7, 56, 80
10, 24160, Control_c, 7, 10, 56
10, 24160, Note_on_c, 7, 60, 79
10, 24220, Note_off_c, 7, 60, 80
10, 24240, Control_c, 7, 10, 64
10, 24240, Note_on_c, 7, 65, 79
10, 24300, Note_off_c, 7, 65, 80
10, 24320, Control_c, 7, 10, 72
10, 24320, Note_on_c, 7, 68, 63
10, 24380, Note_off_c, 7, 68, 80
10, 24400, Control_c, 7, 10, 80
10, 24400, Note_on_c, 7, 72, 63
10, 24460, Note_off_c, 7, 72, 80
10, 24480, Control_c, 7, 10, 96
10, 24480, Note_on_c, 7, 77, 63
10, 24540, Note_off_c, 7, 77, 80
10, 24560, Control_c, 7, 10, 80
10, 24560, Note_on_c, 7, 72, 63
10, 24620, Note_off_c, 7, 72, 80
10, 24640, Control_c, 7, 10, 72
10, 24640, Note_on_c, 7, 68, 63
10, 24700, Note_off_c, 7, 68, 80
10, 24720, Control_c, 7, 10, 64
10, 24720, Note_on_c, 7, 65, 79
10, 24780, Note_off_c, 7, 65, 80
10, 24800, Control_c, 7, 10, 56
10, 24800, Note_on_c, 7, 60, 79
10, 24860, Note_off_c, 7, 60, 80
10, 24880, Control_c, 7, 10, 48
10, 24880, Note_on_c, 7, 56, 79
10, 24940, Note_off_c, 7, 56, 80
10, 24960, Control_c, 7, 10, 32
10, 24960, Note_on_c, 7, 55, 95
10, 25020, Note_off_c, 7, 55, 80
10, 25040, Control_c, 7, 10, 48
10, 25040, Note_on_c, 7, 59, 79
10, 25100, Note_off_c, 7, 59, 80
10, 25120, Control_c, 7, 10, 56
10, 25120, Note_on_c, 7, 62, 79
10, 25180, Note_off_c, 7, 62, 80
10, 25200, Control_c, 7, 10, 64
10, 25200, Note_on_c, 7, 67, 79
10, 25260, Note_off_c, 7, 67, 80
10, 25280, Control_c, 7, 10, 72
10, 25280, Note_on_c, 7, 71, 63
10, 25340, Note_off_c, 7, 71, 80
10, 25360, Control_c, 7, 10, 80
10, 25360, Note_on_c, 7, 74, 63
10, 25420, Note_off_c, 7, 74, 80
10, 25440, Control_c, 7, 10, 96
10, 25440, Note_on_c, 7, 79, 63
10, 25500, Note_off_c, 7, 79, 80
10, 25520, Control_c, 7, 10, 80
10, 25520, Note_on_c, 7, 74, 63
10, 25580, Note_off_c, 7, 74, 80
10, 25600, Control_c, 7, 10, 72
10, 25600, Note_on_c, 7, 71, 63
10, 25660, Note_off_c, 7, 71, 80
10, 25680, Control_c, 7, 10, 64
10, 25680, Note_on_c, 7, 67, 79
10, 25740, Note_off_c, 7, 67, 80
10, 25760, Control_c, 7, 10, 56
10, 25760, Note_on_c, 7, 62, 79
10, 25820, Note_off_c, 7, 62, 80
10, 25840, Control_c, 7, 10, 48
10, 25840, Note_on_c, 7, 59, 79
10, 25900, Note_off_c, 7, 59, 80
10, 25920, Control_c, 7, 10, 32
10, 25920, Note_on_c, 7, 55, 95
10, 25980, Note_off_c, 7, 55, 80
10, 26000, Control_c, 7, 10, 48
10, 26000, Note_on_c, 7, 59, 79
10, 26060, Note_off_c, 7, 59, 80
10, 26080, Control_c, 7, 10, 56
10, 26080, Note_on_c, 7, 62, 79
10, 26140, Note_off_c, 7, 62, 80
10, 26160, Control_c, 7, 10, 64
10, 26160, Note_on_c, 7, 67, 79
10, 26220, Note_off_c, 7, 67, 80
10, 26240, Control_c, 7, 10, 72
10, 26240, Note_on_c, 7, 71, 63
10, 26300, Note_off_c, 7, 71, 80
10, 26320, Control_c, 7, 10, 80
10, 26320, Note_on_c, 7, 74, 63
10, 26380, Note_off_c, 7, 74, 80
10, 26400, Control_c, 7, 10, 96
10, 26400, Note_on_c, 7, 79, 63
10, 26460, Note_off_c, 7, 79, 80
10, 26480, Control_c, 7, 10, 80
10, 26480, Note_on_c, 7, 74, 63
10, 26540, Note_off_c, 7, 74, 80
10, 26560, Control_c, 7, 10, 72
10, 26560, Note_on_c, 7, 71, 63
10, 26620, Note_off_c, 7, 71, 80
10, 26640, Control_c, 7, 10, 64
10, 26640, Note_on_c, 7, 67, 79
10, 26700, Note_off_c, 7, 67, 80
10, 26720, Control_c, 7, 10, 56
10, 26720, Note_on_c, 7, 62, 79
10, 26780, Note_off_c, 7, 62, 80
10, 26800, Control_c, 7, 10, 48
10, 26800, Note_on_c, 7, 59, 79
10, 26860, Note_off_c, 7, 59, 80
10, 26880, Control_c, 7, 10, 32
10, 26880, Note_on_c, 7, 51, 95
10, 26940, Note_off_c, 7, 51, 80
10, 26960, Control_c, 7, 10, 48
10, 26960, Note_on_c, 7, 54, 79
10, 27020, Note_off_c, 7, 54, 80
10, 27040, Control_c, 7, 10, 56
10, 27040, Note_on_c, 7, 58, 79
10, 27100, Note_off_c, 7, 58, 80
10, 27120, Control_c, 7, 10, 64
10, 27120, Note_on_c, 7, 63, 79
10, 27180, Note_off_c, 7, 63, 80
10, 27200, Control_c, 7, 10, 72
10, 27200, Note_on_c, 7, 66, 63
10, 27260, Note_off_c, 7, 66, 80
10, 27280, Control_c, 7, 10, 80
10, 27280, Note_on_c, 7, 70, 63
10, 27340, Note_off_c, 7, 70, 80
10, 27360, Control_c, 7, 10, 96
10, 27360, Note_on_c, 7, 75, 63
10, 27420, Note_off_c, 7, 75, 80
10, 27440, Control_c, 7, 10, 80
10, 27440, Note_on_c, 7, 70, 63
10, 27500, Note_off_c, 7, 70, 80
10, 27520, Control_c, 7, 10, 72
10, 27520, Note_on_c, 7, 66, 63
10, 27580, Note_off_c, 7, 66, 80
10, 27600, Control_c, 7, 10, 64
10, 27600, Note_on_c, 7, 63, 79
10, 27660, Note_off_c, 7, 63, 80
10, 27680, Control_c, 7, 10, 56
10, 27680, Note_on_c, 7, 58, 79
10, 27740, Note_off_c, 7, 58, 80
10, 27760, Control_c, 7, 10, 48
10, 27760, Note_on_c, 7, 54, 79
10, 27820, Note_off_c, 7, 54, 80
10, 27840, Control_c, 7, 10, 32
10, 27840, Note_on_c, 7, 51, 95
10, 27900, Note_off_c, 7, 51, 80
10, 27920, Control_c, 7, 10, 48
10, 27920, Note_on_c, 7, 54, 79
10, 27980, Note_off_c, 7, 54, 80
10, 28000, Control_c, 7, 10, 56
10, 28000, Note_on_c, 7, 58, 79
10, 28060, Note_off_c, 7, 58, 80
10, 28080, Control_c, 7, 10, 64
10, 28080, Note_on_c, 7, 63, 79
10, 28140, Note_off_c, 7, 63, 80
10, 28160, Control_c, 7, 10, 72
10, 28160, Note_on_c, 7, 66, 63
10, 28220, Note_off_c, 7, 66, 80
10, 28240, Control_c, 7, 10, 80
10, 28240, Note_on_c, 7, 70, 63
10, 28300, Note_off_c, 7, 70, 80
10, 28320, Control_c, 7, 10, 96
10, 28320, Note_on_c, 7, 75, 63
10, 28380, Note_off_c, 7, 75, 80
10, 28400, Control_c, 7, 10, 80
10, 28400, Note_on_c, 7, 70, 63
10, 28460, Note_off_c, 7, 70, 80
10, 28480, Control_c, 7, 10, 72
10, 28480, Note_on_c, 7, 66, 63
10, 28540, Note_off_c, 7, 66, 80
10, 28560, Control_c, 7, 10, 64
10, 28560, Note_on_c, 7, 63, 79
10, 28620, Note_off_c, 7, 63, 80
10, 28640, Control_c, 7, 10, 56
10, 28640, Note_on_c, 7, 58, 79
10, 28700, Note_off_c, 7, 58, 80
10, 28720, Control_c, 7, 10, 48
10, 28720, Note_on_c, 7, 54, 79
10, 28780, Note_off_c, 7, 54, 80
10, 28800, Control_c, 7, 10, 32
10, 28800, Note_on_c, 7, 53, 95
10, 28860, Note_off_c, 7, 53, 80
10, 28880, Control_c, 7, 10, 48
10, 28880, Note_on_c, 7, 57, 63
10, 28940, Note_off_c, 7, 57, 80
10, 28960, Control_c, 7, 10, 56
10, 28960, Note_on_c, 7, 61, 63
10, 29020, Note_off_c, 7, 61, 80
10, 29040, Control_c, 7, 10, 64
10, 29040, Note_on_c, 7, 65, 63
10, 29100, Note_off_c, 7, 65, 80
10, 29120, Control_c, 7, 10, 72
10, 29120, Note_on_c, 7, 69, 63
10, 29180, Note_off_c, 7, 69, 80
10, 29200, Control_c, 7, 10, 80
10, 29200, Note_on_c, 7, 73, 63
10, 29260, Note_off_c, 7, 73, 80
10, 29280, Control_c, 7, 10, 96
10, 29280, Note_on_c, 7, 77, 63
10, 29340, Note_off_c, 7, 77, 80
10, 29360, Control_c, 7, 10, 80
10, 29360, Note_on_c, 7, 73, 63
10, 29420, Note_off_c, 7, 73, 80
10, 29440, Control_c, 7, 10, 72
10, 29440, Note_on_c, 7, 69, 63
10, 29500, Note_off_c, 7, 69, 80
10, 29520, Control_c, 7, 10, 64
10, 29520, Note_on_c, 7, 65, 63
10, 29580, Note_off_c, 7, 65, 80
10, 29600, Control_c, 7, 10, 56
10, 29600, Note_on_c, 7, 61, 63
10, 29660, Note_off_c, 7, 61, 80
10, 29680, Control_c, 7, 10, 48
10, 29680, Note_on_c, 7, 57, 63
10, 29740, Note_off_c, 7, 57, 80
10, 29760, Control_c, 7, 10, 32
10, 29760, Note_on_c, 7, 53, 79
10, 29820, Note_off_c, 7, 53, 80
10, 29840, Control_c, 7, 10, 48
10, 29840, Note_on_c, 7, 57, 79
10, 29900, Note_off_c, 7, 57, 80
10, 29920, Control_c, 7, 10, 56
10, 29920, Note_on_c, 7, 60, 79
10, 29980, Note_off_c, 7, 60, 80
10, 30000, Control_c, 7, 10, 64
10, 30000, Note_on_c, 7, 65, 79
10, 30060, Note_off_c, 7, 65, 80
10, 30080, Control_c, 7, 10, 72
10, 30080, Note_on_c, 7, 69, 63
10, 30140, Note_off_c, 7, 69, 80
10, 30160, Control_c, 7, 10, 80
10, 30160, Note_on_c, 7, 72, 63
10, 30220, Note_off_c, 7, 72, 80
10, 30240, Control_c, 7, 10, 96
10, 30240, Note_on_c, 7, 77, 63
10, 30300, Note_off_c, 7, 77, 80
10, 30320, Control_c, 7, 10, 80
10, 30320, Note_on_c, 7, 72, 63
10, 30380, Note_off_c, 7, 72, 80
10, 30400, Control_c, 7, 10, 72
10, 30400, Note_on_c, 7, 69, 63
10, 30460, Note_off_c, 7, 69, 80
10, 30480, Control_c, 7, 10, 64
10, 30480, Note_on_c, 7, 65, 79
10, 30540, Note_off_c, 7, 65, 80
10, 30560, Control_c, 7, 10, 56
10, 30560, Note_on_c, 7, 60, 79
10, 30620, Note_off_c, 7, 60, 80
10, 30640, Control_c, 7, 10, 48
10, 30640, Note_on_c, 7, 57, 79
10, 30700, Note_off_c, 7, 57, 80
10, 30720, Control_c, 7, 10, 96
10, 30720, Note_on_c, 7, 79, 63
10, 30780, Note_off_c, 7, 79, 80
10, 30800, Control_c, 7, 10, 80
10, 30800, Note_on_c, 7, 74, 63
10, 30860, Note_off_c, 7, 74, 80
10, 30880, Control_c, 7, 10, 72
10, 30880, Note_on_c, 7, 70, 63
10, 30940, Note_off_c, 7, 70, 80
10, 30960, Control_c, 7, 10, 64
10, 30960, Note_on_c, 7, 67, 63
10, 31020, Note_off_c, 7, 67, 80
10, 31040, Control_c, 7, 10, 56
10, 31040, Note_on_c, 7, 62, 63
10, 31100, Note_off_c, 7, 62, 80
10, 31120, Control_c, 7, 10, 48
10, 31120, Note_on_c, 7, 58, 63
10, 31180, Note_off_c, 7, 58, 80
10, 31200, Control_c, 7, 10, 32
10, 31200, Note_on_c, 7, 55, 63
10, 31260, Note_off_c, 7, 55, 80
10, 31680, Control_c, 7, 10, 64
10, 31680, Note_on_c, 7, 67, 63
10, 31680, Note_on_c, 7, 62, 63
10, 31680, Note_on_c, 7, 58, 63
10, 32640, Note_off_c, 7, 67, 80
10, 32640, Note_off_c, 7, 62, 80
10, 32640, Note_off_c, 7, 58, 80
10, 32640, Note_on_c, 7, 64, 63
10, 32640, Note_on_c, 7, 72, 63
10, 32640, Note_on_c, 7, 67, 63
10, 34320, Note_off_c, 7, 64, 80
10, 34320, Note_off_c, 7, 72, 80
10, 34320, Note_off_c, 7, 67, 80
10, 34320, Note_on_c, 7, 64, 63
10, 34320, Note_on_c, 7, 70, 63
10, 34320, Note_on_c, 7, 60, 63
10, 34440, Note_off_c, 7, 64, 80
10, 34440, Note_off_c, 7, 70, 80
10, 34440, Note_off_c, 7, 60, 80
10, 34440, Note_on_c, 7, 64, 63
10, 34440, Note_on_c, 7, 69, 63
10, 34440, Note_on_c, 7, 60, 63
10, 34560, Note_off_c, 7, 64, 80
10, 34560, Note_off_c, 7, 69, 80
10, 34560, Note_off_c, 7, 60, 80
10, 34560, Note_on_c, 7, 70, 63
10, 34560, Note_on_c, 7, 65, 63
10, 34560, Note_on_c, 7, 62, 63
10, 36000, Note_off_c, 7, 70, 80
10, 36000, Note_off_c, 7, 65, 80
10, 36000, Note_off_c, 7, 62, 80
10, 36000, Note_on_c, 7, 69, 63
10, 36000, Note_on_c, 7, 62, 63
10, 36000, Note_on_c, 7, 58, 63
10, 36240, Note_off_c, 7, 69, 80
10, 36240, Note_off_c, 7, 62, 80
10, 36240, Note_off_c, 7, 58, 80
10, 36240, Note_on_c, 7, 67, 63
10, 36240, Note_on_c, 7, 62, 63
10, 36240, Note_on_c, 7, 58, 63
10, 36360, Note_off_c, 7, 67, 80
10, 36360, Note_off_c, 7, 62, 80
10, 36360, Note_off_c, 7, 58, 80
10, 36360, Note_on_c, 7, 65, 63
10, 36360, Note_on_c, 7, 62, 63
10, 36360, Note_on_c, 7, 58, 63
10, 36480, Note_off_c, 7, 65, 80
10, 36480, Note_off_c, 7, 62, 80
10, 36480, Note_off_c, 7, 58, 80
10, 36480, Note_on_c, 7, 64, 63
10, 36480, Note_on_c, 7, 67, 63
10, 36480, Note_on_c, 7, 60, 63
10, 37440, Note_off_c, 7, 64, 80
10, 37440, Note_off_c, 7, 67, 80
10, 37440, Note_off_c, 7, 60, 80
10, 37440, Note_on_c, 7, 64, 63
10, 37440, Note_on_c, 7, 60, 63
10, 37560, Note_off_c, 7, 64, 80
10, 37560, Note_on_c, 7, 65, 63
10, 37680, Note_off_c, 7, 65, 80
10, 37680, Note_on_c, 7, 67, 63
10, 37800, Note_off_c, 7, 67, 80
10, 37800, Note_on_c, 7, 64, 63
10, 37920, Note_off_c, 7, 60, 80
10, 37920, Note_off_c, 7, 64, 80
10, 37920, Note_on_c, 7, 60, 63
10, 37920, Note_on_c, 7, 55, 63
10, 38040, Note_off_c, 7, 60, 80
10, 38040, Note_on_c, 7, 62, 63
10, 38160, Note_off_c, 7, 62, 80
10, 38160, Note_on_c, 7, 64, 63
10, 38280, Note_off_c, 7, 64, 80
10, 38280, Note_on_c, 7, 60, 63
10, 38400, Note_off_c, 7, 55, 80
10, 38400, Note_off_c, 7, 60, 80
10, 38400, End_track
0, 0, End_of_file
